<ttFont>
        <CharString name=".notdef">
          -1200 -1 901 rmoveto
          -13 0 -11 6 -9 12 -126 224 -63 116 0 7 0 29 14 15 27 0 rrcurveto
          365 hlineto
          27 0 13 -15 0 -29 0 -7 -63 -116 -126 -224 -8 -12 -12 -6 -15 0 rrcurveto
          184 -737 rmoveto
          -365 hlineto
          -27 0 -14 14 0 29 0 9 63 116 126 222 9 14 11 7 13 0 15 0 12 -7 8 -14 126 -222 63 -116 0 -9 0 -29 -13 -14 -27 0 rrcurveto
          -485 264 rmoveto
          -29 0 -14 13 0 26 rrcurveto
          537 vlineto
          0 27 14 13 29 0 14 0 12 -5 9 -11 122 -185 61 -97 0 -9 0 -9 -61 -98 -122 -186 -9 -11 -12 -5 -14 0 rrcurveto
          603 hmoveto
          -12 0 -11 5 -11 11 -121 186 -61 98 0 9 0 9 61 97 121 185 11 11 11 5 12 0 29 0 15 -13 0 -27 rrcurveto
          -537 vlineto
          0 -26 -15 -13 -29 0 rrcurveto
          76 -421 rmoveto
          31 0 26 12 20 23 20 23 10 24 0 27 rrcurveto
          1237 vlineto
          0 29 -10 26 -20 23 -20 23 -26 11 -31 0 rrcurveto
          -756 hlineto
          -31 0 -25 -11 -20 -22 -20 -22 -10 -26 0 -31 rrcurveto
          -1237 vlineto
          0 -27 10 -24 20 -23 20 -23 25 -12 31 0 rrcurveto
          endchar
        </CharString>
        <CharString name="A">
          0 766 512 rmoveto
          -332 hlineto
          -12 0 -9 4 -7 8 -7 7 -3 9 0 9 0 4 56 183 112 364 6 18 12 9 18 0 18 0 12 -9 6 -18 112 -364 56 -183 0 -4 0 -9 -3 -9 -7 -7 -7 -8 -9 -4 -12 0 rrcurveto
          283 -542 rmoveto
          26 0 22 9 18 19 17 19 9 21 0 24 0 9 -1 10 -3 9 rrcurveto
          -379 1220 rlineto
          -12 36 -20 29 -29 22 -29 22 -33 11 -35 0 -35 0 -32 -11 -29 -22 -29 -22 -21 -29 -12 -36 rrcurveto
          -379 -1220 rlineto
          -3 -9 -1 -10 0 -9 0 -24 9 -21 18 -19 17 -19 22 -9 26 0 21 0 18 6 16 12 16 11 11 16 7 20 rrcurveto
          85 266 rlineto
          7 21 15 11 22 0 rrcurveto
          462 hlineto
          22 0 15 -11 7 -21 rrcurveto
          85 -266 rlineto
          7 -20 11 -16 16 -11 16 -12 18 -6 21 0 rrcurveto
          endchar
        </CharString>
        <CharString name="B">
          0 638 180 rmoveto
          -225 hlineto
          -12 0 -10 4 -8 9 -8 8 -4 10 0 12 rrcurveto
          368 vlineto
          0 12 4 10 8 8 8 8 10 4 12 0 rrcurveto
          226 1 rlineto
          77 -4 62 -23 46 -41 46 -42 23 -47 0 -53 0 -66 -25 -57 -49 -48 -50 -49 -60 -24 -71 0 rrcurveto
          634 vmoveto
          -225 hlineto
          -12 0 -10 4 -8 8 -8 8 -4 10 0 12 rrcurveto
          321 vlineto
          0 12 4 10 8 8 8 8 10 4 12 0 rrcurveto
          225 hlineto
          55 0 47 -17 40 -35 40 -35 20 -44 0 -55 0 -54 -20 -50 -41 -46 -41 -46 -47 -23 -53 0 rrcurveto
          -1 -814 rmoveto
          79 0 73 19 66 38 66 38 53 51 39 64 39 64 20 71 0 78 0 124 -51 92 -103 62 -1 0 -5 2 -7 5 -12 7 -6 8 0 7 0 8 7 9 15 10 39 29 29 39 19 49 rrcurveto
          16 43 8 53 0 64 0 57 -17 56 -33 57 -34 56 -46 47 -57 37 -58 37 -65 19 -73 0 rrcurveto
          -353 hlineto
          -26 0 -22 -9 -18 -19 -19 -19 -9 -22 0 -25 rrcurveto
          -1212 vlineto
          0 -26 9 -22 19 -18 18 -19 22 -9 26 0 rrcurveto
          endchar
        </CharString>
        <CharString name="C">
          0 726 -30 rmoveto
          95 0 85 13 75 26 45 15 23 28 0 43 0 35 -10 26 -20 17 -12 11 -17 5 -22 0 -9 0 -8 -2 -7 -4 -45 -23 -70 -11 -96 0 -115 3 -93 48 -70 95 -70 94 -35 135 0 175 rrcurveto
          0 179 38 136 77 95 76 94 89 48 103 3 111 0 71 -8 31 -17 10 -5 9 -3 7 0 18 0 16 6 13 12 20 17 10 23 0 28 0 82 -108 41 -215 0 -168 0 -135 -66 -102 -133 rrcurveto
          -97 -133 -51 -180 -3 -227 0 -210 50 -174 101 -138 102 -133 135 -66 168 0 rrcurveto
          endchar
        </CharString>
        <CharString name="D">
          0 445 180 rmoveto
          -32 hlineto
          -12 0 -10 4 -8 9 -9 8 -4 10 0 12 rrcurveto
          954 vlineto
          0 12 4 10 9 8 8 8 10 4 12 0 51 0 49 -1 46 -3 45 -3 43 -8 40 -14 39 -14 36 -23 32 -32 29 -29 21 -37 13 -45 13 -46 9 -53 4 -60 4 -61 2 -66 0 -72 rrcurveto
          0 -168 -35 -121 -69 -73 -70 -73 -113 -37 -157 0 rrcurveto
          -180 vmoveto
          143 0 118 22 92 43 92 43 68 70 45 96 44 95 22 126 0 157 rrcurveto
          136 vlineto
          0 143 -22 117 -43 90 -43 90 -65 66 -86 43 -87 42 -108 21 -131 0 rrcurveto
          -200 hlineto
          -26 0 -22 -9 -18 -19 -19 -19 -9 -22 0 -25 rrcurveto
          -1212 vlineto
          0 -26 9 -22 19 -18 18 -19 22 -9 26 0 rrcurveto
          endchar
        </CharString>
        <CharString name="E">
          0 968 hmoveto
          25 0 21 9 18 18 17 17 9 21 0 25 0 25 -9 21 -17 18 -18 17 -21 9 -25 0 rrcurveto
          -525 hlineto
          -12 0 -10 4 -8 9 -9 8 -4 10 0 11 rrcurveto
          346 vlineto
          0 12 4 10 9 8 8 8 10 4 12 0 rrcurveto
          468 hlineto
          25 0 21 9 18 18 17 17 9 21 0 25 0 25 -9 21 -17 18 -18 17 -21 9 -25 0 rrcurveto
          -468 hlineto
          -12 0 -10 4 -8 9 -9 8 -4 10 0 12 rrcurveto
          344 vlineto
          0 12 4 10 9 9 8 8 10 4 12 0 rrcurveto
          525 hlineto
          25 0 21 9 18 18 17 17 9 21 0 25 0 25 -9 21 -17 18 -18 17 -21 9 -25 0 rrcurveto
          -654 hlineto
          -26 0 -22 -9 -18 -18 -19 -19 -9 -22 0 -25 rrcurveto
          -1214 vlineto
          0 -25 9 -22 19 -18 18 -19 22 -9 26 0 rrcurveto
          endchar
        </CharString>
        <CharString name="F">
          0 310 -30 rmoveto
          25 0 21 9 18 18 17 17 9 21 0 25 rrcurveto
          508 vlineto
          0 12 4 10 9 8 8 8 10 4 12 0 rrcurveto
          460 hlineto
          25 0 21 9 18 18 17 17 9 21 0 25 0 25 -9 21 -17 18 -18 17 -21 9 -25 0 rrcurveto
          -460 hlineto
          -12 0 -10 4 -8 9 -9 8 -4 10 0 12 rrcurveto
          344 vlineto
          0 12 4 10 9 9 8 8 10 4 12 0 rrcurveto
          537 hlineto
          25 0 21 9 18 18 17 17 9 21 0 25 0 25 -9 21 -17 18 -18 17 -21 9 -25 0 rrcurveto
          -666 hlineto
          -26 0 -22 -9 -18 -18 -19 -19 -9 -22 0 -25 rrcurveto
          -1247 vlineto
          0 -25 9 -21 18 -17 17 -18 21 -9 25 0 rrcurveto
          endchar
        </CharString>
        <CharString name="G">
          0 606 -30 rmoveto
          146 0 122 55 99 110 24 28 12 34 0 40 rrcurveto
          448 vlineto
          0 14 -4 12 -8 9 -9 9 -10 4 -13 0 rrcurveto
          -319 hlineto
          -21 0 -20 -7 -17 -15 -17 -15 -9 -21 0 -26 0 -31 10 -24 19 -17 19 -18 20 -9 21 0 rrcurveto
          150 hlineto
          27 0 13 -14 0 -28 rrcurveto
          -238 vlineto
          0 -23 -9 -18 -17 -14 -56 -43 -63 -21 -70 0 -108 0 -79 42 -50 85 -51 85 -26 113 -3 142 rrcurveto
          167 vlineto
          0 72 9 70 18 67 41 171 91 85 142 0 113 0 76 -69 39 -138 12 -43 29 -22 46 0 23 0 19 9 17 17 17 17 8 22 0 27 0 7 -2 10 -4 13 -57 220 -131 110 -205 0 rrcurveto
          -127 0 -96 -33 -66 -66 -124 -122 -64 -183 -3 -243 rrcurveto
          -165 vlineto
          2 -107 19 -103 35 -100 35 -100 51 -81 69 -63 68 -63 88 -31 109 0 rrcurveto
          endchar
        </CharString>
        <CharString name="H">
          0 950 -30 rmoveto
          25 0 21 9 18 18 17 17 9 21 0 25 rrcurveto
          1280 vlineto
          0 25 -9 21 -17 18 -18 17 -21 9 -25 0 -25 0 -21 -9 -17 -17 -18 -18 -9 -21 0 -25 rrcurveto
          -507 vlineto
          0 -12 -4 -10 -8 -8 -9 -9 -10 -4 -12 0 rrcurveto
          -434 hlineto
          -12 0 -10 4 -8 9 -8 8 -4 10 0 12 rrcurveto
          507 vlineto
          0 25 -9 21 -18 18 -18 17 -21 9 -25 0 -25 0 -21 -9 -17 -17 -18 -18 -9 -21 0 -25 rrcurveto
          -1280 vlineto
          0 -25 9 -21 18 -17 17 -18 21 -9 25 0 25 0 21 9 18 18 18 17 9 21 0 25 rrcurveto
          508 vlineto
          0 12 4 10 8 8 8 8 10 4 12 0 rrcurveto
          434 hlineto
          12 0 10 -4 9 -8 8 -8 4 -10 0 -12 rrcurveto
          -508 vlineto
          0 -25 9 -21 18 -17 17 -18 21 -9 25 0 rrcurveto
          endchar
        </CharString>
        <CharString name="I">
          0 920 hmoveto
          25 0 21 9 18 18 17 17 9 21 0 25 0 25 -9 21 -17 18 -18 17 -21 9 -25 0 rrcurveto
          -188 hlineto
          -11 0 -10 4 -8 9 -9 8 -4 10 0 12 rrcurveto
          954 vlineto
          0 12 4 10 9 8 8 8 10 4 11 0 rrcurveto
          188 hlineto
          25 0 21 9 18 18 17 17 9 21 0 25 0 25 -9 21 -17 18 -18 18 -21 9 -25 0 rrcurveto
          -640 hlineto
          -25 0 -21 -9 -17 -18 -18 -18 -9 -21 0 -25 0 -25 9 -21 18 -17 17 -18 21 -9 25 0 rrcurveto
          187 hlineto
          12 0 10 -4 9 -8 8 -8 4 -10 0 -12 rrcurveto
          -954 vlineto
          0 -12 -4 -10 -8 -8 -9 -9 -10 -4 -12 0 rrcurveto
          -187 hlineto
          -25 0 -21 -9 -17 -17 -18 -18 -9 -21 0 -25 0 -25 9 -21 18 -17 17 -18 21 -9 25 0 rrcurveto
          endchar
        </CharString>
        <CharString name="J">
          0 590 -30 rmoveto
          76 0 69 17 63 34 62 34 49 47 37 59 36 59 18 66 0 75 rrcurveto
          947 vlineto
          0 25 -9 21 -18 19 -19 18 -22 9 -26 0 rrcurveto
          -413 hlineto
          -25 0 -21 -9 -17 -17 -18 -18 -9 -21 0 -25 0 -24 9 -21 18 -18 17 -19 21 -9 25 0 rrcurveto
          285 hlineto
          12 0 10 -4 8 -7 8 -8 4 -10 0 -12 rrcurveto
          -817 vlineto
          0 -57 -20 -50 -41 -42 -27 -27 -30 -18 -31 -9 -31 -9 -40 -4 -47 0 -63 0 -52 15 -39 29 -39 29 -26 37 -13 45 -17 43 -30 21 -41 0 -26 0 -22 -9 -17 -18 -17 -19 -9 -21 0 -25 rrcurveto
          2 -63 34 -62 66 -61 48 -47 52 -31 55 -15 55 -15 64 -8 72 0 rrcurveto
          endchar
        </CharString>
        <CharString name="K">
          0 1002 -30 rmoveto
          25 0 22 9 17 18 17 18 9 21 0 23 0 15 -4 14 -8 15 rrcurveto
          -413 682 rlineto
          -4 7 -2 6 0 7 0 10 3 9 7 9 rrcurveto
          330 451 rlineto
          13 18 6 18 0 19 0 23 -8 21 -17 19 -17 19 -21 9 -26 0 -28 0 -24 -11 -19 -23 rrcurveto
          -403 -544 rlineto
          -10 -11 -11 -5 -12 0 -11 0 -10 4 -9 8 -9 7 -5 11 0 13 rrcurveto
          461 vlineto
          0 25 -9 22 -17 17 -18 17 -21 9 -25 0 -25 0 -21 -9 -17 -17 -18 -17 -9 -22 0 -25 rrcurveto
          -1281 vlineto
          0 -24 9 -21 18 -17 17 -18 21 -9 25 0 25 0 21 9 18 18 17 17 9 21 0 24 rrcurveto
          362 vlineto
          0 21 6 19 13 17 rrcurveto
          91 130 rlineto
          10 11 11 5 13 0 15 0 12 -7 10 -15 rrcurveto
          361 -586 rlineto
          19 -31 27 -15 34 0 rrcurveto
          endchar
        </CharString>
        <CharString name="L">
          0 982 hmoveto
          24 0 21 9 17 18 17 17 9 21 0 24 -1 26 -8 22 -17 17 -17 17 -22 9 -27 0 rrcurveto
          -461 hlineto
          -25 0 -20 9 -17 17 -17 17 -8 21 0 25 rrcurveto
          1069 vlineto
          0 24 -8 21 -15 19 -16 18 -22 9 -28 1 -27 0 -22 -9 -17 -17 -17 -18 -8 -21 0 -25 rrcurveto
          -1201 vlineto
          0 -39 14 -32 27 -27 27 -27 32 -14 39 0 rrcurveto
          endchar
        </CharString>
        <CharString name="M">
          0 968 -30 rmoveto
          24 0 21 9 19 18 18 17 9 22 0 25 rrcurveto
          1260 vlineto
          0 29 -11 26 -21 22 -22 21 -26 11 -30 0 -22 0 -20 -6 -18 -11 -18 -12 -13 -16 -9 -21 rrcurveto
          -211 -550 rlineto
          -4 -10 -5 -8 -5 -7 -5 -7 -9 -3 -11 0 -18 0 -13 12 -8 23 rrcurveto
          -212 550 rlineto
          -8 21 -13 16 -18 12 -19 11 -20 6 -22 0 -29 0 -25 -11 -21 -21 -21 -22 -11 -26 0 -29 rrcurveto
          -1260 vlineto
          0 -25 9 -22 18 -17 17 -18 21 -9 25 0 24 0 21 9 18 18 18 17 9 22 0 25 rrcurveto
          833 vlineto
          0 14 7 7 13 0 7 0 6 -4 4 -8 rrcurveto
          132 -348 rlineto
          9 -23 15 -17 20 -12 20 -12 21 -6 23 0 23 0 22 6 21 13 20 13 14 17 9 21 rrcurveto
          132 348 rlineto
          5 8 6 4 7 0 5 0 5 -2 5 -3 4 -4 2 -5 0 -7 rrcurveto
          -833 vlineto
          0 -25 9 -22 18 -17 17 -18 21 -9 25 0 rrcurveto
          endchar
        </CharString>
        <CharString name="N">
          0 941 -30 rmoveto
          29 0 26 11 22 21 21 21 11 26 0 31 rrcurveto
          1260 vlineto
          0 25 -9 22 -17 17 -18 17 -21 9 -25 0 -25 0 -21 -9 -17 -17 -18 -17 -9 -22 0 -25 rrcurveto
          -880 vlineto
          0 -14 -7 -7 -13 0 -7 0 -6 4 -4 8 rrcurveto
          -474 916 rlineto
          -25 42 -33 21 -41 0 -30 0 -26 -11 -21 -21 -22 -22 -11 -26 0 -29 rrcurveto
          -1260 vlineto
          0 -25 9 -22 18 -17 17 -18 21 -9 25 0 25 0 22 9 18 18 17 17 9 22 0 25 rrcurveto
          880 vlineto
          0 13 6 7 13 0 7 0 6 -4 5 -7 rrcurveto
          473 -916 rlineto
          25 -43 33 -21 42 0 rrcurveto
          endchar
        </CharString>
        <CharString name="O">
          0 600 150 rmoveto
          -105 0 -76 62 -45 125 -36 97 -18 121 0 145 0 145 18 121 36 97 45 125 76 62 105 0 105 0 75 -63 47 -126 35 -98 18 -120 0 -143 0 -142 -18 -120 -35 -98 -45 -127 -76 -63 -106 0 rrcurveto
          -180 vmoveto
          146 0 110 57 76 113 85 128 43 187 0 245 0 61 -3 64 -7 67 -7 67 -13 66 -19 63 -19 63 -27 58 -34 51 -35 51 -44 42 -53 31 -54 31 -66 15 -78 0 -145 0 -110 -57 -75 -113 rrcurveto
          -87 -131 -44 -187 0 -242 0 -356 87 -228 174 -99 54 -31 66 -16 79 0 rrcurveto
          endchar
        </CharString>
        <CharString name="P">
          0 677 740 rmoveto
          -234 hlineto
          -12 0 -10 4 -8 9 -9 8 -4 10 0 12 rrcurveto
          394 vlineto
          0 12 4 10 9 8 8 8 10 4 12 0 rrcurveto
          234 hlineto
          37 0 34 -8 31 -17 31 -17 24 -26 19 -33 18 -33 9 -42 0 -50 0 -89 -20 -64 -40 -40 -40 -40 -48 -20 -55 0 rrcurveto
          -367 -770 rmoveto
          25 0 21 9 18 18 17 17 9 21 0 25 rrcurveto
          457 vlineto
          0 12 4 10 9 9 8 8 10 4 12 0 rrcurveto
          234 hlineto
          69 0 64 18 59 37 58 37 46 51 35 65 35 65 17 75 0 85 0 68 -9 57 -18 45 -19 45 -28 41 -37 37 -76 76 -91 38 -105 0 rrcurveto
          -363 hlineto
          -26 0 -22 -9 -18 -19 -19 -19 -9 -22 0 -25 rrcurveto
          -1246 vlineto
          0 -25 9 -21 18 -17 17 -18 21 -9 25 0 rrcurveto
          endchar
        </CharString>
        <CharString name="Q">
          0 600 150 rmoveto
          -105 0 -76 62 -45 125 -36 97 -18 121 0 145 0 145 18 121 36 97 45 125 76 62 105 0 105 0 75 -63 47 -126 35 -98 18 -120 0 -143 0 -142 -18 -120 -35 -98 -45 -127 -76 -63 -106 0 rrcurveto
          -180 vmoveto
          146 0 110 57 76 113 85 128 43 187 0 245 0 61 -3 64 -7 67 -7 67 -13 66 -19 63 -19 63 -27 58 -34 51 -35 51 -44 42 -53 31 -54 31 -66 15 -78 0 -145 0 -110 -57 -75 -113 rrcurveto
          -87 -131 -44 -187 0 -242 0 -356 87 -228 174 -99 54 -31 66 -16 79 0 rrcurveto
          386 -391 rmoveto
          25 0 21 9 18 19 18 19 9 20 0 23 0 18 -5 17 -11 16 -11 16 -15 11 -18 7 rrcurveto
          -390 142 rlineto
          -10 4 -10 2 -10 0 -25 0 -22 -9 -17 -19 -18 -19 -9 -20 0 -23 0 -18 6 -17 11 -15 11 -16 14 -12 17 -7 rrcurveto
          391 -142 rlineto
          10 -4 10 -2 10 0 rrcurveto
          endchar
        </CharString>
        <CharString name="R">
          0 638 750 rmoveto
          -224 hlineto
          -12 0 -10 4 -8 9 -9 8 -4 10 0 12 rrcurveto
          384 vlineto
          0 12 4 10 9 8 8 8 10 4 12 0 rrcurveto
          224 hlineto
          37 0 34 -8 31 -15 31 -16 24 -25 19 -33 18 -33 9 -43 0 -52 0 -52 -9 -44 -19 -36 -19 -37 -25 -27 -31 -19 -31 -19 -33 -10 -36 0 rrcurveto
          329 -780 rmoveto
          26 0 22 9 17 19 17 18 9 21 0 24 0 13 -4 14 -7 15 rrcurveto
          -281 441 rlineto
          -3 5 -2 7 0 7 0 18 8 13 17 9 44 19 40 28 35 36 35 36 29 44 21 52 21 52 10 59 0 65 0 73 -9 58 -19 43 -19 43 -28 39 -37 36 -75 76 -91 38 -105 0 rrcurveto
          -354 hlineto
          -25 0 -22 -9 -19 -19 -19 -19 -9 -22 0 -25 rrcurveto
          -1245 vlineto
          0 -26 9 -22 18 -17 18 -17 22 -9 26 0 23 0 21 9 18 18 17 17 9 22 0 25 rrcurveto
          466 vlineto
          0 12 4 10 9 9 8 8 10 4 12 0 rrcurveto
          109 hlineto
          15 0 12 -7 9 -15 rrcurveto
          330 -532 rlineto
          20 -31 26 -15 32 0 rrcurveto
          endchar
        </CharString>
        <CharString name="S">
          0 610 -30 rmoveto
          82 0 69 14 57 29 57 29 51 43 46 57 45 57 23 71 0 85 0 139 -71 113 -142 86 -52 31 -71 31 -89 31 -159 53 -80 86 -2 117 0 66 23 52 45 37 45 37 56 18 68 0 rrcurveto
          58 0 52 -11 45 -23 45 -23 29 -30 14 -37 17 -49 29 -24 40 0 51 0 26 29 0 59 0 9 -1 10 -3 11 -17 74 -44 61 -71 49 -71 49 -93 24 -114 0 -75 0 -66 -15 -59 -29 rrcurveto
          -59 -30 -50 -45 -39 -60 -40 -60 -20 -77 0 -93 0 -186 129 -139 258 -91 41 -14 42 -18 43 -21 101 -48 51 -61 0 -73 0 -83 -36 -60 -71 -39 -45 -23 -48 -12 -50 0 -106 3 -94 52 -82 101 rrcurveto
          -25 32 -27 16 -28 0 -25 0 -21 -9 -15 -19 -16 -19 -8 -23 0 -29 0 -12 2 -11 5 -9 27 -61 56 -58 84 -55 83 -55 91 -27 99 0 rrcurveto
          endchar
        </CharString>
        <CharString name="T">
          0 600 -30 rmoveto
          25 0 21 9 18 18 17 17 9 21 0 25 rrcurveto
          1117 vlineto
          0 12 4 10 9 9 8 8 10 4 12 0 rrcurveto
          247 hlineto
          25 0 21 9 18 17 17 17 9 21 0 25 0 25 -9 21 -17 18 -18 18 -21 9 -25 0 rrcurveto
          -760 hlineto
          -25 0 -21 -9 -17 -18 -18 -18 -9 -21 0 -25 0 -25 9 -21 18 -17 17 -17 21 -9 25 0 rrcurveto
          247 hlineto
          14 0 11 -4 7 -8 7 -9 4 -10 0 -12 rrcurveto
          -1117 vlineto
          0 -25 9 -21 18 -17 17 -18 21 -9 25 0 rrcurveto
          endchar
        </CharString>
        <CharString name="U">
          0 599 -30 rmoveto
          92 0 79 22 66 44 65 44 51 62 35 80 35 79 18 93 0 107 rrcurveto
          843 vlineto
          0 25 -9 21 -17 18 -18 17 -21 9 -25 0 -25 0 -21 -9 -18 -17 -18 -18 -9 -21 0 -25 rrcurveto
          -843 vlineto
          0 -66 -10 -59 -19 -52 -19 -53 -29 -41 -39 -30 -39 -30 -48 -15 -57 0 -57 0 -48 16 -38 31 -39 31 -29 41 -19 53 -19 52 -10 58 0 64 rrcurveto
          843 vlineto
          0 25 -9 21 -17 18 -18 17 -21 9 -25 0 -25 0 -21 -9 -17 -17 -18 -18 -9 -21 0 -25 rrcurveto
          -843 vlineto
          0 -107 18 -93 35 -79 35 -80 50 -62 66 -44 65 -44 79 -22 91 0 rrcurveto
          endchar
        </CharString>
        <CharString name="V">
          0 600 -13 rmoveto
          26 0 23 8 21 17 21 17 14 21 8 26 rrcurveto
          355 1257 rlineto
          1 8 1 7 0 7 0 24 -8 21 -17 19 -17 19 -22 9 -26 0 -21 0 -18 -6 -16 -12 -17 -13 -11 -16 -5 -20 rrcurveto
          -272 -984 rlineto
          -1 -9 -7 -4 -12 0 -9 0 -6 4 -3 9 rrcurveto
          -274 984 rlineto
          -6 20 -11 16 -16 13 -16 12 -18 6 -20 0 -23 0 -20 -9 -19 -17 -19 -17 -10 -22 0 -25 0 -9 115 -427 231 -845 9 -29 15 -22 22 -15 22 -15 26 -8 30 0 rrcurveto
          endchar
        </CharString>
        <CharString name="W">
          0 906 -30 rmoveto
          29 0 26 10 21 20 21 19 11 25 2 30 rrcurveto
          68 1267 rlineto
          0 24 -9 21 -19 18 -19 17 -21 9 -25 0 -24 0 -21 -8 -17 -17 -18 -17 -10 -21 -2 -25 rrcurveto
          -40 -868 rlineto
          0 -13 -6 -6 -12 0 -9 0 -6 5 -3 9 rrcurveto
          -124 459 rlineto
          -7 21 -12 17 -19 13 -19 13 -20 6 -22 0 -22 0 -20 -6 -18 -13 -19 -13 -12 -17 -7 -20 rrcurveto
          -128 -460 rlineto
          -3 -9 -6 -5 -8 0 -10 0 -5 6 -1 13 rrcurveto
          -43 868 rlineto
          -1 25 -10 21 -17 17 -17 17 -21 8 -24 0 -25 0 -21 -8 -18 -17 -19 -17 -9 -21 0 -24 rrcurveto
          68 -1269 rlineto
          1 -30 12 -25 21 -19 21 -20 25 -10 29 0 23 0 21 7 19 13 19 13 13 18 9 23 rrcurveto
          188 635 rlineto
          3 9 5 4 7 0 7 0 5 -4 3 -9 rrcurveto
          188 -633 rlineto
          7 -23 14 -18 19 -14 19 -14 21 -7 23 0 rrcurveto
          endchar
        </CharString>
        <CharString name="X">
          0 961 -30 rmoveto
          27 0 22 10 17 19 17 19 8 22 0 24 0 15 -4 15 -7 15 rrcurveto
          -324 583 rlineto
          -3 6 -2 7 0 7 0 7 2 7 3 7 rrcurveto
          301 557 rlineto
          7 15 4 15 0 15 0 25 -8 22 -17 19 -17 19 -22 10 -27 0 -34 0 -27 -17 -21 -33 rrcurveto
          -238 -459 rlineto
          -4 -7 -5 -4 -6 0 -7 0 -5 4 -4 7 rrcurveto
          -238 459 rlineto
          -20 33 -28 17 -36 0 -26 0 -22 -10 -17 -19 -17 -19 -9 -22 0 -25 0 -15 4 -15 7 -15 rrcurveto
          301 -557 rlineto
          3 -7 2 -7 0 -7 0 -7 -2 -7 -3 -6 rrcurveto
          -324 -583 rlineto
          -8 -15 -4 -16 0 -15 0 -25 9 -21 18 -19 18 -19 22 -9 27 0 33 0 26 16 21 33 rrcurveto
          264 505 rlineto
          3 6 5 3 7 0 7 0 5 -3 3 -6 rrcurveto
          261 -505 rlineto
          21 -33 27 -16 34 0 rrcurveto
          endchar
        </CharString>
        <CharString name="Y">
          0 601 -30 rmoveto
          25 0 21 9 17 18 17 17 9 22 0 25 rrcurveto
          632 vlineto
          0 13 4 14 7 14 rrcurveto
          315 562 rlineto
          8 15 4 15 0 15 0 23 -8 21 -17 18 -17 18 -21 9 -25 0 -16 0 -15 -4 -15 -7 -15 -8 -12 -11 -8 -14 rrcurveto
          -226 -405 rlineto
          -9 -13 -12 -7 -14 0 -15 0 -12 7 -9 13 rrcurveto
          -222 405 rlineto
          -18 29 -28 15 -37 0 -25 0 -21 -9 -17 -18 -17 -18 -9 -20 0 -23 0 -15 4 -16 9 -15 rrcurveto
          317 -564 rlineto
          8 -13 4 -15 0 -17 rrcurveto
          -626 vlineto
          0 -25 9 -22 18 -17 17 -18 22 -9 25 0 rrcurveto
          endchar
        </CharString>
        <CharString name="Z">
          0 940 hmoveto
          25 0 21 9 18 18 17 17 9 21 0 25 0 25 -9 22 -17 17 -18 17 -21 9 -25 0 rrcurveto
          -483 hlineto
          -13 0 -10 4 -7 9 -8 9 -4 10 0 12 0 7 2 8 4 7 rrcurveto
          591 944 rlineto
          12 22 6 24 0 25 0 39 -13 33 -27 27 -27 27 -33 13 -38 0 rrcurveto
          -631 hlineto
          -23 0 -21 -9 -18 -17 -19 -18 -9 -21 0 -25 0 -25 9 -22 19 -17 18 -18 21 -9 23 0 rrcurveto
          483 hlineto
          13 0 11 -4 8 -8 8 -9 4 -10 0 -11 0 -7 -2 -7 -3 -7 rrcurveto
          -592 -944 rlineto
          -13 -22 -7 -24 0 -25 0 -39 14 -33 28 -27 27 -28 33 -14 39 0 rrcurveto
          endchar
        </CharString>
        <CharString name="a">
          0 485 165 rmoveto
          -112 0 -56 82 0 163 1 93 18 82 35 69 34 69 41 55 47 40 47 39 50 20 53 0 57 0 45 -32 35 -65 23 -43 11 -46 0 -49 0 -144 -30 -115 -60 -86 -63 -86 -79 -44 -97 -2 rrcurveto
          496 -195 rmoveto
          22 0 17 5 13 10 22 17 11 24 0 31 0 13 -3 11 -5 9 -43 61 -23 116 -1 171 0 222 9 185 19 148 0 26 -8 19 -15 13 -22 19 -23 10 -23 0 -51 0 -29 -24 -8 -48 rrcurveto
          -3 -13 -6 -7 -9 0 -8 0 -7 3 -6 7 -45 53 -54 28 -61 1 -94 0 -84 -32 -73 -65 -74 -65 -61 -82 -48 -101 -48 -101 -24 -112 0 -121 0 -141 31 -107 62 -73 61 -73 83 -37 104 0 rrcurveto
          73 0 70 21 67 41 67 41 44 41 21 41 4 9 7 5 9 0 9 0 8 -14 7 -27 28 -105 40 -53 51 0 rrcurveto
          endchar
        </CharString>
        <CharString name="ampersand">
          0 1023 -30 rmoveto
          25 0 22 9 17 19 17 18 8 22 0 26 0 33 -17 48 -35 63 -34 -65 -36 -51 -39 -38 2 -56 24 -28 46 0 rrcurveto
          -323 445 rmoveto
          28 23 32 58 35 93 rrcurveto
          -281 277 rlineto
          -81 79 -41 72 0 66 0 48 14 40 29 32 29 31 39 16 51 0 39 0 34 -10 29 -19 29 -20 22 -27 17 -35 16 -35 27 -17 39 0 24 0 20 9 17 18 17 18 8 21 0 24 rrcurveto
          0 8 -3 13 -6 17 -28 71 -43 54 -59 36 -59 36 -69 18 -81 0 -92 0 -80 -31 -68 -63 -68 -63 -34 -85 0 -107 0 -109 56 -109 113 -108 rrcurveto
          142 -785 rmoveto
          91 0 90 32 89 65 88 64 72 86 55 109 55 108 28 97 0 87 0 21 -8 18 -15 17 -16 17 -21 8 -27 0 -43 0 -27 -30 -12 -59 -27 -121 -48 -101 -68 -81 -81 -94 -85 -47 -90 0 rrcurveto
          -129 0 -65 68 0 137 0 81 15 73 30 66 -48 42 -43 43 -39 45 -64 -95 -32 -116 0 -139 0 -113 33 -95 65 -77 65 -77 93 -39 119 0 rrcurveto
          endchar
        </CharString>
        <CharString name="ampersand_ampersand">
          0 -117 -30 rmoveto
          25 0 22 9 17 19 17 18 8 22 0 26 0 33 -17 48 -35 63 -34 -65 -36 -51 -39 -38 2 -56 24 -28 46 0 rrcurveto
          757 445 rmoveto
          28 23 32 58 35 93 rrcurveto
          -281 277 rlineto
          -81 79 -41 72 0 66 0 48 14 40 29 32 29 31 39 16 51 0 39 0 34 -10 29 -19 29 -20 22 -27 17 -35 16 -35 27 -17 39 0 24 0 20 9 17 18 17 18 8 21 0 24 rrcurveto
          0 8 -3 13 -6 17 -28 71 -43 54 -59 36 -59 36 -69 18 -81 0 -92 0 -80 -31 -68 -63 -68 -63 -34 -85 0 -107 0 -109 56 -109 113 -108 rrcurveto
          142 -785 rmoveto
          91 0 90 32 89 65 88 64 72 86 55 109 55 108 28 97 0 87 0 21 -8 18 -15 17 -16 17 -21 8 -27 0 -43 0 -27 -30 -12 -59 -27 -121 -48 -101 -68 -81 -81 -94 -85 -47 -90 0 rrcurveto
          -129 0 -65 68 0 137 0 81 15 73 30 66 -48 42 -43 43 -39 45 -64 -95 -32 -116 0 -139 0 -113 33 -95 65 -77 65 -77 93 -39 119 0 rrcurveto
          510 hmoveto
          25 0 22 9 17 19 17 18 8 22 0 26 0 33 -17 48 -35 63 -34 -65 -36 -51 -39 -38 2 -56 24 -28 46 0 rrcurveto
          -1403 445 rmoveto
          28 23 32 58 35 93 rrcurveto
          -281 277 rlineto
          -81 79 -41 72 0 66 0 48 14 40 29 32 29 31 39 16 51 0 39 0 34 -10 29 -19 29 -20 22 -27 17 -35 16 -35 27 -17 39 0 24 0 20 9 17 18 17 18 8 21 0 24 rrcurveto
          0 8 -3 13 -6 17 -28 71 -43 54 -59 36 -59 36 -69 18 -81 0 -92 0 -80 -31 -68 -63 -68 -63 -34 -85 0 -107 0 -109 56 -109 113 -108 rrcurveto
          142 -785 rmoveto
          91 0 90 32 89 65 88 64 72 86 55 109 55 108 28 97 0 87 0 21 -8 18 -15 17 -16 17 -21 8 -27 0 -43 0 -27 -30 -12 -59 -27 -121 -48 -101 -68 -81 -81 -94 -85 -47 -90 0 rrcurveto
          -129 0 -65 68 0 137 0 81 15 73 30 66 -48 42 -43 43 -39 45 -64 -95 -32 -116 0 -139 0 -113 33 -95 65 -77 65 -77 93 -39 119 0 rrcurveto
          endchar
        </CharString>
        <CharString name="asciicircum">
          0 940 570 rmoveto
          14 0 14 4 13 7 33 21 16 27 0 31 0 19 -4 15 -9 12 rrcurveto
          -337 519 rlineto
          -23 31 -26 15 -29 0 -32 0 -27 -15 -23 -31 rrcurveto
          -338 -517 rlineto
          -8 -16 -4 -16 0 -15 0 -29 14 -26 28 -21 17 -9 16 -5 16 0 31 0 25 15 21 29 rrcurveto
          237 380 rlineto
          7 9 8 4 9 0 9 0 8 -4 7 -9 rrcurveto
          238 -378 rlineto
          21 -31 27 -16 31 0 rrcurveto
          endchar
        </CharString>
        <CharString name="asciitilde">
          0 788 382 rmoveto
          82 0 65 33 49 65 43 60 22 76 0 92 0 24 -7 21 -14 19 -15 19 -21 9 -28 0 -44 0 -26 -27 -8 -53 -15 -100 -29 -50 -45 0 -25 0 -19 5 -14 10 -31 22 -32 34 -35 46 rrcurveto
          -68 87 -75 44 -81 0 -86 0 -68 -33 -50 -67 -41 -57 -21 -75 0 -93 0 -29 7 -22 15 -17 15 -17 19 -8 24 0 25 0 21 7 16 15 15 15 9 20 1 25 5 100 31 50 58 0 rrcurveto
          39 0 51 -40 63 -79 71 -87 75 -44 77 0 rrcurveto
          endchar
        </CharString>
        <CharString name="asciitilde_at">
          0 1037 288 rmoveto
          59 0 30 25 3 49 5 103 2 89 0 74 -1 274 -54 200 -107 126 -118 135 -140 67 -162 0 -205 -1 -172 -83 -138 -165 -106 -123 -73 -141 -40 -159 -32 -125 -61 -63 -90 0 -51 0 -33 5 -14 10 rrcurveto
          -31 22 -32 34 -35 46 -68 87 -75 44 -81 0 -86 0 -68 -33 -50 -67 -41 -57 -21 -75 0 -93 0 -29 7 -22 15 -17 15 -17 19 -8 24 0 25 0 21 7 16 15 15 15 9 20 1 25 rrcurveto
          5 100 31 50 58 0 39 0 51 -40 63 -79 71 -87 88 -44 104 0 89 0 72 26 55 52 65 59 42 70 19 83 31 149 64 128 96 106 63 65 59 46 56 25 56 25 64 13 72 0 rrcurveto
          259 -5 141 -183 23 -361 2 -54 2 -92 2 -129 2 -78 26 -39 49 0 rrcurveto
          -102 -318 rmoveto
          22 0 19 2 17 4 27 7 13 24 0 42 0 27 -6 19 -13 13 -15 15 -16 7 -17 0 -44 0 -34 2 -24 5 -62 13 -34 89 -6 166 -1 94 -2 88 -2 81 -2 81 -23 70 -44 60 rrcurveto
          -45 59 -60 30 -76 0 -155 -1 -110 -104 -65 -205 -27 -91 -13 -94 0 -95 0 -272 66 -136 133 0 127 2 64 54 0 107 0 18 -4 15 -9 13 -9 12 -11 6 -13 0 -18 0 -15 -7 -11 -15 rrcurveto
          -20 -25 -21 -13 -23 0 -48 0 -24 81 0 162 0 89 10 74 21 59 41 119 55 59 69 0 27 0 22 -13 18 -27 18 -27 10 -36 1 -47 rrcurveto
          8 -250 rlineto
          5 -231 70 -132 136 -33 40 -10 41 -4 42 0 rrcurveto
          endchar
        </CharString>
        <CharString name="asterisk">
          0 600 101 rmoveto
          25 0 21 9 18 18 17 17 9 21 0 25 rrcurveto
          252 vlineto
          219 -121 rlineto
          15 -7 14 -4 15 0 25 0 22 9 18 18 17 17 9 21 0 24 0 31 -15 26 -30 21 rrcurveto
          -219 122 219 122 rlineto
          30 21 15 26 0 31 0 24 -9 21 -17 18 -18 17 -22 9 -25 0 -15 0 -14 -4 -15 -7 rrcurveto
          -219 -122 rlineto
          252 vlineto
          0 25 -9 21 -17 18 -18 17 -21 9 -25 0 -25 0 -21 -9 -17 -17 -18 -18 -9 -21 0 -25 rrcurveto
          -252 vlineto
          -219 122 rlineto
          -14 7 -15 4 -15 0 -25 0 -21 -9 -18 -17 -18 -18 -9 -21 0 -24 0 -34 15 -26 30 -18 rrcurveto
          219 -122 -219 -122 rlineto
          -30 -21 -15 -27 0 -31 0 -24 9 -21 18 -17 18 -18 21 -9 25 0 15 0 15 4 14 7 rrcurveto
          219 122 rlineto
          -252 vlineto
          0 -25 9 -21 18 -17 17 -18 21 -9 25 0 rrcurveto
          endchar
        </CharString>
        <CharString name="asterisk_slash">
          0 -600 -29 rmoveto
          25 0 21 9 18 18 17 17 9 21 0 25 rrcurveto
          252 vlineto
          219 -121 rlineto
          15 -7 14 -4 15 0 25 0 22 9 18 18 17 17 9 21 0 24 0 31 -15 26 -30 21 rrcurveto
          -219 122 219 122 rlineto
          30 21 15 26 0 31 0 24 -9 21 -17 18 -18 17 -22 9 -25 0 -15 0 -14 -4 -15 -7 rrcurveto
          -219 -122 rlineto
          252 vlineto
          0 25 -9 21 -17 18 -18 17 -21 9 -25 0 -25 0 -21 -9 -17 -17 -18 -18 -9 -21 0 -25 rrcurveto
          -252 vlineto
          -219 122 rlineto
          -14 7 -15 4 -15 0 -25 0 -21 -9 -18 -17 -18 -18 -9 -21 0 -24 0 -34 15 -26 30 -18 rrcurveto
          219 -122 -219 -122 rlineto
          -30 -21 -15 -27 0 -31 0 -24 9 -21 18 -17 18 -18 21 -9 25 0 15 0 15 4 14 7 rrcurveto
          219 122 rlineto
          -252 vlineto
          0 -25 9 -21 18 -17 17 -18 21 -9 25 0 rrcurveto
          640 -171 rmoveto
          17 0 16 5 15 10 15 9 12 13 7 17 rrcurveto
          720 1623 rlineto
          5 13 3 12 0 12 0 17 -5 16 -9 15 -17 27 -26 14 -33 0 -17 0 -16 -5 -15 -9 -15 -9 -12 -13 -7 -17 rrcurveto
          -720 -1623 rlineto
          -5 -13 -3 -12 0 -11 0 -17 5 -17 10 -15 17 -28 25 -14 33 0 rrcurveto
          endchar
        </CharString>
        <CharString name="at">
          0 1037 288 rmoveto
          59 0 30 25 3 49 5 103 2 89 0 74 -1 274 -54 200 -107 126 -118 135 -140 67 -162 0 -205 -1 -161 -85 -117 -167 -11 -16 -5 -20 0 -24 0 -35 9 -27 18 -18 18 -18 20 -9 21 0 rrcurveto
          25 0 21 9 15 17 51 59 50 47 48 35 48 35 60 17 72 0 259 -5 141 -183 23 -361 2 -54 2 -92 2 -129 2 -78 26 -39 49 0 rrcurveto
          -102 -318 rmoveto
          22 0 19 2 17 4 27 7 13 24 0 42 0 27 -6 19 -13 13 -15 15 -16 7 -17 0 -44 0 -34 2 -24 5 -62 13 -34 89 -6 166 -1 94 -2 88 -2 81 -2 81 -23 70 -44 60 rrcurveto
          -45 59 -60 30 -76 0 -155 -1 -110 -104 -65 -205 -27 -91 -13 -94 0 -95 0 -272 66 -136 133 0 127 2 64 54 0 107 0 18 -4 15 -9 13 -9 12 -11 6 -13 0 -18 0 -15 -7 -11 -15 rrcurveto
          -20 -25 -21 -13 -23 0 -48 0 -24 81 0 162 0 89 10 74 21 59 41 119 55 59 69 0 27 0 22 -13 18 -27 18 -27 10 -36 1 -47 rrcurveto
          8 -250 rlineto
          5 -231 70 -132 136 -33 40 -10 41 -4 42 0 rrcurveto
          endchar
        </CharString>
        <CharString name="b">
          0 619 151 rmoveto
          -14 hlineto
          -54 0 -53 23 -51 45 -51 45 -26 62 0 79 rrcurveto
          213 vlineto
          0 61 25 59 51 57 47 49 57 24 67 0 85 0 65 -29 44 -59 44 -59 22 -93 0 -129 -5 -228 -86 -116 -167 -4 rrcurveto
          33 -181 rmoveto
          142 0 103 48 63 96 63 95 33 139 1 181 0 171 -36 135 -73 98 -73 98 -100 49 -125 0 -72 0 -71 -29 -69 -59 -13 -11 -13 -5 -11 0 -21 0 -10 12 0 24 rrcurveto
          424 vlineto
          0 27 -9 23 -18 18 -19 17 -20 9 -23 0 -23 0 -20 -9 -19 -17 -19 -18 -10 -23 0 -27 rrcurveto
          -1374 vlineto
          0 -27 8 -22 17 -17 16 -17 21 -9 25 0 49 0 29 30 9 61 3 23 8 12 12 0 7 0 7 -4 7 -7 79 -77 81 -38 84 0 rrcurveto
          endchar
        </CharString>
        <CharString name="backslash">
          0 960 -200 rmoveto
          33 0 25 14 18 28 9 15 5 17 0 17 0 11 -3 12 -5 13 rrcurveto
          -720 1620 rlineto
          -7 17 -12 13 -15 9 -15 9 -16 5 -17 0 -33 0 -25 -14 -17 -27 -10 -15 -5 -16 0 -17 0 -12 3 -12 5 -13 rrcurveto
          720 -1620 rlineto
          8 -17 12 -13 15 -9 15 -10 15 -5 17 0 rrcurveto
          endchar
        </CharString>
        <CharString name="bar">
          0 600 -230 rmoveto
          24 0 21 9 18 18 18 18 9 21 0 24 rrcurveto
          1680 vlineto
          0 25 -9 21 -18 18 -18 17 -21 9 -24 0 -24 0 -21 -9 -18 -17 -18 -18 -9 -21 0 -25 rrcurveto
          -1680 vlineto
          0 -24 9 -21 18 -18 18 -18 21 -9 24 0 rrcurveto
          endchar
        </CharString>
        <CharString name="bar_bar">
          0 -400 -230 rmoveto
          24 0 21 9 18 18 18 18 9 21 0 24 rrcurveto
          1680 vlineto
          0 25 -9 21 -18 18 -18 17 -21 9 -24 0 -24 0 -21 -9 -18 -17 -18 -18 -9 -21 0 -25 rrcurveto
          -1680 vlineto
          0 -24 9 -21 18 -18 18 -18 21 -9 24 0 rrcurveto
          800 hmoveto
          24 0 21 9 18 18 18 18 9 21 0 24 rrcurveto
          1680 vlineto
          0 25 -9 21 -18 18 -18 17 -21 9 -24 0 -24 0 -21 -9 -18 -17 -18 -18 -9 -21 0 -25 rrcurveto
          -1680 vlineto
          0 -24 9 -21 18 -18 18 -18 21 -9 24 0 rrcurveto
          endchar
        </CharString>
        <CharString name="boxdrawingsdoubledownandhorizontal">
          0 520 -1000 rmoveto
          1620 -530 -160 370 -1460 vlineto
          850 1780 rmoveto
          160 -1220 -160 vlineto
          850 -1780 rmoveto
          1460 370 160 -530 -1620 vlineto
          endchar
        </CharString>
        <CharString name="boxdrawingsdoubledownandleft">
          0 520 -1000 rmoveto
          1620 -530 -160 370 -1460 vlineto
          480 hmoveto
          1940 -850 -160 690 -1780 vlineto
          endchar
        </CharString>
        <CharString name="boxdrawingsdoubledownandright">
          0 840 -1000 rmoveto
          1460 370 160 -530 -1620 vlineto
          -160 hmoveto
          1780 690 160 -850 -1940 vlineto
          endchar
        </CharString>
        <CharString name="boxdrawingsdoublehorizontal">
          0 1210 460 rmoveto
          160 -1220 -160 vlineto
          1220 320 rmoveto
          160 -1220 -160 vlineto
          endchar
        </CharString>
        <CharString name="boxdrawingsdoubleupandhorizontal">
          0 1210 460 rmoveto
          160 -1220 -160 vlineto
          1220 320 rmoveto
          160 -370 1060 -160 -1220 vlineto
          -160 hmoveto
          1220 -160 -1060 -370 -160 vlineto
          endchar
        </CharString>
        <CharString name="boxdrawingsdoubleupandleft">
          0 520 780 rmoveto
          1220 -160 -1060 -370 -160 vlineto
          850 -320 rmoveto
          1540 -160 -1380 -690 -160 vlineto
          endchar
        </CharString>
        <CharString name="boxdrawingsdoubleupandright">
          0 1210 780 rmoveto
          160 -370 1060 -160 -1220 vlineto
          530 -320 rmoveto
          160 -690 1380 -160 -1540 vlineto
          endchar
        </CharString>
        <CharString name="boxdrawingsdoublevertical">
          0 520 -1000 rmoveto
          3000 -160 -3000 vlineto
          480 hmoveto
          3000 -160 -3000 vlineto
          endchar
        </CharString>
        <CharString name="boxdrawingsdoubleverticalandhorizontal">
          0 520 -1000 rmoveto
          1620 -530 -160 370 -1460 vlineto
          160 1780 rmoveto
          1220 -160 -1060 -370 -160 vlineto
          1220 hmoveto
          160 -370 1060 -160 -1220 vlineto
          160 -1780 rmoveto
          1460 370 160 -530 -1620 vlineto
          endchar
        </CharString>
        <CharString name="boxdrawingsdoubleverticalandleft">
          0 520 -1000 rmoveto
          1620 -530 -160 370 -1460 vlineto
          480 hmoveto
          3000 -160 -3000 vlineto
          -160 1780 rmoveto
          1220 -160 -1060 -370 -160 vlineto
          endchar
        </CharString>
        <CharString name="boxdrawingsdoubleverticalandright">
          0 840 -1000 rmoveto
          1460 370 160 -530 -1620 vlineto
          -160 hmoveto
          3000 -160 -3000 vlineto
          850 1780 rmoveto
          160 -370 1060 -160 -1220 vlineto
          endchar
        </CharString>
        <CharString name="boxdrawingsdowndoubleandhorizontalsingle">
          0 840 -1000 rmoveto
          1620 370 160 -1220 -160 370 -1620 160 1620 160 -1620 vlineto
          endchar
        </CharString>
        <CharString name="boxdrawingsdowndoubleandleftsingle">
          0 840 -1000 rmoveto
          1780 -850 -160 370 -1620 160 1620 160 -1620 vlineto
          endchar
        </CharString>
        <CharString name="boxdrawingsdowndoubleandrightsingle">
          0 840 -1000 rmoveto
          1620 370 160 -850 -1780 160 1620 160 -1620 vlineto
          endchar
        </CharString>
        <CharString name="boxdrawingsdownheavyandhorizontallight">
          0 840 -1000 rmoveto
          1620 370 160 -1220 -160 370 -1620 vlineto
          endchar
        </CharString>
        <CharString name="boxdrawingsdownheavyandleftlight">
          0 840 -1000 rmoveto
          1780 -850 -160 370 -1620 vlineto
          endchar
        </CharString>
        <CharString name="boxdrawingsdownheavyandleftuplight">
          0 840 -1000 rmoveto
          1780 -160 1220 -160 -1220 -530 -160 370 -1620 vlineto
          endchar
        </CharString>
        <CharString name="boxdrawingsdownheavyandrightlight">
          0 840 -1000 rmoveto
          1620 370 160 -850 -1780 vlineto
          endchar
        </CharString>
        <CharString name="boxdrawingsdownheavyandrightuplight">
          0 840 -1000 rmoveto
          1620 370 160 -530 1220 -160 -1220 -160 -1780 vlineto
          endchar
        </CharString>
        <CharString name="boxdrawingsdownheavyanduphorizontallight">
          0 840 -1000 rmoveto
          1620 370 160 -530 1220 -160 -1220 -530 -160 370 -1620 vlineto
          endchar
        </CharString>
        <CharString name="boxdrawingsdownlightandhorizontalheavy">
          0 680 -1000 rmoveto
          1460 530 480 -1220 -480 530 -1460 vlineto
          endchar
        </CharString>
        <CharString name="boxdrawingsdownlightandleftheavy">
          0 680 -1000 rmoveto
          1940 -690 -480 530 -1460 vlineto
          endchar
        </CharString>
        <CharString name="boxdrawingsdownlightandleftupheavy">
          0 680 -1000 rmoveto
          1460 160 1540 -480 -1060 -370 -480 530 -1460 vlineto
          endchar
        </CharString>
        <CharString name="boxdrawingsdownlightandrightheavy">
          0 680 -1000 rmoveto
          1460 530 480 -690 -1940 vlineto
          endchar
        </CharString>
        <CharString name="boxdrawingsdownlightandrightupheavy">
          0 680 -1000 rmoveto
          1460 530 480 -370 1060 -480 -1540 160 -1460 vlineto
          endchar
        </CharString>
        <CharString name="boxdrawingsdownlightanduphorizontalheavy">
          0 680 -1000 rmoveto
          1460 530 480 -370 1060 -480 -1060 -370 -480 530 -1460 vlineto
          endchar
        </CharString>
        <CharString name="boxdrawingsdownsingleandhorizontaldouble">
          0 680 -1000 rmoveto
          1460 530 160 -1220 -160 530 -1460 vlineto
          690 1780 rmoveto
          160 -1220 -160 vlineto
          endchar
        </CharString>
        <CharString name="boxdrawingsdownsingleandleftdouble">
          0 680 -1000 rmoveto
          1940 -690 -160 530 -160 -530 -160 530 -1460 vlineto
          endchar
        </CharString>
        <CharString name="boxdrawingsdownsingleandrightdouble">
          0 680 -1000 rmoveto
          1460 530 160 -530 160 530 160 -690 -1940 vlineto
          endchar
        </CharString>
        <CharString name="boxdrawingsheavydoubledashhorizontal">
          0 520 460 rmoveto
          480 -440 -480 vlineto
          1040 hmoveto
          480 -440 -480 vlineto
          endchar
        </CharString>
        <CharString name="boxdrawingsheavydoubledashvertical">
          0 840 -360 rmoveto
          960 -480 -960 vlineto
          480 1440 rmoveto
          960 -480 -960 vlineto
          endchar
        </CharString>
        <CharString name="boxdrawingsheavydown">
          0 840 -1000 rmoveto
          1780 -480 -1780 vlineto
          endchar
        </CharString>
        <CharString name="boxdrawingsheavydownandhorizontal">
          0 840 -1000 rmoveto
          1460 370 480 -1220 -480 370 -1460 vlineto
          endchar
        </CharString>
        <CharString name="boxdrawingsheavydownandleft">
          0 840 -1000 rmoveto
          1940 -850 -480 370 -1460 vlineto
          endchar
        </CharString>
        <CharString name="boxdrawingsheavydownandright">
          0 840 -1000 rmoveto
          1460 370 480 -850 -1940 vlineto
          endchar
        </CharString>
        <CharString name="boxdrawingsheavyhorizontal">
          0 1210 460 rmoveto
          480 -1220 -480 vlineto
          endchar
        </CharString>
        <CharString name="boxdrawingsheavyleft">
          0 680 460 rmoveto
          480 -690 -480 vlineto
          endchar
        </CharString>
        <CharString name="boxdrawingsheavyleftandlightright">
          0 680 460 rmoveto
          160 530 160 -530 160 -690 -480 vlineto
          endchar
        </CharString>
        <CharString name="boxdrawingsheavyquadrupledashhorizontal">
          0 1125 460 rmoveto
          480 -150 -480 vlineto
          -450 hmoveto
          480 -150 -480 vlineto
          450 hmoveto
          480 -150 -480 vlineto
          -450 hmoveto
          480 -150 -480 vlineto
          endchar
        </CharString>
        <CharString name="boxdrawingsheavyquadrupledashvertical">
          0 840 -520 rmoveto
          540 -480 -540 vlineto
          480 2100 rmoveto
          540 -480 -540 vlineto
          480 -700 rmoveto
          540 -480 -540 vlineto
          480 -700 rmoveto
          540 -480 -540 vlineto
          endchar
        </CharString>
        <CharString name="boxdrawingsheavyright">
          0 1210 460 rmoveto
          480 -690 -480 vlineto
          endchar
        </CharString>
        <CharString name="boxdrawingsheavytripledashhorizontal">
          0 1120 460 rmoveto
          480 -240 -480 vlineto
          -560 hmoveto
          480 -240 -480 vlineto
          640 hmoveto
          480 -240 -480 vlineto
          endchar
        </CharString>
        <CharString name="boxdrawingsheavytripledashvertical">
          0 840 -520 rmoveto
          800 -480 -800 vlineto
          480 1920 rmoveto
          800 -480 -800 vlineto
          480 -960 rmoveto
          800 -480 -800 vlineto
          endchar
        </CharString>
        <CharString name="boxdrawingsheavyup">
          0 840 620 rmoveto
          1380 -480 -1380 vlineto
          endchar
        </CharString>
        <CharString name="boxdrawingsheavyupandhorizontal">
          0 1210 460 rmoveto
          480 -370 1060 -480 -1060 -370 -480 vlineto
          endchar
        </CharString>
        <CharString name="boxdrawingsheavyupandleft">
          0 840 460 rmoveto
          1540 -480 -1060 -370 -480 vlineto
          endchar
        </CharString>
        <CharString name="boxdrawingsheavyupandlightdown">
          0 680 -1000 rmoveto
          1620 160 1380 -480 -1380 160 -1620 vlineto
          endchar
        </CharString>
        <CharString name="boxdrawingsheavyupandright">
          0 1210 460 rmoveto
          480 -370 1060 -480 -1540 vlineto
          endchar
        </CharString>
        <CharString name="boxdrawingsheavyvertical">
          0 840 -1000 rmoveto
          3000 -480 -3000 vlineto
          endchar
        </CharString>
        <CharString name="boxdrawingsheavyverticalandhorizontal">
          0 840 -1000 rmoveto
          1460 370 480 -370 1060 -480 -1060 -370 -480 370 -1460 vlineto
          endchar
        </CharString>
        <CharString name="boxdrawingsheavyverticalandleft">
          0 840 -1000 rmoveto
          3000 -480 -1060 -370 -480 370 -1460 vlineto
          endchar
        </CharString>
        <CharString name="boxdrawingsheavyverticalandright">
          0 840 -1000 rmoveto
          1460 370 480 -370 1060 -480 -3000 vlineto
          endchar
        </CharString>
        <CharString name="boxdrawingsleftdownheavyandrightuplight">
          0 840 -1000 rmoveto
          1620 370 160 -370 160 -160 1060 -160 -1060 -530 -480 370 -1460 vlineto
          endchar
        </CharString>
        <CharString name="boxdrawingsleftheavyandrightdownlight">
          0 680 -1000 rmoveto
          1620 530 160 -530 160 -690 -480 530 -1460 vlineto
          endchar
        </CharString>
        <CharString name="boxdrawingsleftheavyandrightuplight">
          0 680 460 rmoveto
          160 530 160 -530 1220 -160 -1060 -530 -480 vlineto
          endchar
        </CharString>
        <CharString name="boxdrawingsleftheavyandrightverticallight">
          0 680 -1000 rmoveto
          1620 530 160 -530 1220 -160 -1060 -530 -480 530 -1460 vlineto
          endchar
        </CharString>
        <CharString name="boxdrawingsleftlightandrightdownheavy">
          0 840 -1000 rmoveto
          1460 370 480 -850 -160 -370 -160 370 -1620 vlineto
          endchar
        </CharString>
        <CharString name="boxdrawingsleftlightandrightupheavy">
          0 1210 460 rmoveto
          480 -370 1060 -480 -1220 -370 -160 370 -160 vlineto
          endchar
        </CharString>
        <CharString name="boxdrawingsleftlightandrightverticalheavy">
          0 840 -1000 rmoveto
          1460 370 480 -370 1060 -480 -1220 -370 -160 370 -1620 vlineto
          endchar
        </CharString>
        <CharString name="boxdrawingsleftupheavyandrightdownlight">
          0 680 -1000 rmoveto
          1460 160 160 370 160 -370 1220 -480 -1060 -370 -480 530 -1460 vlineto
          endchar
        </CharString>
        <CharString name="boxdrawingslightarcdownandleft">
          0 680 -1000 rmoveto
          1240 vlineto
          0 75 -14 70 -28 65 -28 65 -39 57 -49 50 -50 49 -57 39 -65 28 -65 28 -70 14 -75 0 rrcurveto
          -150 -160 150 hlineto
          69 0 64 -17 58 -34 57 -35 46 -46 35 -57 34 -58 17 -64 0 -69 rrcurveto
          -1240 vlineto
          endchar
        </CharString>
        <CharString name="boxdrawingslightarcdownandright">
          0 680 -1000 rmoveto
          1240 vlineto
          0 69 17 64 35 58 34 57 46 46 58 35 57 34 64 17 69 0 rrcurveto
          150 160 -150 hlineto
          -75 0 -69 -14 -65 -28 -65 -28 -58 -39 -49 -49 -50 -50 -39 -57 -28 -65 -28 -65 -14 -70 0 -75 rrcurveto
          -1240 vlineto
          endchar
        </CharString>
        <CharString name="boxdrawingslightarcupandleft">
          0 140 620 rmoveto
          75 0 70 14 65 28 65 28 57 39 50 50 49 49 39 58 28 65 28 65 14 69 0 75 rrcurveto
          1240 -160 -1240 vlineto
          0 -69 -17 -64 -34 -57 -35 -58 -46 -46 -57 -34 -58 -35 -64 -17 -69 0 rrcurveto
          -150 -160 hlineto
          endchar
        </CharString>
        <CharString name="boxdrawingslightarcupandright">
          0 1210 620 rmoveto
          160 -150 vlineto
          -69 0 -64 17 -57 35 -58 34 -46 46 -34 58 -35 57 -17 64 0 69 rrcurveto
          1240 -160 -1240 vlineto
          0 -75 14 -69 28 -65 28 -65 39 -58 50 -49 49 -50 58 -39 65 -28 65 -28 69 -14 75 0 rrcurveto
          endchar
        </CharString>
        <CharString name="boxdrawingslightdiagonalcross">
          0 1130 -635 rmoveto
          -530 1060 -530 -1060 -145 72 585 1169 -580 1160 144 71 526 -1051 526 1051 144 -71 -580 -1160 585 -1169 rlineto
          endchar
        </CharString>
        <CharString name="boxdrawingslightdiagonalupperlefttolowerright">
          0 1130 -635 rmoveto
          -1200 2401 144 71 1201 -2400 rlineto
          endchar
        </CharString>
        <CharString name="boxdrawingslightdiagonalupperrighttolowerleft">
          0 70 -635 rmoveto
          1200 2401 -144 71 -1201 -2400 rlineto
          endchar
        </CharString>
        <CharString name="boxdrawingslightdoubledashhorizontal">
          0 520 620 rmoveto
          160 -440 -160 vlineto
          1040 hmoveto
          160 -440 -160 vlineto
          endchar
        </CharString>
        <CharString name="boxdrawingslightdoubledashvertical">
          0 680 -520 rmoveto
          1280 -160 -1280 vlineto
          160 1440 rmoveto
          1280 -160 -1280 vlineto
          endchar
        </CharString>
        <CharString name="boxdrawingslightdown">
          0 680 -1000 rmoveto
          1780 -160 -1780 vlineto
          endchar
        </CharString>
        <CharString name="boxdrawingslightdownandhorizontal">
          0 680 -1000 rmoveto
          1620 530 160 -1220 -160 530 -1620 vlineto
          endchar
        </CharString>
        <CharString name="boxdrawingslightdownandleft">
          0 680 -1000 rmoveto
          1780 -690 -160 530 -1620 vlineto
          endchar
        </CharString>
        <CharString name="boxdrawingslightdownandright">
          0 680 -1000 rmoveto
          1620 530 160 -690 -1780 vlineto
          endchar
        </CharString>
        <CharString name="boxdrawingslighthorizontal">
          0 1210 620 rmoveto
          160 -1220 -160 vlineto
          endchar
        </CharString>
        <CharString name="boxdrawingslightleft">
          0 680 620 rmoveto
          160 -690 -160 vlineto
          endchar
        </CharString>
        <CharString name="boxdrawingslightleftandheavyright">
          0 1210 460 rmoveto
          480 -690 -160 -530 -160 530 -160 vlineto
          endchar
        </CharString>
        <CharString name="boxdrawingslightquadrupledashhorizontal">
          0 1125 620 rmoveto
          160 -150 -160 vlineto
          -450 hmoveto
          160 -150 -160 vlineto
          450 hmoveto
          160 -150 -160 vlineto
          -450 hmoveto
          160 -150 -160 vlineto
          endchar
        </CharString>
        <CharString name="boxdrawingslightquadrupledashvertical">
          0 680 -520 rmoveto
          540 -160 -540 vlineto
          160 2100 rmoveto
          540 -160 -540 vlineto
          160 -700 rmoveto
          540 -160 -540 vlineto
          160 -700 rmoveto
          540 -160 -540 vlineto
          endchar
        </CharString>
        <CharString name="boxdrawingslightright">
          0 1210 620 rmoveto
          160 -690 -160 vlineto
          endchar
        </CharString>
        <CharString name="boxdrawingslighttripledashhorizontal">
          0 1120 620 rmoveto
          160 -240 -160 vlineto
          -560 hmoveto
          160 -240 -160 vlineto
          640 hmoveto
          160 -240 -160 vlineto
          endchar
        </CharString>
        <CharString name="boxdrawingslighttripledashvertical">
          0 680 -520 rmoveto
          800 -160 -800 vlineto
          160 1920 rmoveto
          800 -160 -800 vlineto
          160 -960 rmoveto
          800 -160 -800 vlineto
          endchar
        </CharString>
        <CharString name="boxdrawingslightup">
          0 680 620 rmoveto
          1380 -160 -1380 vlineto
          endchar
        </CharString>
        <CharString name="boxdrawingslightupandheavydown">
          0 840 -1000 rmoveto
          1780 -160 1220 -160 -1220 -160 -1780 vlineto
          endchar
        </CharString>
        <CharString name="boxdrawingslightupandhorizontal">
          0 1210 620 rmoveto
          160 -530 1220 -160 -1220 -530 -160 vlineto
          endchar
        </CharString>
        <CharString name="boxdrawingslightupandleft">
          0 680 620 rmoveto
          1380 -160 -1220 -530 -160 vlineto
          endchar
        </CharString>
        <CharString name="boxdrawingslightupandright">
          0 1210 620 rmoveto
          160 -530 1220 -160 -1380 vlineto
          endchar
        </CharString>
        <CharString name="boxdrawingslightvertical">
          0 680 -1000 rmoveto
          3000 -160 -3000 vlineto
          endchar
        </CharString>
        <CharString name="boxdrawingslightverticalandhorizontal">
          0 680 -1000 rmoveto
          1620 530 160 -530 1220 -160 -1220 -530 -160 530 -1620 vlineto
          endchar
        </CharString>
        <CharString name="boxdrawingslightverticalandleft">
          0 680 -1000 rmoveto
          3000 -160 -1220 -530 -160 530 -1620 vlineto
          endchar
        </CharString>
        <CharString name="boxdrawingslightverticalandright">
          0 680 -1000 rmoveto
          1620 530 160 -530 1220 -160 -3000 vlineto
          endchar
        </CharString>
        <CharString name="boxdrawingsrightdownheavyandleftuplight">
          0 840 -1000 rmoveto
          1460 370 480 -530 1060 -160 -1060 -160 -160 -370 -160 370 -1620 vlineto
          endchar
        </CharString>
        <CharString name="boxdrawingsrightheavyandleftdownlight">
          0 680 -1000 rmoveto
          1460 530 480 -690 -160 -530 -160 530 -1620 vlineto
          endchar
        </CharString>
        <CharString name="boxdrawingsrightheavyandleftuplight">
          0 1210 460 rmoveto
          480 -530 1060 -160 -1220 -530 -160 530 -160 vlineto
          endchar
        </CharString>
        <CharString name="boxdrawingsrightheavyandleftverticallight">
          0 680 -1000 rmoveto
          1460 530 480 -530 1060 -160 -1220 -530 -160 530 -1620 vlineto
          endchar
        </CharString>
        <CharString name="boxdrawingsrightlightandleftdownheavy">
          0 840 -1000 rmoveto
          1620 370 160 -370 160 -850 -480 370 -1460 vlineto
          endchar
        </CharString>
        <CharString name="boxdrawingsrightlightandleftupheavy">
          0 840 460 rmoveto
          160 370 160 -370 1220 -480 -1060 -370 -480 vlineto
          endchar
        </CharString>
        <CharString name="boxdrawingsrightlightandleftverticalheavy">
          0 840 -1000 rmoveto
          1620 370 160 -370 1220 -480 -1060 -370 -480 370 -1460 vlineto
          endchar
        </CharString>
        <CharString name="boxdrawingsrightupheavyandleftdownlight">
          0 680 -1000 rmoveto
          1460 530 480 -370 1060 -480 -1220 -370 -160 370 -160 160 -1460 vlineto
          endchar
        </CharString>
        <CharString name="boxdrawingsupdoubleandhorizontalsingle">
          0 1210 620 rmoveto
          160 -370 1220 -160 -1220 -160 1220 -160 -1220 -370 -160 vlineto
          endchar
        </CharString>
        <CharString name="boxdrawingsupdoubleandleftsingle">
          0 840 620 rmoveto
          1380 -160 -1220 -160 1220 -160 -1220 -370 -160 vlineto
          endchar
        </CharString>
        <CharString name="boxdrawingsupdoubleandrightsingle">
          0 1210 620 rmoveto
          160 -370 1220 -160 -1220 -160 1220 -160 -1380 vlineto
          endchar
        </CharString>
        <CharString name="boxdrawingsupheavyanddownhorizontallight">
          0 680 -1000 rmoveto
          1620 530 160 -370 1220 -480 -1220 -370 -160 530 -1620 vlineto
          endchar
        </CharString>
        <CharString name="boxdrawingsupheavyandhorizontallight">
          0 1210 620 rmoveto
          160 -370 1220 -480 -1220 -370 -160 vlineto
          endchar
        </CharString>
        <CharString name="boxdrawingsupheavyandleftdownlight">
          0 680 -1000 rmoveto
          1620 160 1380 -480 -1220 -370 -160 530 -1620 vlineto
          endchar
        </CharString>
        <CharString name="boxdrawingsupheavyandleftlight">
          0 840 620 rmoveto
          1380 -480 -1220 -370 -160 vlineto
          endchar
        </CharString>
        <CharString name="boxdrawingsupheavyandrightdownlight">
          0 680 -1000 rmoveto
          1620 530 160 -370 1220 -480 -1380 160 -1620 vlineto
          endchar
        </CharString>
        <CharString name="boxdrawingsupheavyandrightlight">
          0 1210 620 rmoveto
          160 -370 1220 -480 -1380 vlineto
          endchar
        </CharString>
        <CharString name="boxdrawingsuplightanddownhorizontalheavy">
          0 840 -1000 rmoveto
          1460 370 480 -530 1060 -160 -1060 -530 -480 370 -1460 vlineto
          endchar
        </CharString>
        <CharString name="boxdrawingsuplightandhorizontalheavy">
          0 1210 460 rmoveto
          480 -530 1060 -160 -1060 -530 -480 vlineto
          endchar
        </CharString>
        <CharString name="boxdrawingsuplightandleftdownheavy">
          0 840 -1000 rmoveto
          1940 -160 1060 -160 -1060 -530 -480 370 -1460 vlineto
          endchar
        </CharString>
        <CharString name="boxdrawingsuplightandleftheavy">
          0 680 460 rmoveto
          1540 -160 -1060 -530 -480 vlineto
          endchar
        </CharString>
        <CharString name="boxdrawingsuplightandrightdownheavy">
          0 840 -1000 rmoveto
          1460 370 480 -530 1060 -160 -1060 -160 -1940 vlineto
          endchar
        </CharString>
        <CharString name="boxdrawingsuplightandrightheavy">
          0 1210 460 rmoveto
          480 -530 1060 -160 -1540 vlineto
          endchar
        </CharString>
        <CharString name="boxdrawingsupsingleandhorizontaldouble">
          0 1210 460 rmoveto
          160 -1220 -160 vlineto
          1220 320 rmoveto
          160 -530 1060 -160 -1060 -530 -160 vlineto
          endchar
        </CharString>
        <CharString name="boxdrawingsupsingleandleftdouble">
          0 680 460 rmoveto
          1540 -160 -1060 -530 -160 530 -160 -530 -160 vlineto
          endchar
        </CharString>
        <CharString name="boxdrawingsupsingleandrightdouble">
          0 1210 460 rmoveto
          160 -530 160 530 160 -530 1060 -160 -1540 vlineto
          endchar
        </CharString>
        <CharString name="boxdrawingsverticaldoubleandhorizontalsingle">
          0 840 -1000 rmoveto
          1620 370 160 -370 1220 -160 -1220 -160 1220 -160 -1220 -370 -160 370 -1620 160 1620 160 -1620 vlineto
          endchar
        </CharString>
        <CharString name="boxdrawingsverticaldoubleandleftsingle">
          0 840 -1000 rmoveto
          3000 -160 -3000 vlineto
          -160 hmoveto
          3000 -160 -1220 -370 -160 370 -1620 vlineto
          endchar
        </CharString>
        <CharString name="boxdrawingsverticaldoubleandrightsingle">
          0 520 -1000 rmoveto
          3000 -160 -3000 vlineto
          480 hmoveto
          1620 370 160 -370 1220 -160 -3000 vlineto
          endchar
        </CharString>
        <CharString name="boxdrawingsverticalheavyandhorizontallight">
          0 840 -1000 rmoveto
          1620 370 160 -370 1220 -480 -1220 -370 -160 370 -1620 vlineto
          endchar
        </CharString>
        <CharString name="boxdrawingsverticalheavyandleftlight">
          0 840 -1000 rmoveto
          3000 -480 -1220 -370 -160 370 -1620 vlineto
          endchar
        </CharString>
        <CharString name="boxdrawingsverticalheavyandrightlight">
          0 840 -1000 rmoveto
          1620 370 160 -370 1220 -480 -3000 vlineto
          endchar
        </CharString>
        <CharString name="boxdrawingsverticallightandhorizontalheavy">
          0 680 -1000 rmoveto
          1460 530 480 -530 1060 -160 -1060 -530 -480 530 -1460 vlineto
          endchar
        </CharString>
        <CharString name="boxdrawingsverticallightandleftheavy">
          0 680 -1000 rmoveto
          3000 -160 -1060 -530 -480 530 -1460 vlineto
          endchar
        </CharString>
        <CharString name="boxdrawingsverticallightandrightheavy">
          0 680 -1000 rmoveto
          1460 530 480 -530 1060 -160 -3000 vlineto
          endchar
        </CharString>
        <CharString name="boxdrawingsverticalsingleandhorizontaldouble">
          0 680 -1000 rmoveto
          1460 530 160 -530 160 530 160 -530 1060 -160 -1060 -530 -160 530 -160 -530 -160 530 -1460 vlineto
          endchar
        </CharString>
        <CharString name="boxdrawingsverticalsingleandleftdouble">
          0 680 -1000 rmoveto
          3000 -160 -1060 -530 -160 530 -160 -530 -160 530 -1460 vlineto
          endchar
        </CharString>
        <CharString name="boxdrawingsverticalsingleandrightdouble">
          0 680 -1000 rmoveto
          1460 530 160 -530 160 530 160 -530 1060 -160 -3000 vlineto
          endchar
        </CharString>
        <CharString name="braceleft">
          0 928 -263 rmoveto
          22 0 19 8 16 15 16 15 8 22 0 29 0 24 -8 20 -16 16 -17 16 -19 8 -21 0 rrcurveto
          -68 hlineto
          -76 0 -55 11 -33 23 -53 35 -26 48 0 61 0 17 1 28 2 40 rrcurveto
          3 208 rlineto
          0 140 -31 97 -62 53 -10 8 -5 10 0 11 0 11 5 10 10 8 62 53 31 97 0 140 rrcurveto
          -3 208 rlineto
          -2 40 -1 28 0 17 0 61 26 48 53 35 33 23 55 11 76 0 rrcurveto
          69 hlineto
          21 0 19 8 17 16 16 16 8 20 0 24 0 29 -8 23 -16 15 -16 15 -19 7 -22 0 -104 0 -65 -1 -26 -1 -70 -5 -58 -21 -46 -38 -85 -65 -42 -94 0 -125 0 -27 2 -56 3 -83 rrcurveto
          3 -83 2 -52 0 -20 0 -73 -18 -54 -35 -35 -25 -25 -32 -12 -39 0 -69 0 -35 -31 0 -62 0 -62 35 -31 69 0 39 0 32 -12 25 -25 35 -35 18 -54 0 -73 0 -20 -2 -52 -3 -83 rrcurveto
          -3 -83 -2 -56 0 -27 0 -125 42 -94 85 -65 46 -38 58 -21 70 -4 26 -2 65 -1 103 0 rrcurveto
          endchar
        </CharString>
        <CharString name="braceright">
          0 363 -263 rmoveto
          43 0 34 1 26 2 26 1 29 6 33 10 32 10 29 15 25 21 85 65 42 94 0 125 0 27 -2 56 -3 83 -3 83 -2 52 0 20 0 73 18 54 35 35 25 25 32 12 39 0 rrcurveto
          69 0 35 31 0 62 0 62 -35 31 -69 0 -39 0 -32 12 -25 25 -35 35 -18 54 0 73 0 20 2 52 3 83 3 83 2 56 0 27 0 125 -42 94 -85 65 -46 38 -58 21 -70 5 rrcurveto
          -26 1 -65 1 -104 0 -22 0 -19 -7 -16 -15 -16 -15 -8 -23 0 -29 0 -24 8 -20 17 -16 16 -16 19 -8 21 0 rrcurveto
          69 hlineto
          76 0 55 -11 33 -23 53 -35 26 -48 0 -61 0 -17 -1 -28 -2 -40 rrcurveto
          -3 -208 rlineto
          0 -140 31 -97 62 -53 10 -8 5 -10 0 -11 0 -11 -5 -10 -10 -8 -62 -53 -31 -97 0 -140 rrcurveto
          3 -208 rlineto
          2 -40 1 -28 0 -17 0 -61 -26 -48 -53 -35 -33 -23 -55 -11 -76 0 rrcurveto
          -68 hlineto
          -21 0 -19 -8 -16 -16 -17 -16 -8 -20 0 -24 0 -29 8 -22 16 -15 16 -15 19 -8 22 0 rrcurveto
          endchar
        </CharString>
        <CharString name="bracketleft">
          0 840 -270 rmoveto
          25 0 21 9 18 18 17 17 9 21 0 25 0 25 -9 21 -17 18 -18 17 -21 9 -25 0 rrcurveto
          -337 hlineto
          -22 0 -11 11 0 22 rrcurveto
          1515 vlineto
          0 21 11 11 22 0 rrcurveto
          337 hlineto
          25 0 21 9 18 18 17 17 9 21 0 25 0 25 -9 21 -17 18 -18 17 -21 9 -25 0 rrcurveto
          -456 hlineto
          -26 0 -22 -9 -18 -18 -19 -19 -9 -22 0 -25 rrcurveto
          -1754 vlineto
          0 -25 9 -22 19 -18 18 -19 22 -9 26 0 rrcurveto
          endchar
        </CharString>
        <CharString name="bracketright">
          0 380 -270 rmoveto
          456 hlineto
          26 0 22 9 19 19 18 18 9 22 0 25 rrcurveto
          1754 vlineto
          0 25 -9 22 -18 19 -19 18 -22 9 -26 0 rrcurveto
          -456 hlineto
          -25 0 -21 -9 -17 -17 -18 -18 -9 -21 0 -25 0 -25 9 -21 18 -17 17 -18 21 -9 25 0 rrcurveto
          337 hlineto
          22 0 11 -11 0 -21 rrcurveto
          -1515 vlineto
          0 -22 -11 -11 -22 0 rrcurveto
          -337 hlineto
          -25 0 -21 -9 -17 -17 -18 -18 -9 -21 0 -25 0 -25 9 -21 18 -17 17 -18 21 -9 25 0 rrcurveto
          endchar
        </CharString>
        <CharString name="bracketright_numbersign">
          0 -384 -270 rmoveto
          26 0 22 9 19 19 18 18 9 22 0 25 rrcurveto
          527 900 180 -900 340 500 180 -500 527 vlineto
          0 25 -9 22 -18 19 -19 18 -22 9 -26 0 rrcurveto
          -456 hlineto
          -25 0 -21 -9 -17 -17 -18 -18 -9 -21 0 -25 0 -25 9 -21 18 -17 17 -18 21 -9 25 0 rrcurveto
          337 hlineto
          22 0 11 -11 0 -21 rrcurveto
          -1515 vlineto
          0 -22 -11 -11 -22 0 rrcurveto
          -337 hlineto
          -25 0 -21 -9 -17 -17 -18 -18 -9 -21 0 -25 0 -25 9 -21 18 -17 17 -18 21 -9 25 0 rrcurveto
          1910 1140 rmoveto
          24 0 21 9 18 18 18 18 9 21 0 25 0 24 -9 21 -18 18 -18 17 -21 9 -24 0 rrcurveto
          -480 -180 hlineto
          -189 -900 rmoveto
          24 0 21 9 18 18 18 18 9 21 0 24 rrcurveto
          170 -181 -170 vlineto
          0 -24 9 -21 18 -18 18 -18 21 -9 25 0 rrcurveto
          90 680 rmoveto
          691 vlineto
          0 24 -9 21 -18 18 -18 17 -21 9 -25 0 -24 0 -21 -9 -18 -17 -18 -18 -9 -21 0 -24 rrcurveto
          -691 vlineto
          491 -680 rmoveto
          24 0 21 9 18 18 17 18 9 21 0 24 rrcurveto
          690 -180 -690 vlineto
          0 -24 9 -21 18 -18 18 -18 21 -9 25 0 rrcurveto
          89 1200 rmoveto
          171 vlineto
          0 24 -9 21 -17 18 -18 17 -21 9 -25 0 -24 0 -21 -9 -18 -17 -18 -18 -9 -21 0 -24 rrcurveto
          -171 vlineto
          360 -820 rmoveto
          24 0 21 9 18 18 18 18 9 21 0 24 0 24 -9 21 -18 18 -18 18 -21 9 -24 0 rrcurveto
          -80 -180 hlineto
          endchar
        </CharString>
        <CharString name="c">
          0 680 -30 rmoveto
          111 0 106 40 102 80 21 16 11 21 0 27 0 27 -7 22 -14 17 -15 16 -18 8 -21 0 -18 0 -15 -4 -11 -9 -75 -53 -73 -27 -72 0 -101 0 -77 33 -53 65 -54 65 -27 89 0 113 rrcurveto
          0 123 28 92 57 63 56 63 76 31 97 0 62 0 63 -20 64 -39 15 -9 16 -5 16 0 26 0 20 10 14 19 13 19 7 20 0 21 0 27 -10 22 -20 19 -79 72 -97 36 -114 0 rrcurveto
          -91 0 -85 -21 -77 -43 -77 -43 -62 -61 -47 -79 -47 -79 -24 -106 0 -132 0 -114 21 -97 42 -81 41 -81 60 -63 78 -44 78 -44 86 -22 94 0 rrcurveto
          endchar
        </CharString>
        <CharString name="colon">
          0 604 751 rmoveto
          43 0 38 16 31 32 31 32 15 39 0 45 0 46 -15 39 -31 32 -31 32 -38 16 -43 0 -47 0 -39 -16 -31 -32 -31 -32 -16 -39 0 -46 0 -45 16 -39 31 -32 31 -32 39 -16 47 0 rrcurveto
          -781 vmoveto
          43 0 38 16 31 33 31 32 15 38 0 45 0 46 -15 39 -31 33 -31 32 -38 16 -43 0 -47 0 -39 -16 -31 -32 -31 -33 -16 -39 0 -46 0 -45 16 -38 31 -32 31 -33 39 -16 47 0 rrcurveto
          endchar
        </CharString>
        <CharString name="colon_center">
          0 604 731 rmoveto
          43 0 38 16 31 32 31 32 15 39 0 45 0 46 -15 39 -31 32 -31 32 -38 16 -43 0 -47 0 -39 -16 -31 -32 -31 -32 -16 -39 0 -46 0 -45 16 -39 31 -32 31 -32 39 -16 47 0 rrcurveto
          -591 vmoveto
          43 0 38 16 31 33 31 32 15 38 0 45 0 46 -15 39 -31 33 -31 32 -38 16 -43 0 -47 0 -39 -16 -31 -32 -31 -33 -16 -39 0 -46 0 -45 16 -38 31 -32 31 -33 39 -16 47 0 rrcurveto
          endchar
        </CharString>
        <CharString name="colon_center_left">
          0 304 731 rmoveto
          43 0 38 16 31 32 31 32 15 39 0 45 0 46 -15 39 -31 32 -31 32 -38 16 -43 0 -47 0 -39 -16 -31 -32 -31 -32 -16 -39 0 -46 0 -45 16 -39 31 -32 31 -32 39 -16 47 0 rrcurveto
          -591 vmoveto
          43 0 38 16 31 33 31 32 15 38 0 45 0 46 -15 39 -31 33 -31 32 -38 16 -43 0 -47 0 -39 -16 -31 -32 -31 -33 -16 -39 0 -46 0 -45 16 -38 31 -32 31 -33 39 -16 47 0 rrcurveto
          endchar
        </CharString>
        <CharString name="colon_center_right">
          0 904 731 rmoveto
          43 0 38 16 31 32 31 32 15 39 0 45 0 46 -15 39 -31 32 -31 32 -38 16 -43 0 -47 0 -39 -16 -31 -32 -31 -32 -16 -39 0 -46 0 -45 16 -39 31 -32 31 -32 39 -16 47 0 rrcurveto
          -591 vmoveto
          43 0 38 16 31 33 31 32 15 38 0 45 0 46 -15 39 -31 33 -31 32 -38 16 -43 0 -47 0 -39 -16 -31 -32 -31 -33 -16 -39 0 -46 0 -45 16 -38 31 -32 31 -33 39 -16 47 0 rrcurveto
          endchar
        </CharString>
        <CharString name="comma">
          0 371 -413 rmoveto
          147 15 113 58 79 101 57 74 29 84 0 93 0 106 -27 80 -53 53 -33 33 -39 16 -43 0 -59 0 -43 -22 -26 -43 -17 -24 -9 -27 0 -30 0 -47 19 -43 39 -37 38 -38 19 -38 0 -39 rrcurveto
          0 -35 -18 -32 -35 -29 -36 -29 -49 -18 -62 -8 -56 -7 -28 -32 0 -57 5 -52 31 -26 57 0 rrcurveto
          endchar
        </CharString>
        <CharString name="d">
          0 595 151 rmoveto
          -14 hlineto
          -167 4 -86 116 -5 228 0 129 22 93 44 59 44 59 65 29 85 0 67 0 56 -24 47 -49 51 -57 26 -59 0 -61 rrcurveto
          -213 vlineto
          0 -79 -26 -62 -51 -45 -51 -45 -53 -23 -54 0 rrcurveto
          328 -181 rmoveto
          25 0 20 9 17 17 17 17 8 22 0 27 rrcurveto
          1374 vlineto
          0 27 -9 23 -19 18 -19 17 -21 9 -23 0 -23 0 -20 -9 -18 -17 -19 -18 -9 -23 0 -27 rrcurveto
          -424 vlineto
          0 -24 -10 -12 -21 0 -11 0 -13 5 -13 11 -69 59 -71 29 -72 0 -125 0 -99 -49 -73 -98 -73 -98 -37 -135 0 -171 1 -181 33 -139 63 -95 63 -96 103 -48 142 0 84 0 81 38 78 77 rrcurveto
          7 7 8 4 7 0 12 0 8 -12 3 -23 9 -61 29 -30 49 0 rrcurveto
          endchar
        </CharString>
        <CharString name="dagger">
          0 940 870 rmoveto
          25 0 21 9 18 18 17 17 9 21 0 25 0 25 -9 21 -17 18 -18 17 -21 9 -25 0 rrcurveto
          -680 hlineto
          -25 0 -21 -9 -17 -17 -18 -18 -9 -21 0 -25 0 -25 9 -21 18 -17 17 -18 21 -9 25 0 rrcurveto
          430 300 rmoveto
          170 vlineto
          0 25 -9 21 -18 18 -18 17 -21 9 -24 0 -24 0 -21 -9 -18 -17 -18 -18 -9 -21 0 -25 rrcurveto
          -170 vlineto
          90 -1200 rmoveto
          24 0 21 9 18 18 18 18 9 21 0 24 rrcurveto
          690 -180 -690 vlineto
          0 -24 9 -21 18 -18 18 -18 21 -9 24 0 rrcurveto
          endchar
        </CharString>
        <CharString name="darkshade">
          0 -600 vmoveto
          1200 2640 -120 -120 -120 120 -120 -120 -120 120 -120 -120 -120 120 -120 -120 -120 120 -120 -120 -120 -120 120 -120 -120 -120 120 -120 -120 -120 120 -120 -120 -120 120 -120 -120 -120 120 -120 -120 -120 120 -120 -120 -120 120 -120 hlineto
          -120 -120 120 -120 -120 -120 120 -120 -120 -120 120 -120 -120 hlineto
          960 2160 rmoveto
          120 120 -120 vlineto
          -360 hmoveto
          120 120 -120 vlineto
          -360 hmoveto
          120 120 -120 vlineto
          -360 hmoveto
          120 120 -120 vlineto
          600 -240 rmoveto
          120 120 -120 vlineto
          -360 hmoveto
          120 120 -120 vlineto
          -360 hmoveto
          120 120 -120 vlineto
          -360 hmoveto
          120 120 -120 vlineto
          600 -240 rmoveto
          120 120 -120 vlineto
          -360 hmoveto
          120 120 -120 vlineto
          -600 hmoveto
          120 120 -120 vlineto
          120 hmoveto
          120 120 -120 vlineto
          360 -240 rmoveto
          120 120 -120 vlineto
          -840 hmoveto
          120 120 -120 vlineto
          360 hmoveto
          120 120 -120 vlineto
          -360 hmoveto
          120 120 -120 vlineto
          -360 -240 rmoveto
          120 120 -120 vlineto
          600 hmoveto
          120 120 -120 vlineto
          -600 hmoveto
          120 120 -120 vlineto
          120 hmoveto
          120 120 -120 vlineto
          -120 -240 rmoveto
          120 120 -120 vlineto
          -600 hmoveto
          120 120 -120 vlineto
          120 hmoveto
          120 120 -120 vlineto
          360 hmoveto
          120 120 -120 vlineto
          -840 -240 rmoveto
          120 120 -120 vlineto
          120 hmoveto
          120 120 -120 vlineto
          120 hmoveto
          120 120 -120 vlineto
          120 hmoveto
          120 120 -120 vlineto
          -120 -240 rmoveto
          120 120 -120 vlineto
          -360 hmoveto
          120 120 -120 vlineto
          -360 hmoveto
          120 120 -120 vlineto
          -360 hmoveto
          120 120 -120 vlineto
          600 -240 rmoveto
          120 120 -120 vlineto
          -360 hmoveto
          120 120 -120 vlineto
          -360 hmoveto
          120 120 -120 vlineto
          -360 hmoveto
          120 120 -120 vlineto
          -120 -240 rmoveto
          120 120 -120 vlineto
          600 hmoveto
          120 120 -120 vlineto
          -360 hmoveto
          120 120 -120 vlineto
          -360 hmoveto
          120 120 -120 vlineto
          endchar
        </CharString>
        <CharString name="divide">
          0 940 510 rmoveto
          25 0 21 9 18 18 17 17 9 21 0 25 0 25 -9 21 -17 18 -18 17 -21 9 -25 0 rrcurveto
          -680 hlineto
          -25 0 -21 -9 -17 -17 -18 -18 -9 -21 0 -25 0 -25 9 -21 18 -17 17 -18 21 -9 25 0 rrcurveto
          342 320 rmoveto
          33 0 28 12 24 25 23 24 12 29 0 34 0 35 -12 30 -23 24 -24 25 -28 12 -33 0 -35 0 -30 -12 -23 -25 -24 -24 -12 -30 0 -35 0 -34 12 -29 24 -24 23 -25 30 -12 35 0 rrcurveto
          -710 vmoveto
          33 0 28 12 24 25 23 24 12 29 0 34 0 35 -12 30 -23 24 -24 25 -28 12 -33 0 -35 0 -30 -12 -23 -25 -24 -24 -12 -30 0 -35 0 -34 12 -29 24 -24 23 -25 30 -12 35 0 rrcurveto
          endchar
        </CharString>
        <CharString name="dollar">
          0 800 4 rmoveto
          66 30 57 46 48 62 45 57 22 71 0 85 0 140 -70 113 -141 86 -52 29 -71 31 -89 31 -163 61 -83 86 -2 110 0 44 11 38 22 33 rrcurveto
          228 vlineto
          -137 -76 -68 -121 0 -167 0 -186 129 -138 259 -91 41 -15 41 -18 43 -21 101 -47 51 -61 0 -74 0 -59 -20 -50 -40 -39 rrcurveto
          -110 667 rmoveto
          651 vlineto
          0 25 -9 21 -17 18 -18 17 -21 9 -25 0 -25 0 -21 -9 -17 -17 -18 -18 -9 -21 0 -25 rrcurveto
          -563 vlineto
          39 -35 60 -29 81 -24 rrcurveto
          -90 -1119 rmoveto
          25 0 21 9 18 18 17 17 9 21 0 25 rrcurveto
          571 vlineto
          -32 27 -60 27 -88 29 rrcurveto
          -654 vlineto
          0 -25 9 -21 18 -17 17 -18 21 -9 25 0 rrcurveto
          340 1285 rmoveto
          51 0 26 29 0 59 0 11 -1 10 -3 9 -24 103 -71 75 -118 48 rrcurveto
          -204 vlineto
          28 -21 18 -22 8 -24 17 -49 29 -24 40 0 rrcurveto
          -540 -1038 rmoveto
          218 vlineto
          -26 22 -24 25 -22 27 -25 32 -27 16 -28 0 -26 0 -21 -9 -15 -19 -15 -19 -8 -23 0 -29 0 -12 2 -11 5 -9 27 -61 56 -58 83 -54 17 -12 22 -12 25 -12 rrcurveto
          endchar
        </CharString>
        <CharString name="downwardsarrow">
          0 598 -20 rmoveto
          582 494 rlineto
          210 vlineto
          -370 -316 rlineto
          -60 -52 -37 -36 -13 -20 rrcurveto
          -20 hlineto
          3 17 2 24 2 30 2 30 1 30 0 29 rrcurveto
          1040 -180 -1040 vlineto
          0 -29 1 -30 3 -30 3 -30 2 -24 1 -17 rrcurveto
          -20 hlineto
          -5 8 -12 13 -19 19 -19 19 -24 22 -29 25 rrcurveto
          -372 316 rlineto
          -210 vlineto
          endchar
        </CharString>
        <CharString name="e">
          0 820 612 rmoveto
          -428 hlineto
          -34 0 -17 10 0 20 0 29 7 29 15 31 21 47 33 40 44 33 44 33 51 16 59 0 81 0 63 -27 43 -55 43 -55 21 -57 1 -60 0 -23 -16 -11 -31 0 rrcurveto
          -182 -642 rmoveto
          139 0 123 48 105 97 17 16 9 19 0 21 0 19 -7 19 -15 19 -15 19 -20 10 -26 0 -13 0 -13 -5 -12 -9 -77 -61 -88 -31 -99 0 -75 0 -70 24 -66 49 -67 49 -33 65 0 81 rrcurveto
          0 25 15 12 30 0 rrcurveto
          585 -2 rlineto
          25 0 21 9 15 19 15 19 8 21 0 24 -1 122 -18 98 -33 74 -34 74 -49 59 -65 43 -65 43 -78 21 -91 0 -85 0 -75 -22 -67 -43 -67 -44 -57 -62 -45 -79 -45 -79 -23 -101 0 -122 rrcurveto
          0 -224 70 -159 140 -95 79 -53 93 -27 105 0 rrcurveto
          endchar
        </CharString>
        <CharString name="eight">
          0 598 150 rmoveto
          -95 0 -67 19 -41 38 -41 37 -21 56 0 73 0 59 17 52 33 43 52 67 72 34 93 0 41 0 32 -4 23 -9 57 -24 41 -31 27 -38 27 -39 13 -49 0 -61 0 -73 -20 -56 -40 -37 rrcurveto
          -40 -38 -68 -19 -95 0 rrcurveto
          2 693 rmoveto
          -24 0 -19 3 -16 6 -57 19 -42 26 -29 32 -29 31 -14 41 0 51 0 61 21 49 42 35 41 35 56 18 70 0 70 0 56 -17 42 -35 41 -35 21 -48 0 -63 0 -49 -15 -41 -30 -32 rrcurveto
          -30 -32 -45 -27 -60 -21 -11 -5 -16 -2 -23 0 rrcurveto
          -873 vmoveto
          87 0 76 15 66 30 65 30 51 43 37 57 37 57 18 68 0 81 0 83 -19 73 -39 62 -39 62 -53 50 -67 39 -7 5 -4 6 0 7 0 7 3 5 6 3 128 77 64 102 0 127 rrcurveto
          0 109 -37 90 -73 69 -74 69 -100 34 -126 0 -127 0 -100 -34 -73 -69 -73 -69 -37 -90 0 -109 0 -127 63 -102 126 -77 6 -4 3 -5 0 -6 0 -7 -4 -6 -7 -5 -69 -39 -53 -50 -37 -62 rrcurveto
          -38 -62 -19 -73 0 -83 0 -121 38 -93 77 -67 77 -67 108 -33 139 0 rrcurveto
          endchar
        </CharString>
        <CharString name="emdash">
          0 1140 510 rmoveto
          25 0 21 9 18 18 17 17 9 21 0 25 0 25 -9 21 -17 18 -18 17 -21 9 -25 0 rrcurveto
          -1080 hlineto
          -25 0 -21 -9 -17 -17 -18 -18 -9 -21 0 -25 0 -25 9 -21 18 -17 17 -18 21 -9 25 0 rrcurveto
          endchar
        </CharString>
        <CharString name="equal">
          0 940 710 rmoveto
          25 0 21 9 18 18 17 17 9 21 0 25 0 25 -9 21 -17 18 -18 17 -21 9 -25 0 rrcurveto
          -680 hlineto
          -25 0 -21 -9 -17 -17 -18 -18 -9 -21 0 -25 0 -25 9 -21 18 -17 17 -18 21 -9 25 0 rrcurveto
          680 -400 rmoveto
          25 0 21 9 18 18 17 17 9 21 0 25 0 25 -9 21 -17 18 -18 17 -21 9 -25 0 rrcurveto
          -680 hlineto
          -25 0 -21 -9 -17 -17 -18 -18 -9 -21 0 -25 0 -25 9 -21 18 -17 17 -18 21 -9 25 0 rrcurveto
          endchar
        </CharString>
        <CharString name="exclam">
          0 600 469 rmoveto
          21 0 19 8 16 15 16 15 9 19 1 23 rrcurveto
          25 805 rlineto
          0 29 -11 25 -21 21 -21 21 -25 11 -29 0 -29 0 -25 -11 -21 -21 -21 -22 -11 -25 0 -29 rrcurveto
          25 -804 rlineto
          1 -23 9 -19 16 -15 16 -15 19 -8 21 0 rrcurveto
          4 -499 rmoveto
          43 0 38 16 31 33 31 32 15 38 0 45 0 46 -15 39 -31 33 -31 32 -38 16 -43 0 -47 0 -39 -16 -31 -32 -31 -33 -16 -39 0 -46 0 -45 16 -38 31 -32 31 -33 39 -16 47 0 rrcurveto
          endchar
        </CharString>
        <CharString name="exclam_exclam">
          0 -400 469 rmoveto
          21 0 19 8 16 15 16 15 9 19 1 23 rrcurveto
          25 805 rlineto
          0 29 -11 25 -21 21 -21 21 -25 11 -29 0 -29 0 -25 -11 -21 -21 -21 -22 -11 -25 0 -29 rrcurveto
          25 -804 rlineto
          1 -23 9 -19 16 -15 16 -15 19 -8 21 0 rrcurveto
          804 -499 rmoveto
          43 0 38 16 31 33 31 32 15 38 0 45 0 46 -15 39 -31 33 -31 32 -38 16 -43 0 -47 0 -39 -16 -31 -32 -31 -33 -16 -39 0 -46 0 -45 16 -38 31 -32 31 -33 39 -16 47 0 rrcurveto
          -4 499 rmoveto
          21 0 19 8 16 15 16 15 9 19 1 23 rrcurveto
          25 805 rlineto
          0 29 -11 25 -21 21 -21 21 -25 11 -29 0 -29 0 -25 -11 -21 -21 -21 -22 -11 -25 0 -29 rrcurveto
          25 -804 rlineto
          1 -23 9 -19 16 -15 16 -15 19 -8 21 0 rrcurveto
          -796 -499 rmoveto
          43 0 38 16 31 33 31 32 15 38 0 45 0 46 -15 39 -31 33 -31 32 -38 16 -43 0 -47 0 -39 -16 -31 -32 -31 -33 -16 -39 0 -46 0 -45 16 -38 31 -32 31 -33 39 -16 47 0 rrcurveto
          endchar
        </CharString>
        <CharString name="f">
          0 513 -30 rmoveto
          25 0 22 9 18 18 17 17 9 21 0 25 rrcurveto
          748 vlineto
          0 11 4 10 8 9 8 8 10 4 12 0 rrcurveto
          356 hlineto
          25 0 21 9 18 18 17 17 9 21 0 25 0 25 -9 21 -17 18 -18 17 -21 9 -25 0 rrcurveto
          -356 hlineto
          -12 0 -10 4 -8 8 -8 7 -4 8 0 9 rrcurveto
          102 vlineto
          0 48 16 42 32 37 31 37 42 18 51 0 rrcurveto
          208 hlineto
          25 0 21 9 18 18 17 17 9 21 0 25 0 25 -9 21 -17 18 -18 17 -21 9 -25 0 rrcurveto
          -246 hlineto
          -61 0 -54 -15 -47 -30 -47 -30 -38 -39 -27 -49 -27 -49 -14 -54 0 -58 rrcurveto
          -140 vlineto
          0 -9 -4 -8 -8 -7 -8 -8 -10 -4 -12 0 rrcurveto
          -145 hlineto
          -25 0 -21 -9 -17 -17 -18 -18 -9 -21 0 -25 0 -25 9 -21 18 -17 17 -18 21 -9 25 0 rrcurveto
          145 hlineto
          12 0 10 -4 8 -8 8 -9 4 -10 0 -11 rrcurveto
          -748 vlineto
          0 -25 9 -21 18 -17 17 -18 21 -9 25 0 rrcurveto
          endchar
        </CharString>
        <CharString name="five">
          0 542 -30 rmoveto
          139 0 110 41 81 83 77 83 42 102 7 120 2 26 1 27 0 27 0 246 -174 123 -347 0 rrcurveto
          -60 hlineto
          -13 0 -11 4 -10 9 -11 8 -5 10 0 11 rrcurveto
          304 vlineto
          0 11 5 10 11 9 11 9 11 4 12 0 rrcurveto
          464 hlineto
          24 0 20 9 17 17 17 17 8 20 0 23 0 24 -8 21 -17 17 -17 17 -20 8 -24 0 rrcurveto
          -600 hlineto
          -25 0 -22 -9 -19 -18 -19 -19 -9 -22 0 -26 rrcurveto
          -548 vlineto
          0 -25 10 -22 19 -19 19 -19 21 -9 25 0 rrcurveto
          163 hlineto
          124 0 92 -19 59 -38 59 -39 30 -50 0 -63 0 -23 -1 -21 -3 -20 -25 -165 -90 -83 -157 -3 -119 0 -78 6 -35 11 -17 5 -20 3 -21 0 -7 0 -11 -2 -14 -5 -14 -5 -13 -9 -11 -14 rrcurveto
          -12 -14 -6 -21 0 -28 0 -23 8 -19 16 -16 34 -33 120 -16 207 0 rrcurveto
          endchar
        </CharString>
        <CharString name="four">
          0 697 485 rmoveto
          -344 hlineto
          -13 1 -6 7 0 11 0 4 60 94 121 184 121 183 61 92 2 1 1 1 3 0 3 0 7 0 3 -4 0 -8 rrcurveto
          -547 vlineto
          -1 -13 -6 -6 -12 0 rrcurveto
          109 -515 rmoveto
          24 0 21 9 18 18 17 17 9 21 0 25 rrcurveto
          226 vlineto
          1 13 7 6 11 0 rrcurveto
          77 hlineto
          24 0 21 9 18 18 18 18 9 21 0 24 0 24 -9 21 -18 18 -18 18 -21 9 -24 0 rrcurveto
          -77 hlineto
          -13 1 -6 6 0 12 rrcurveto
          814 vlineto
          0 30 -11 26 -22 23 -22 22 -26 11 -31 0 -37 0 -31 -17 -26 -34 rrcurveto
          -579 -868 rlineto
          -14 -23 -7 -25 0 -25 0 -36 13 -31 26 -26 26 -27 31 -13 36 0 rrcurveto
          476 hlineto
          13 -1 6 -6 0 -12 rrcurveto
          -226 vlineto
          0 -25 9 -21 18 -17 17 -18 21 -9 25 0 rrcurveto
          endchar
        </CharString>
        <CharString name="fullblock">
          0 -600 vmoveto
          1200 2640 -1200 hlineto
          endchar
        </CharString>
        <CharString name="g">
          0 568 168 rmoveto
          -82 0 -63 30 -44 59 -44 59 -22 86 0 115 5 241 86 123 168 4 63 0 57 -23 51 -46 51 -46 25 -62 0 -78 rrcurveto
          -211 vlineto
          0 -61 -26 -59 -51 -56 -47 -50 -58 -25 -69 0 rrcurveto
          -4 -648 rmoveto
          130 0 105 38 80 75 80 75 40 104 0 131 rrcurveto
          1044 vlineto
          0 28 -8 23 -16 17 -16 17 -21 8 -25 0 -51 0 -29 -24 -8 -49 -4 -23 -8 -12 -11 0 -7 0 -7 4 -7 7 -61 64 -82 32 -101 0 -127 0 -99 -48 -71 -95 -71 -96 -36 -145 -1 -195 rrcurveto
          0 -158 37 -128 73 -97 73 -98 99 -49 125 0 86 0 71 23 56 46 13 11 13 6 11 0 20 0 10 -13 0 -25 rrcurveto
          -2 -133 rlineto
          0 -48 -21 -44 -42 -39 -42 -40 -63 -21 -85 -1 -63 0 -52 9 -41 19 -41 19 -42 29 -41 40 -16 15 -19 7 -21 0 -23 0 -23 -13 -22 -27 -12 -15 -6 -16 0 -19 0 -21 7 -19 15 -17 rrcurveto
          99 -109 133 -54 168 0 rrcurveto
          endchar
        </CharString>
        <CharString name="grave">
          0 756 1020 rmoveto
          23 0 20 9 19 17 18 20 9 22 0 23 0 23 -9 21 -18 20 rrcurveto
          -308 308 rlineto
          -20 18 -21 9 -23 0 -23 0 -22 -9 -19 -18 -18 -19 -9 -20 0 -23 0 -23 9 -22 19 -21 rrcurveto
          307 -307 rlineto
          21 -19 22 -9 23 0 rrcurveto
          endchar
        </CharString>
        <CharString name="greater">
          0 255 147 rmoveto
          13 0 13 3 13 6 rrcurveto
          692 363 rlineto
          33 19 17 27 0 35 0 17 -4 15 -9 15 -9 15 -12 11 -16 8 rrcurveto
          -690 355 rlineto
          -14 7 -14 3 -13 0 -23 0 -21 -9 -18 -17 -18 -18 -9 -21 0 -24 0 -34 17 -28 35 -21 rrcurveto
          472 -250 rlineto
          11 -7 6 -8 0 -9 0 -11 -5 -8 -11 -7 rrcurveto
          -475 -254 rlineto
          -35 -21 -17 -28 0 -34 0 -24 9 -21 19 -18 18 -18 21 -9 24 0 rrcurveto
          endchar
        </CharString>
        <CharString name="greater_greater">
          0 -795 147 rmoveto
          13 0 13 3 13 6 rrcurveto
          692 363 rlineto
          33 19 17 27 0 35 0 17 -4 15 -9 15 -9 15 -12 11 -16 8 rrcurveto
          -690 355 rlineto
          -14 7 -14 3 -13 0 -23 0 -21 -9 -18 -17 -18 -18 -9 -21 0 -24 0 -34 17 -28 35 -21 rrcurveto
          472 -250 rlineto
          11 -7 6 -8 0 -9 0 -11 -5 -8 -11 -7 rrcurveto
          -475 -254 rlineto
          -35 -21 -17 -28 0 -34 0 -24 9 -21 19 -18 18 -18 21 -9 24 0 rrcurveto
          900 hmoveto
          13 0 13 3 13 6 rrcurveto
          692 363 rlineto
          33 19 17 27 0 35 0 17 -4 15 -9 15 -9 15 -12 11 -16 8 rrcurveto
          -690 355 rlineto
          -14 7 -14 3 -13 0 -23 0 -21 -9 -18 -17 -18 -18 -9 -21 0 -24 0 -34 17 -28 35 -21 rrcurveto
          472 -250 rlineto
          11 -7 6 -8 0 -9 0 -11 -5 -8 -11 -7 rrcurveto
          -475 -254 rlineto
          -35 -21 -17 -28 0 -34 0 -24 9 -21 19 -18 18 -18 21 -9 24 0 rrcurveto
          endchar
        </CharString>
        <CharString name="greater_greater_greater">
          0 -1845 147 rmoveto
          13 0 13 3 13 6 rrcurveto
          692 363 rlineto
          33 19 17 27 0 35 0 17 -4 15 -9 15 -9 15 -12 11 -16 8 rrcurveto
          -690 355 rlineto
          -14 7 -14 3 -13 0 -23 0 -21 -9 -18 -17 -18 -18 -9 -21 0 -24 0 -34 17 -28 35 -21 rrcurveto
          472 -250 rlineto
          11 -7 6 -8 0 -9 0 -11 -5 -8 -11 -7 rrcurveto
          -475 -254 rlineto
          -35 -21 -17 -28 0 -34 0 -24 9 -21 19 -18 18 -18 21 -9 24 0 rrcurveto
          1800 hmoveto
          13 0 13 3 13 6 rrcurveto
          692 363 rlineto
          33 19 17 27 0 35 0 17 -4 15 -9 15 -9 15 -12 11 -16 8 rrcurveto
          -690 355 rlineto
          -14 7 -14 3 -13 0 -23 0 -21 -9 -18 -17 -18 -18 -9 -21 0 -24 0 -34 17 -28 35 -21 rrcurveto
          472 -250 rlineto
          11 -7 6 -8 0 -9 0 -11 -5 -8 -11 -7 rrcurveto
          -475 -254 rlineto
          -35 -21 -17 -28 0 -34 0 -24 9 -21 19 -18 18 -18 21 -9 24 0 rrcurveto
          -900 hmoveto
          13 0 13 3 13 6 rrcurveto
          692 363 rlineto
          33 19 17 27 0 35 0 17 -4 15 -9 15 -9 15 -12 11 -16 8 rrcurveto
          -690 355 rlineto
          -14 7 -14 3 -13 0 -23 0 -21 -9 -18 -17 -18 -18 -9 -21 0 -24 0 -34 17 -28 35 -21 rrcurveto
          472 -250 rlineto
          11 -7 6 -8 0 -9 0 -11 -5 -8 -11 -7 rrcurveto
          -475 -254 rlineto
          -35 -21 -17 -28 0 -34 0 -24 9 -21 19 -18 18 -18 21 -9 24 0 rrcurveto
          endchar
        </CharString>
        <CharString name="h">
          0 939 -30 rmoveto
          29 0 22 9 15 17 15 17 7 23 0 28 rrcurveto
          581 vlineto
          0 156 -32 112 -64 68 -59 66 -87 33 -115 0 -97 -1 -92 -47 -87 -91 -8 -8 -7 -4 -5 0 -10 0 -5 8 0 16 rrcurveto
          481 vlineto
          0 27 -9 23 -18 19 -19 18 -21 9 -25 0 -25 0 -21 -9 -18 -18 -19 -19 -9 -23 0 -27 rrcurveto
          -1370 vlineto
          0 -28 9 -23 17 -17 17 -17 22 -9 27 0 29 0 22 9 15 17 15 17 7 23 0 28 rrcurveto
          548 vlineto
          0 89 37 70 73 51 59 39 60 20 61 1 132 0 67 -83 3 -166 rrcurveto
          -569 vlineto
          0 -28 9 -23 17 -17 17 -17 22 -9 27 0 rrcurveto
          endchar
        </CharString>
        <CharString name="hyphen">
          0 840 510 rmoveto
          25 0 21 9 18 18 17 17 9 21 0 25 0 25 -9 21 -17 18 -18 17 -21 9 -25 0 rrcurveto
          -480 hlineto
          -25 0 -21 -9 -17 -17 -18 -18 -9 -21 0 -25 0 -25 9 -21 18 -17 17 -18 21 -9 25 0 rrcurveto
          endchar
        </CharString>
        <CharString name="hyphenminus">
          0 940 510 rmoveto
          25 0 21 9 18 18 17 17 9 21 0 25 0 25 -9 21 -17 18 -18 17 -21 9 -25 0 rrcurveto
          -680 hlineto
          -25 0 -21 -9 -17 -17 -18 -18 -9 -21 0 -25 0 -25 9 -21 18 -17 17 -18 21 -9 25 0 rrcurveto
          endchar
        </CharString>
        <CharString name="i">
          0 1015 -3 rmoveto
          23 0 21 9 19 17 19 17 9 21 0 27 0 30 -9 23 -19 17 -19 16 -21 8 -23 0 rrcurveto
          -241 hlineto
          -28 0 -14 15 0 29 rrcurveto
          616 vlineto
          0 52 -18 44 -36 37 -37 37 -43 18 -51 0 rrcurveto
          -283 hlineto
          -23 0 -21 -8 -17 -17 -17 -17 -9 -23 0 -28 0 -27 9 -22 18 -17 17 -17 20 -9 23 0 rrcurveto
          199 hlineto
          24 0 21 -8 18 -17 17 -17 9 -22 0 -27 rrcurveto
          -528 vlineto
          0 -29 -15 -15 -29 0 rrcurveto
          -242 hlineto
          -21 0 -19 -8 -19 -16 -19 -17 -9 -23 0 -30 0 -27 9 -21 19 -17 19 -17 19 -9 21 0 rrcurveto
          323 1258 rmoveto
          39 0 33 14 29 29 28 29 14 34 0 41 0 41 -14 35 -28 29 -29 29 -33 14 -39 0 -41 0 -34 -14 -27 -29 -28 -29 -14 -35 0 -41 0 -41 14 -34 28 -29 27 -29 34 -14 41 0 rrcurveto
          endchar
        </CharString>
        <CharString name="j">
          0 466 -480 rmoveto
          130 0 105 38 80 75 77 69 40 93 2 116 rrcurveto
          930 vlineto
          0 51 -18 44 -35 38 -35 37 -42 19 -49 0 rrcurveto
          -370 hlineto
          -25 0 -21 -9 -17 -19 -17 -19 -9 -22 0 -25 0 -25 9 -22 17 -18 17 -19 21 -9 25 0 rrcurveto
          285 hlineto
          26 0 21 -8 15 -17 15 -17 7 -20 0 -24 rrcurveto
          -1 -872 rlineto
          0 -48 -21 -44 -42 -39 -42 -40 -63 -21 -85 -1 -37 0 -36 9 -35 19 -35 19 -39 29 -41 40 -16 15 -19 7 -21 0 -23 0 -23 -13 -22 -27 -12 -15 -6 -16 0 -19 0 -21 7 -19 15 -17 rrcurveto
          98 -109 114 -54 131 0 rrcurveto
          294 1739 rmoveto
          38 0 33 14 28 29 27 29 14 34 0 41 0 39 -14 34 -27 29 -28 28 -33 14 -38 0 -39 0 -34 -14 -27 -28 -27 -29 -14 -34 0 -39 0 -41 14 -34 27 -29 27 -29 34 -14 39 0 rrcurveto
          endchar
        </CharString>
        <CharString name="k">
          0 987 -30 rmoveto
          64 1 32 31 0 59 0 21 -5 18 -10 14 rrcurveto
          -318 460 rlineto
          -10 14 -5 14 0 13 0 19 8 18 17 18 rrcurveto
          229 254 rlineto
          17 19 9 22 0 25 0 27 -9 21 -18 17 -19 17 -23 8 -27 0 -27 0 -24 -13 -23 -25 rrcurveto
          -392 -421 rlineto
          -8 -8 -11 -4 -14 0 -25 0 -12 14 0 27 rrcurveto
          784 vlineto
          0 27 -9 22 -17 19 -18 19 -22 9 -27 0 -24 0 -21 -9 -17 -18 -17 -18 -9 -22 0 -27 rrcurveto
          -1366 vlineto
          0 -29 8 -24 17 -19 17 -19 22 -9 28 0 27 0 21 10 17 19 16 19 8 24 0 28 rrcurveto
          148 vlineto
          0 35 14 32 27 28 rrcurveto
          130 138 rlineto
          7 7 11 3 15 0 11 0 11 -7 9 -13 rrcurveto
          283 -425 rlineto
          20 -31 29 -15 37 0 rrcurveto
          endchar
        </CharString>
        <CharString name="l">
          0 815 -30 rmoveto
          107 1 72 25 38 47 13 17 7 20 0 23 0 20 -5 17 -9 13 -9 13 -11 10 -13 5 -13 5 -12 3 -11 0 -9 0 -11 -3 -12 -7 -33 -19 -34 -10 -36 0 -128 0 -64 96 0 192 rrcurveto
          885 vlineto
          0 62 -18 50 -37 38 -37 38 -50 19 -62 0 rrcurveto
          -217 hlineto
          -24 0 -21 -8 -18 -17 -18 -17 -9 -23 0 -29 0 -27 9 -21 18 -15 18 -15 21 -8 24 0 rrcurveto
          133 hlineto
          36 0 27 -10 18 -19 18 -20 9 -27 0 -34 rrcurveto
          -838 vlineto
          1 -288 118 -144 234 0 rrcurveto
          endchar
        </CharString>
        <CharString name="left_arrow_single">
          0 -581 478 rmoveto
          -8 0 -7 3 -7 6 rrcurveto
          -89 88 rlineto
          -6 7 -3 7 0 8 0 8 3 7 6 6 rrcurveto
          89 89 rlineto
          7 6 7 3 8 0 8 0 7 -3 7 -6 rrcurveto
          88 -89 rlineto
          7 -6 3 -7 0 -8 0 -8 -3 -7 -7 -7 rrcurveto
          -88 -88 rlineto
          -7 -6 -7 -3 -8 0 rrcurveto
          198 -427 rmoveto
          25 0 22 9 17 17 17 17 9 22 0 25 0 22 -9 21 -17 20 rrcurveto
          -113 113 rlineto
          -6 7 -3 7 0 8 0 8 3 7 6 7 rrcurveto
          113 117 rlineto
          9 9 13 7 15 7 15 6 14 3 12 0 rrcurveto
          1181 hlineto
          25 0 21 9 18 18 17 17 9 21 0 25 0 25 -9 21 -17 18 -18 17 -21 9 -25 0 rrcurveto
          -1180 hlineto
          -13 0 -13 3 -15 7 -15 6 -13 7 -9 9 rrcurveto
          -114 114 rlineto
          -6 7 -3 7 0 8 0 7 3 7 6 7 rrcurveto
          113 113 rlineto
          17 20 9 21 0 23 0 27 -9 22 -18 17 -19 17 -21 8 -23 0 -22 0 -21 -9 -20 -17 rrcurveto
          -457 -459 rlineto
          -18 -19 -9 -21 0 -24 0 -23 9 -21 18 -21 rrcurveto
          457 -457 rlineto
          20 -17 21 -8 22 0 rrcurveto
          endchar
        </CharString>
        <CharString name="left_right_arrow_double">
          0 523 422 rmoveto
          -8 0 -7 3 -7 6 rrcurveto
          -32 33 rlineto
          -19 18 -22 9 -24 0 rrcurveto
          -2008 hlineto
          -24 0 -22 -9 -19 -18 rrcurveto
          -32 -33 rlineto
          -7 -6 -7 -3 -8 0 -8 0 -7 3 -7 6 rrcurveto
          -147 146 rlineto
          -6 7 -3 7 0 8 0 8 3 7 6 6 rrcurveto
          149 149 rlineto
          7 6 7 3 8 0 8 0 7 -3 6 -6 rrcurveto
          33 -33 rlineto
          20 -17 21 -9 23 0 rrcurveto
          2006 hlineto
          23 0 22 9 19 17 rrcurveto
          33 33 rlineto
          6 6 7 3 8 0 8 0 7 -3 7 -6 rrcurveto
          149 -149 rlineto
          6 -6 3 -7 0 -8 0 -8 -3 -7 -6 -7 rrcurveto
          -147 -146 rlineto
          -7 -6 -7 -3 -8 0 rrcurveto
          -140 -371 rmoveto
          22 0 21 9 20 17 rrcurveto
          457 457 rlineto
          18 19 9 22 0 24 0 24 -9 21 -18 19 rrcurveto
          -457 458 rlineto
          -20 17 -21 9 -22 0 -25 0 -21 -9 -17 -17 -18 -17 -9 -22 0 -25 0 -22 9 -21 17 -21 40 -39 20 -22 1 -3 1 -3 1 -4 0 -4 0 -7 -3 -7 -5 -5 -6 -6 -7 -3 -7 0 rrcurveto
          -1908 hlineto
          -7 0 -7 3 -5 6 -6 5 -3 7 0 7 0 9 3 7 5 5 rrcurveto
          55 54 rlineto
          17 21 9 21 0 22 0 25 -9 22 -17 17 -18 17 -21 9 -25 0 -22 0 -21 -9 -20 -17 rrcurveto
          -457 -458 rlineto
          -18 -19 -9 -21 0 -24 0 -24 9 -22 18 -19 rrcurveto
          457 -457 rlineto
          20 -17 21 -9 22 0 25 0 21 9 18 18 17 17 9 21 0 25 0 24 -9 21 -18 19 -19 19 -19 19 -19 19 -5 6 -3 6 0 7 0 8 3 7 7 6 6 6 6 3 7 0 rrcurveto
          1912 hlineto
          7 0 7 -3 6 -6 6 -6 3 -7 0 -8 0 -7 -3 -6 -5 -6 -19 -19 -19 -19 -18 -19 -19 -19 -9 -21 0 -24 0 -25 9 -21 18 -17 17 -18 21 -9 25 0 rrcurveto
          endchar
        </CharString>
        <CharString name="left_right_arrow_double_long">
          0 523 422 rmoveto
          -8 0 -7 3 -7 6 rrcurveto
          -32 33 rlineto
          -19 18 -22 9 -24 0 rrcurveto
          -3208 hlineto
          -24 0 -22 -9 -19 -18 rrcurveto
          -32 -33 rlineto
          -7 -6 -7 -3 -8 0 -8 0 -7 3 -7 6 rrcurveto
          -147 146 rlineto
          -6 7 -3 7 0 8 0 8 3 7 6 6 rrcurveto
          149 149 rlineto
          7 6 7 3 8 0 8 0 7 -3 6 -6 rrcurveto
          33 -33 rlineto
          20 -17 21 -9 23 0 rrcurveto
          3206 hlineto
          23 0 22 9 19 17 rrcurveto
          33 33 rlineto
          6 6 7 3 8 0 8 0 7 -3 7 -6 rrcurveto
          149 -149 rlineto
          6 -6 3 -7 0 -8 0 -8 -3 -7 -6 -7 rrcurveto
          -147 -146 rlineto
          -7 -6 -7 -3 -8 0 rrcurveto
          -140 -371 rmoveto
          22 0 21 9 20 17 rrcurveto
          457 457 rlineto
          18 19 9 22 0 24 0 24 -9 21 -18 19 rrcurveto
          -457 458 rlineto
          -20 17 -21 9 -22 0 -25 0 -21 -9 -17 -17 -18 -17 -9 -22 0 -25 0 -22 9 -21 17 -21 40 -39 20 -22 1 -3 1 -3 1 -4 0 -4 0 -7 -3 -7 -5 -5 -6 -6 -7 -3 -7 0 rrcurveto
          -3108 hlineto
          -7 0 -7 3 -5 6 -6 5 -3 7 0 7 0 9 3 7 5 5 rrcurveto
          55 54 rlineto
          17 21 9 21 0 22 0 25 -9 22 -17 17 -18 17 -21 9 -25 0 -22 0 -21 -9 -20 -17 rrcurveto
          -457 -458 rlineto
          -18 -19 -9 -21 0 -24 0 -24 9 -22 18 -19 rrcurveto
          457 -457 rlineto
          20 -17 21 -9 22 0 25 0 21 9 18 18 17 17 9 21 0 25 0 24 -9 21 -18 19 -19 19 -19 19 -19 19 -5 6 -3 6 0 7 0 8 3 7 7 6 6 6 6 3 7 0 rrcurveto
          3112 hlineto
          7 0 7 -3 6 -6 6 -6 3 -7 0 -8 0 -7 -3 -6 -5 -6 -19 -19 -19 -19 -18 -19 -19 -19 -9 -21 0 -24 0 -25 9 -21 18 -17 17 -18 21 -9 25 0 rrcurveto
          endchar
        </CharString>
        <CharString name="left_right_arrow_single">
          0 -1781 478 rmoveto
          -8 0 -7 3 -7 6 rrcurveto
          -89 88 rlineto
          -6 7 -3 7 0 8 0 8 3 7 6 6 rrcurveto
          89 89 rlineto
          7 6 7 3 8 0 8 0 7 -3 7 -6 rrcurveto
          88 -89 rlineto
          7 -6 3 -7 0 -8 0 -8 -3 -7 -7 -7 rrcurveto
          -88 -88 rlineto
          -7 -6 -7 -3 -8 0 rrcurveto
          198 -427 rmoveto
          25 0 22 9 17 17 17 17 9 22 0 25 0 22 -9 21 -17 20 rrcurveto
          -113 113 rlineto
          -6 7 -3 7 0 8 0 8 3 7 6 7 rrcurveto
          113 117 rlineto
          9 9 13 7 15 7 15 6 14 3 12 0 rrcurveto
          2381 hlineto
          25 0 21 9 18 18 17 17 9 21 0 25 0 25 -9 21 -17 18 -18 17 -21 9 -25 0 rrcurveto
          -2380 hlineto
          -13 0 -13 3 -15 7 -15 6 -13 7 -9 9 rrcurveto
          -114 114 rlineto
          -6 7 -3 7 0 8 0 7 3 7 6 7 rrcurveto
          113 113 rlineto
          17 20 9 21 0 23 0 27 -9 22 -18 17 -19 17 -21 8 -23 0 -22 0 -21 -9 -20 -17 rrcurveto
          -457 -459 rlineto
          -18 -19 -9 -21 0 -24 0 -23 9 -21 18 -21 rrcurveto
          457 -457 rlineto
          20 -17 21 -8 22 0 rrcurveto
          endchar
        </CharString>
        <CharString name="left_right_arrow_single_long">
          0 -2981 478 rmoveto
          -8 0 -7 3 -7 6 rrcurveto
          -88 88 rlineto
          -7 7 -3 7 0 8 0 8 3 7 7 6 rrcurveto
          88 89 rlineto
          7 6 7 3 8 0 8 0 7 -3 7 -6 rrcurveto
          89 -89 rlineto
          6 -6 3 -7 0 -8 0 -8 -3 -7 -6 -7 rrcurveto
          -89 -88 rlineto
          -7 -6 -7 -3 -8 0 rrcurveto
          3562 hmoveto
          -8 0 -7 3 -7 6 rrcurveto
          -89 88 rlineto
          -6 7 -3 7 0 8 0 8 3 7 6 6 rrcurveto
          89 89 rlineto
          7 6 7 3 8 0 8 0 7 -3 7 -6 rrcurveto
          88 -89 rlineto
          7 -6 3 -7 0 -8 0 -8 -3 -7 -7 -7 rrcurveto
          -88 -88 rlineto
          -7 -6 -7 -3 -8 0 rrcurveto
          -198 -427 rmoveto
          22 0 21 8 20 17 rrcurveto
          457 457 rlineto
          18 21 9 21 0 23 0 24 -9 21 -18 19 rrcurveto
          -457 459 rlineto
          -20 17 -21 9 -22 0 -23 0 -21 -8 -18 -17 -19 -17 -9 -22 0 -27 0 -23 9 -21 17 -20 rrcurveto
          113 -113 rlineto
          6 -7 3 -7 0 -7 0 -8 -3 -7 -6 -7 rrcurveto
          -114 -114 rlineto
          -9 -9 -12 -7 -15 -6 -15 -7 -14 -3 -13 0 rrcurveto
          -2880 hlineto
          -13 0 -13 3 -15 7 -15 6 -13 7 -9 9 rrcurveto
          -114 114 rlineto
          -6 7 -3 7 0 8 0 7 3 7 6 7 rrcurveto
          113 113 rlineto
          17 20 9 21 0 23 0 27 -9 22 -18 17 -19 17 -21 8 -23 0 -22 0 -21 -9 -20 -17 rrcurveto
          -457 -459 rlineto
          -18 -19 -9 -21 0 -24 0 -23 9 -21 18 -21 rrcurveto
          457 -457 rlineto
          20 -17 21 -8 22 0 25 0 22 9 17 17 17 17 9 22 0 25 0 22 -9 21 -17 20 rrcurveto
          -113 113 rlineto
          -6 7 -3 7 0 8 0 8 3 7 6 7 rrcurveto
          113 117 rlineto
          9 9 13 7 15 7 15 6 14 3 12 0 rrcurveto
          2881 hlineto
          13 0 14 -3 15 -6 15 -7 12 -7 9 -9 rrcurveto
          114 -117 rlineto
          6 -7 3 -7 0 -8 0 -8 -3 -7 -6 -7 rrcurveto
          -113 -113 rlineto
          -17 -20 -9 -21 0 -22 0 -25 9 -22 17 -17 17 -17 22 -9 25 0 rrcurveto
          endchar
        </CharString>
        <CharString name="leftfiveeighthsblock">
          0 -600 vmoveto
          750 2640 -750 hlineto
          endchar
        </CharString>
        <CharString name="lefthalfblock">
          0 -600 vmoveto
          600 2640 -600 hlineto
          endchar
        </CharString>
        <CharString name="leftoneeighthblock">
          0 -600 vmoveto
          150 2640 -150 hlineto
          endchar
        </CharString>
        <CharString name="leftonequarterblock">
          0 -600 vmoveto
          300 2640 -300 hlineto
          endchar
        </CharString>
        <CharString name="leftrightarrow">
          0 304 70 rmoveto
          210 hlineto
          -324 408 rlineto
          -17 20 -17 19 -17 17 -17 17 -13 13 -9 8 rrcurveto
          18 vlineto
          17 -1 23 -2 27 -3 27 -3 25 -1 21 0 rrcurveto
          720 hlineto
          23 0 24 1 27 2 27 2 22 2 17 1 rrcurveto
          -18 vlineto
          -12 -9 -15 -13 -17 -17 -17 -17 -16 -17 -13 -17 rrcurveto
          -324 -410 rlineto
          212 hlineto
          462 590 -464 590 rlineto
          -210 hlineto
          324 -408 rlineto
          17 -20 17 -19 17 -17 17 -17 13 -13 9 -8 rrcurveto
          -18 vlineto
          -17 3 -22 2 -27 2 -27 2 -24 1 -23 0 rrcurveto
          -720 hlineto
          -21 0 -25 -1 -27 -1 -27 -1 -23 -2 -17 -3 rrcurveto
          18 vlineto
          12 9 15 13 17 17 17 17 16 17 13 17 rrcurveto
          324 410 rlineto
          -212 hlineto
          -462 -590 rlineto
          endchar
        </CharString>
        <CharString name="leftseveneighthsblock">
          0 -600 vmoveto
          1050 2640 -1050 hlineto
          endchar
        </CharString>
        <CharString name="leftthreeeighthsblock">
          0 -600 vmoveto
          400 2640 -400 hlineto
          endchar
        </CharString>
        <CharString name="leftthreequartersblock">
          0 -600 vmoveto
          900 2640 -900 hlineto
          endchar
        </CharString>
        <CharString name="leftwardsarrow">
          0 544 70 rmoveto
          210 hlineto
          -324 408 rlineto
          -17 20 -17 19 -17 17 -17 17 -13 13 -9 8 rrcurveto
          18 vlineto
          17 -1 23 -2 27 -3 27 -3 25 -1 21 0 rrcurveto
          660 160 -660 hlineto
          -21 0 -25 -1 -27 -1 -27 -1 -23 -2 -17 -3 rrcurveto
          18 vlineto
          12 9 15 13 17 17 17 17 16 17 13 17 rrcurveto
          324 410 rlineto
          -212 hlineto
          -462 -590 rlineto
          endchar
        </CharString>
        <CharString name="less">
          0 946 147 rmoveto
          24 0 21 9 18 18 18 18 9 21 0 24 0 34 -17 28 -34 21 rrcurveto
          -475 254 rlineto
          -11 7 -5 8 0 11 0 9 5 8 11 7 rrcurveto
          473 250 rlineto
          34 21 17 28 0 34 0 24 -9 21 -17 18 -18 17 -21 9 -23 0 -14 0 -14 -3 -13 -7 rrcurveto
          -691 -355 rlineto
          -16 -8 -12 -11 -9 -15 -9 -15 -4 -15 0 -17 0 -35 17 -27 33 -19 rrcurveto
          692 -363 rlineto
          13 -6 14 -3 13 0 rrcurveto
          endchar
        </CharString>
        <CharString name="less_greater">
          0 1 206 rmoveto
          -691 368 rlineto
          -11 5 -5 9 0 12 0 11 5 8 11 5 rrcurveto
          690 363 690 -363 rlineto
          11 -6 6 -8 0 -10 0 -12 -5 -9 -11 -5 rrcurveto
          -686 -563 rmoveto
          11 0 18 7 25 14 rrcurveto
          927 487 rlineto
          33 18 17 27 0 36 0 17 -4 15 -9 15 -9 15 -12 11 -16 8 rrcurveto
          -936 483 rlineto
          -21 10 -18 5 -16 0 -9 0 -15 -5 -21 -11 rrcurveto
          -936 -482 rlineto
          -16 -8 -12 -11 -9 -15 -9 -15 -4 -15 0 -17 0 -35 17 -27 33 -19 rrcurveto
          929 -488 rlineto
          24 -13 21 -7 17 0 rrcurveto
          endchar
        </CharString>
        <CharString name="less_less">
          0 -104 147 rmoveto
          24 0 21 9 18 18 18 18 9 21 0 24 0 34 -17 28 -34 21 rrcurveto
          -475 254 rlineto
          -11 7 -5 8 0 11 0 9 5 8 11 7 rrcurveto
          473 250 rlineto
          34 21 17 28 0 34 0 24 -9 21 -17 18 -18 17 -21 9 -23 0 -14 0 -14 -3 -13 -7 rrcurveto
          -691 -355 rlineto
          -16 -8 -12 -11 -9 -15 -9 -15 -4 -15 0 -17 0 -35 17 -27 33 -19 rrcurveto
          692 -363 rlineto
          13 -6 14 -3 13 0 rrcurveto
          900 hmoveto
          24 0 21 9 18 18 18 18 9 21 0 24 0 34 -17 28 -34 21 rrcurveto
          -475 254 rlineto
          -11 7 -5 8 0 11 0 9 5 8 11 7 rrcurveto
          473 250 rlineto
          34 21 17 28 0 34 0 24 -9 21 -17 18 -18 17 -21 9 -23 0 -14 0 -14 -3 -13 -7 rrcurveto
          -691 -355 rlineto
          -16 -8 -12 -11 -9 -15 -9 -15 -4 -15 0 -17 0 -35 17 -27 33 -19 rrcurveto
          692 -363 rlineto
          13 -6 14 -3 13 0 rrcurveto
          endchar
        </CharString>
        <CharString name="less_less_less">
          0 -254 147 rmoveto
          24 0 21 9 18 18 18 18 9 21 0 24 0 34 -17 28 -34 21 rrcurveto
          -475 254 rlineto
          -11 7 -5 8 0 11 0 9 5 8 11 7 rrcurveto
          473 250 rlineto
          34 21 17 28 0 34 0 24 -9 21 -17 18 -18 17 -21 9 -23 0 -14 0 -14 -3 -13 -7 rrcurveto
          -691 -355 rlineto
          -16 -8 -12 -11 -9 -15 -9 -15 -4 -15 0 -17 0 -35 17 -27 33 -19 rrcurveto
          692 -363 rlineto
          13 -6 14 -3 13 0 rrcurveto
          -900 hmoveto
          24 0 21 9 18 18 18 18 9 21 0 24 0 34 -17 28 -34 21 rrcurveto
          -475 254 rlineto
          -11 7 -5 8 0 11 0 9 5 8 11 7 rrcurveto
          473 250 rlineto
          34 21 17 28 0 34 0 24 -9 21 -17 18 -18 17 -21 9 -23 0 -14 0 -14 -3 -13 -7 rrcurveto
          -691 -355 rlineto
          -16 -8 -12 -11 -9 -15 -9 -15 -4 -15 0 -17 0 -35 17 -27 33 -19 rrcurveto
          692 -363 rlineto
          13 -6 14 -3 13 0 rrcurveto
          1800 hmoveto
          24 0 21 9 18 18 18 18 9 21 0 24 0 34 -17 28 -34 21 rrcurveto
          -475 254 rlineto
          -11 7 -5 8 0 11 0 9 5 8 11 7 rrcurveto
          473 250 rlineto
          34 21 17 28 0 34 0 24 -9 21 -17 18 -18 17 -21 9 -23 0 -14 0 -14 -3 -13 -7 rrcurveto
          -691 -355 rlineto
          -16 -8 -12 -11 -9 -15 -9 -15 -4 -15 0 -17 0 -35 17 -27 33 -19 rrcurveto
          692 -363 rlineto
          13 -6 14 -3 13 0 rrcurveto
          endchar
        </CharString>
        <CharString name="less_slash">
          0 -88 -330 rmoveto
          17 0 16 5 15 10 15 9 12 13 7 17 rrcurveto
          778 1750 rlineto
          5 13 3 12 0 12 0 17 -5 16 -9 15 -17 27 -26 14 -33 0 -17 0 -16 -5 -15 -9 -15 -9 -12 -13 -7 -17 rrcurveto
          -599 -1347 -699 374 rlineto
          -11 7 -5 8 0 11 0 9 5 8 11 7 rrcurveto
          473 250 rlineto
          34 21 17 28 0 34 0 24 -9 21 -17 18 -18 17 -21 9 -23 0 -14 0 -14 -3 -13 -7 rrcurveto
          -691 -355 rlineto
          -16 -8 -12 -11 -9 -15 -9 -15 -4 -15 0 -17 0 -35 17 -27 33 -19 rrcurveto
          921 -486 -105 -236 rlineto
          -5 -13 -3 -12 0 -11 0 -17 5 -17 10 -15 17 -28 25 -14 33 0 rrcurveto
          endchar
        </CharString>
        <CharString name="less_slash_greater">
          0 -1018 -330 rmoveto
          17 0 16 5 15 10 15 9 12 13 7 17 rrcurveto
          582 1308 774 -408 rlineto
          11 -7 6 -8 0 -9 0 -11 -5 -8 -11 -7 rrcurveto
          -475 -254 rlineto
          -35 -21 -17 -28 0 -34 0 -24 9 -21 19 -18 18 -18 21 -9 24 0 13 0 13 3 13 6 rrcurveto
          692 363 rlineto
          33 19 17 27 0 35 0 17 -4 15 -9 15 -9 15 -12 11 -16 8 rrcurveto
          -997 516 123 277 rlineto
          5 13 3 12 0 12 0 17 -5 16 -9 15 -17 27 -26 14 -33 0 -17 0 -16 -5 -15 -9 -15 -9 -12 -13 -7 -17 rrcurveto
          -599 -1347 -699 374 rlineto
          -11 7 -5 8 0 11 0 9 5 8 11 7 rrcurveto
          473 250 rlineto
          34 21 17 28 0 34 0 24 -9 21 -17 18 -18 17 -21 9 -23 0 -14 0 -14 -3 -13 -7 rrcurveto
          -691 -355 rlineto
          -16 -8 -12 -11 -9 -15 -9 -15 -4 -15 0 -17 0 -35 17 -27 33 -19 rrcurveto
          921 -486 -105 -236 rlineto
          -5 -13 -3 -12 0 -11 0 -17 5 -17 10 -15 17 -28 25 -14 33 0 rrcurveto
          endchar
        </CharString>
        <CharString name="lightshade">
          0 1080 1920 rmoveto
          120 120 -120 hlineto
          -960 -120 rmoveto
          120 120 -120 hlineto
          240 -120 rmoveto
          120 120 -120 hlineto
          240 -120 rmoveto
          120 120 -120 hlineto
          240 -120 rmoveto
          120 120 -120 hlineto
          240 -360 rmoveto
          120 120 -120 hlineto
          -960 -120 rmoveto
          120 120 -120 hlineto
          240 -120 rmoveto
          120 120 -120 hlineto
          240 -120 rmoveto
          120 120 -120 hlineto
          240 -120 rmoveto
          120 120 -120 hlineto
          240 -360 rmoveto
          120 120 -120 hlineto
          -960 -120 rmoveto
          120 120 -120 hlineto
          240 -120 rmoveto
          120 120 -120 hlineto
          240 -120 rmoveto
          120 120 -120 hlineto
          240 -120 rmoveto
          120 120 -120 hlineto
          240 -360 rmoveto
          120 120 -120 hlineto
          -960 -120 rmoveto
          120 120 -120 hlineto
          240 -120 rmoveto
          120 120 -120 hlineto
          240 -120 rmoveto
          120 120 -120 hlineto
          240 -120 rmoveto
          120 120 -120 hlineto
          240 -360 rmoveto
          120 120 -120 hlineto
          -960 -120 rmoveto
          120 120 -120 hlineto
          240 -120 rmoveto
          120 120 -120 hlineto
          240 -120 rmoveto
          120 120 -120 hlineto
          240 -120 rmoveto
          120 120 -120 hlineto
          240 -360 rmoveto
          120 120 -120 hlineto
          -960 -120 rmoveto
          120 120 -120 hlineto
          240 -120 rmoveto
          120 120 -120 hlineto
          240 -120 rmoveto
          120 120 -120 hlineto
          240 -120 rmoveto
          120 120 -120 hlineto
          240 -360 rmoveto
          120 120 -120 hlineto
          -960 -120 rmoveto
          120 120 -120 hlineto
          240 -120 rmoveto
          120 120 -120 hlineto
          240 -120 rmoveto
          120 120 -120 hlineto
          240 -120 rmoveto
          120 120 -120 hlineto
          240 -360 rmoveto
          120 120 -120 hlineto
          -960 -120 rmoveto
          120 120 -120 hlineto
          240 -120 rmoveto
          120 120 -120 hlineto
          240 -120 rmoveto
          120 120 -120 hlineto
          240 -120 rmoveto
          120 120 -120 hlineto
          240 -360 rmoveto
          120 120 -120 hlineto
          -960 -120 rmoveto
          120 120 -120 hlineto
          240 -120 rmoveto
          120 120 -120 hlineto
          240 -120 rmoveto
          120 120 -120 hlineto
          240 -120 rmoveto
          120 120 -120 hlineto
          240 -360 rmoveto
          120 120 -120 hlineto
          -960 -120 rmoveto
          120 120 -120 hlineto
          240 -120 rmoveto
          120 120 -120 hlineto
          240 -120 rmoveto
          120 120 -120 hlineto
          240 -120 rmoveto
          120 120 -120 hlineto
          240 -360 rmoveto
          120 120 -120 hlineto
          -960 -120 rmoveto
          120 120 -120 hlineto
          240 -120 rmoveto
          120 120 -120 hlineto
          240 -120 rmoveto
          120 120 -120 hlineto
          240 -120 rmoveto
          120 120 -120 hlineto
          endchar
        </CharString>
        <CharString name="lowerfiveeighthsblock">
          0 -600 vmoveto
          1200 1650 -1200 hlineto
          endchar
        </CharString>
        <CharString name="lowerhalfblock">
          0 -600 vmoveto
          1200 1320 -1200 hlineto
          endchar
        </CharString>
        <CharString name="loweroneeighthblock">
          0 -600 vmoveto
          1200 330 -1200 hlineto
          endchar
        </CharString>
        <CharString name="loweronequarterblock">
          0 -600 vmoveto
          1200 660 -1200 hlineto
          endchar
        </CharString>
        <CharString name="lowerseveneighthsblock">
          0 -600 vmoveto
          1200 2310 -1200 hlineto
          endchar
        </CharString>
        <CharString name="lowerthreeeighthsblock">
          0 -600 vmoveto
          1200 990 -1200 hlineto
          endchar
        </CharString>
        <CharString name="lowerthreequartersblock">
          0 -600 vmoveto
          1200 1980 -1200 hlineto
          endchar
        </CharString>
        <CharString name="m">
          0 971 -30 rmoveto
          25 0 21 9 18 18 17 17 9 21 0 25 rrcurveto
          766 vlineto
          0 87 -20 64 -40 42 -40 41 -55 21 -71 0 -67 0 -50 -22 -31 -43 -9 -12 -9 -17 -9 -23 -3 -8 -3 -4 -2 0 -3 0 -3 4 -1 8 -7 37 -19 29 -32 21 -33 20 -36 10 -40 0 rrcurveto
          -75 0 -50 -34 -24 -67 -7 -19 -5 -9 -3 0 -8 0 -3 7 0 13 rrcurveto
          27 vlineto
          0 22 -7 19 -15 17 -15 16 -19 8 -24 0 -23 0 -19 -8 -17 -17 -17 -17 -8 -19 0 -23 rrcurveto
          -937 vlineto
          0 -25 9 -21 18 -17 17 -18 21 -9 25 0 25 0 21 9 18 18 17 17 9 21 0 25 rrcurveto
          740 vlineto
          0 27 9 25 18 21 18 21 24 11 31 0 33 0 26 -9 17 -19 17 -19 8 -23 1 -28 rrcurveto
          -747 vlineto
          0 -25 7 -21 15 -17 15 -18 19 -9 23 0 25 0 19 9 15 18 15 17 7 21 0 25 rrcurveto
          744 vlineto
          0 25 11 23 22 21 21 20 25 10 28 0 30 -1 23 -11 17 -21 15 -19 8 -22 0 -27 rrcurveto
          -742 vlineto
          0 -24 9 -21 18 -18 17 -18 21 -9 25 0 rrcurveto
          endchar
        </CharString>
        <CharString name="mediumshade">
          0 1080 1920 rmoveto
          120 120 -120 hlineto
          -240 -120 rmoveto
          120 120 -120 hlineto
          -240 -120 rmoveto
          120 120 -120 hlineto
          -240 -120 rmoveto
          120 120 -120 hlineto
          -240 -120 rmoveto
          120 120 -120 hlineto
          840 -240 rmoveto
          120 120 -120 hlineto
          -240 -120 rmoveto
          120 120 -120 hlineto
          -240 -120 rmoveto
          120 120 -120 hlineto
          -240 -120 rmoveto
          120 120 -120 hlineto
          -240 -120 rmoveto
          120 120 -120 hlineto
          1080 -240 rmoveto
          120 120 -120 hlineto
          -240 -120 rmoveto
          120 120 -120 hlineto
          -720 -120 rmoveto
          120 120 -120 hlineto
          480 -120 rmoveto
          120 120 -120 hlineto
          -240 -120 rmoveto
          120 120 -120 hlineto
          600 -240 rmoveto
          120 120 -120 hlineto
          -720 -120 rmoveto
          120 120 -120 hlineto
          480 -120 rmoveto
          120 120 -120 hlineto
          -720 -120 rmoveto
          120 120 -120 hlineto
          480 -120 rmoveto
          120 120 -120 hlineto
          -120 -240 rmoveto
          120 120 -120 hlineto
          720 -120 rmoveto
          120 120 -120 hlineto
          -240 -120 rmoveto
          120 120 -120 hlineto
          -720 -120 rmoveto
          120 120 -120 hlineto
          480 -120 rmoveto
          120 120 -120 hlineto
          360 -240 rmoveto
          120 120 -120 hlineto
          -480 -120 rmoveto
          120 120 -120 hlineto
          -240 -120 rmoveto
          120 120 -120 hlineto
          -240 -120 rmoveto
          120 120 -120 hlineto
          720 -120 rmoveto
          120 120 -120 hlineto
          360 -240 rmoveto
          120 120 -120 hlineto
          -720 -120 rmoveto
          120 120 -120 hlineto
          480 -120 rmoveto
          120 120 -120 hlineto
          -240 -120 rmoveto
          120 120 -120 hlineto
          -480 -120 rmoveto
          120 120 -120 hlineto
          600 -240 rmoveto
          120 120 -120 hlineto
          -480 -120 rmoveto
          120 120 -120 hlineto
          240 -120 rmoveto
          120 120 -120 hlineto
          480 -120 rmoveto
          120 120 -120 hlineto
          -960 -120 rmoveto
          120 120 -120 hlineto
          600 -240 rmoveto
          120 120 -120 hlineto
          480 -120 rmoveto
          120 120 -120 hlineto
          -720 -120 rmoveto
          120 120 -120 hlineto
          -240 -120 rmoveto
          120 120 -120 hlineto
          720 -120 rmoveto
          120 120 -120 hlineto
          -840 -240 rmoveto
          120 120 -120 hlineto
          960 -120 rmoveto
          120 120 -120 hlineto
          -240 -120 rmoveto
          120 120 -120 hlineto
          -480 -120 rmoveto
          120 120 -120 hlineto
          240 -120 rmoveto
          120 120 -120 hlineto
          600 -240 rmoveto
          120 120 -120 hlineto
          -480 -120 rmoveto
          120 120 -120 hlineto
          -240 -120 rmoveto
          120 120 -120 hlineto
          -240 -120 rmoveto
          120 120 -120 hlineto
          720 -120 rmoveto
          120 120 -120 hlineto
          -360 -240 rmoveto
          120 120 -120 hlineto
          240 -120 rmoveto
          120 120 -120 hlineto
          -720 -120 rmoveto
          120 120 -120 hlineto
          240 -120 rmoveto
          120 120 -120 hlineto
          720 -120 rmoveto
          120 120 -120 hlineto
          -360 -240 rmoveto
          120 120 -120 hlineto
          -480 -120 rmoveto
          120 120 -120 hlineto
          240 -120 rmoveto
          120 120 -120 hlineto
          720 -120 rmoveto
          120 120 -120 hlineto
          -240 -120 rmoveto
          120 120 -120 hlineto
          -120 -240 rmoveto
          120 120 -120 hlineto
          -480 -120 rmoveto
          120 120 -120 hlineto
          720 -120 rmoveto
          120 120 -120 hlineto
          -480 -120 rmoveto
          120 120 -120 hlineto
          -480 -120 rmoveto
          120 120 -120 hlineto
          840 -240 rmoveto
          120 120 -120 hlineto
          -480 -120 rmoveto
          120 120 -120 hlineto
          240 -120 rmoveto
          120 120 -120 hlineto
          480 -120 rmoveto
          120 120 -120 hlineto
          -960 -120 rmoveto
          120 120 -120 hlineto
          840 -240 rmoveto
          120 120 -120 hlineto
          -960 -120 rmoveto
          120 120 -120 hlineto
          480 -120 rmoveto
          120 120 -120 hlineto
          240 -120 rmoveto
          120 120 -120 hlineto
          -480 -120 rmoveto
          120 120 -120 hlineto
          -120 -240 rmoveto
          120 120 -120 hlineto
          720 -120 rmoveto
          120 120 -120 hlineto
          -240 -120 rmoveto
          120 120 -120 hlineto
          -240 -120 rmoveto
          120 120 -120 hlineto
          720 -120 rmoveto
          120 120 -120 hlineto
          -120 -240 rmoveto
          120 120 -120 hlineto
          -240 -120 rmoveto
          120 120 -120 hlineto
          -720 -120 rmoveto
          120 120 -120 hlineto
          480 -120 rmoveto
          120 120 -120 hlineto
          -240 -120 rmoveto
          120 120 -120 hlineto
          840 -240 rmoveto
          120 120 -120 hlineto
          -240 -120 rmoveto
          120 120 -120 hlineto
          -720 -120 rmoveto
          120 120 -120 hlineto
          480 -120 rmoveto
          120 120 -120 hlineto
          -240 -120 rmoveto
          120 120 -120 hlineto
          -120 -240 rmoveto
          120 120 -120 hlineto
          720 -120 rmoveto
          120 120 -120 hlineto
          -240 -120 rmoveto
          120 120 -120 hlineto
          -240 -120 rmoveto
          120 120 -120 hlineto
          -480 -120 rmoveto
          120 120 -120 hlineto
          1080 -240 rmoveto
          120 120 -120 hlineto
          -720 -120 rmoveto
          120 120 -120 hlineto
          480 -120 rmoveto
          120 120 -120 hlineto
          -240 -120 rmoveto
          120 120 -120 hlineto
          -480 -120 rmoveto
          120 120 -120 hlineto
          360 -240 rmoveto
          120 120 -120 hlineto
          480 -120 rmoveto
          120 120 -120 hlineto
          -240 -120 rmoveto
          120 120 -120 hlineto
          -480 -120 rmoveto
          120 120 -120 hlineto
          -240 -120 rmoveto
          120 120 -120 hlineto
          endchar
        </CharString>
        <CharString name="n">
          0 266 1080 rmoveto
          -24 0 -21 -9 -19 -19 -19 -19 -9 -22 0 -27 rrcurveto
          -920 vlineto
          0 -29 9 -22 17 -17 17 -17 22 -9 27 0 29 0 22 9 15 17 15 17 8 22 0 29 rrcurveto
          547 vlineto
          0 89 36 70 73 51 60 39 57 20 54 1 139 0 70 -83 3 -165 rrcurveto
          -569 vlineto
          0 -29 9 -22 17 -17 17 -17 22 -9 27 0 29 0 21 9 15 17 15 17 7 22 0 29 rrcurveto
          580 vlineto
          0 157 -32 112 -63 68 -59 65 -91 33 -121 0 -91 -1 -89 -47 -87 -91 -8 -8 -7 -4 -5 0 -9 0 -5 8 0 16 rrcurveto
          32 vlineto
          0 27 -9 22 -19 19 -19 19 -21 9 -25 0 rrcurveto
          endchar
        </CharString>
        <CharString name="nine">
          0 575 690 rmoveto
          -77 0 -58 22 -39 45 -40 44 -20 62 0 81 0 54 10 50 20 47 19 47 29 37 39 29 39 28 47 14 57 0 57 0 47 -16 38 -32 37 -33 28 -40 19 -47 19 -48 9 -47 0 -47 rrcurveto
          0 -63 -11 -48 -22 -35 -40 -54 -53 -32 -68 -11 -30 -5 -29 -2 -27 0 rrcurveto
          -210 -720 rmoveto
          152 0 126 33 100 67 99 67 75 93 49 119 49 119 25 137 0 157 0 157 -17 127 -34 99 -35 98 -50 72 -65 46 -65 46 -80 23 -93 0 -97 0 -81 -23 -65 -45 -65 -45 -49 -61 -33 -77 rrcurveto
          -33 -77 -17 -86 0 -95 0 -95 18 -78 36 -61 35 -61 48 -44 61 -29 60 -29 67 -14 75 0 48 0 46 7 44 15 43 14 36 17 29 20 4 3 4 1 5 0 12 0 6 -9 0 -17 rrcurveto
          0 -43 -16 -55 -33 -69 -46 -91 -69 -69 -93 -45 -33 -15 -35 -9 -39 -5 -60 -8 -49 -4 -39 0 -25 -1 -20 -9 -16 -17 -17 -17 -8 -21 0 -25 0 -23 8 -20 17 -18 17 -18 20 -9 24 0 rrcurveto
          endchar
        </CharString>
        <CharString name="northeastarrow">
          0 138 152 rmoveto
          710 716 rlineto
          19 19 19 20 19 23 19 23 15 18 9 13 rrcurveto
          14 -4 rlineto
          -3 -17 -2 -25 -3 -32 -3 -32 -1 -33 0 -33 rrcurveto
          -398 160 830 -830 -156 390 vlineto
          33 0 32 1 29 3 29 3 22 2 15 1 rrcurveto
          2 -14 rlineto
          -12 -9 -16 -13 -20 -17 -20 -17 -19 -17 -19 -19 rrcurveto
          -706 -712 rlineto
          endchar
        </CharString>
        <CharString name="northwestarrow">
          0 1058 150 rmoveto
          122 126 -706 712 rlineto
          -17 19 -19 17 -21 17 -21 17 -16 13 -12 9 rrcurveto
          2 14 rlineto
          15 -1 22 -2 29 -3 29 -3 32 -1 33 0 rrcurveto
          390 156 -830 -830 160 398 hlineto
          0 33 -2 33 -4 31 -4 31 -3 25 -3 17 rrcurveto
          14 4 rlineto
          11 -13 14 -18 19 -23 19 -23 18 -20 19 -19 rrcurveto
          endchar
        </CharString>
        <CharString name="numbersign">
          0 401 -30 rmoveto
          24 0 21 9 18 18 18 18 9 21 0 24 rrcurveto
          170 -181 -170 vlineto
          0 -24 9 -21 18 -18 18 -18 21 -9 25 0 rrcurveto
          -191 900 rmoveto
          180 -81 vlineto
          -24 0 -21 -9 -18 -18 -18 -18 -9 -21 0 -24 0 -24 9 -21 18 -18 18 -18 21 -9 24 0 rrcurveto
          941 hmoveto
          24 0 21 9 18 18 18 18 9 21 0 25 0 24 -9 21 -18 18 -18 17 -21 9 -24 0 rrcurveto
          -480 -180 hlineto
          20 -520 rmoveto
          180 -481 vlineto
          -24 0 -21 -9 -18 -18 -18 -18 -9 -21 0 -24 0 -24 9 -21 18 -18 18 -18 21 -9 24 0 rrcurveto
          941 hmoveto
          24 0 21 9 18 18 18 18 9 21 0 24 0 24 -9 21 -18 18 -18 18 -21 9 -24 0 rrcurveto
          -80 -180 hlineto
          -100 820 rmoveto
          171 vlineto
          0 24 -9 21 -17 18 -18 17 -21 9 -25 0 -24 0 -21 -9 -18 -17 -18 -18 -9 -21 0 -24 rrcurveto
          -171 vlineto
          91 -1200 rmoveto
          24 0 21 9 18 18 17 18 9 21 0 24 rrcurveto
          690 -180 -690 vlineto
          0 -24 9 -21 18 -18 18 -18 21 -9 25 0 rrcurveto
          -310 680 rmoveto
          691 vlineto
          0 24 -9 21 -18 18 -18 17 -21 9 -25 0 -24 0 -21 -9 -18 -17 -18 -18 -9 -21 0 -24 rrcurveto
          -691 vlineto
          endchar
        </CharString>
        <CharString name="numbersign_braceleft">
          0 -799 -30 rmoveto
          24 0 21 9 18 18 18 18 9 21 0 24 rrcurveto
          170 -181 -170 vlineto
          0 -24 9 -21 18 -18 18 -18 21 -9 25 0 rrcurveto
          1364 535 rmoveto
          23 0 12 14 0 27 0 14 -7 13 -14 12 rrcurveto
          -90 81 rlineto
          -11 10 -5 11 0 13 0 13 5 12 11 9 rrcurveto
          90 81 rlineto
          14 12 7 13 0 14 0 27 -12 14 -23 0 -6 0 -7 -1 -7 -3 rrcurveto
          -296 -136 rlineto
          -29 -9 -15 -19 0 -27 0 -27 15 -19 29 -9 rrcurveto
          296 -136 rlineto
          7 -3 7 -1 6 0 rrcurveto
          363 -768 rmoveto
          22 0 19 8 16 15 16 15 8 22 0 29 0 24 -8 20 -16 16 -17 16 -19 8 -21 0 rrcurveto
          -68 hlineto
          -76 0 -55 11 -33 23 -53 36 -26 48 0 60 0 17 0 16 1 15 1 20 1 42 0 64 0 17 -7 18 -15 18 -15 17 -17 14 -18 9 rrcurveto
          -291 137 rlineto
          -53 25 -54 13 -56 0 rrcurveto
          -304 -180 543 hlineto
          24 0 24 -10 23 -20 23 -20 11 -22 0 -24 -1 -29 -1 -24 0 -20 -1 -20 0 -19 -1 -18 -1 -18 0 -12 0 -7 0 -125 42 -94 85 -65 25 -21 29 -15 33 -10 32 -10 29 -6 26 -1 rrcurveto
          26 -2 34 -1 43 0 rrcurveto
          -743 1133 rmoveto
          56 0 54 12 53 25 rrcurveto
          291 138 rlineto
          17 9 17 13 15 18 15 18 8 18 0 17 rrcurveto
          89 vlineto
          -2 41 -1 28 0 16 0 61 26 48 53 35 33 23 55 11 76 0 rrcurveto
          69 hlineto
          21 0 19 8 17 16 16 16 8 20 0 24 0 30 -8 22 -16 15 -16 15 -19 7 -22 0 -104 0 -65 -1 -26 -1 -70 -5 -58 -22 -46 -37 -85 -64 -42 -95 0 -125 0 -27 2 -55 3 -85 rrcurveto
          0 -24 -11 -22 -23 -20 -23 -20 -24 -10 -24 0 rrcurveto
          -943 -180 hlineto
          -380 hmoveto
          180 -81 vlineto
          -24 0 -21 -9 -18 -18 -18 -18 -9 -21 0 -24 0 -24 9 -21 18 -18 18 -18 21 -9 24 0 rrcurveto
          481 -520 rmoveto
          180 -481 vlineto
          -24 0 -21 -9 -18 -18 -18 -18 -9 -21 0 -24 0 -24 9 -21 18 -18 18 -18 21 -9 24 0 rrcurveto
          761 820 rmoveto
          171 vlineto
          0 24 -9 21 -17 18 -18 17 -21 9 -25 0 -24 0 -21 -9 -18 -17 -18 -18 -9 -21 0 -24 rrcurveto
          -171 vlineto
          91 -1200 rmoveto
          24 0 21 9 18 18 17 18 9 21 0 24 rrcurveto
          690 -180 -690 vlineto
          0 -24 9 -21 18 -18 18 -18 21 -9 25 0 rrcurveto
          -310 680 rmoveto
          691 vlineto
          0 24 -9 21 -18 18 -18 17 -21 9 -25 0 -24 0 -21 -9 -18 -17 -18 -18 -9 -21 0 -24 rrcurveto
          -691 vlineto
          endchar
        </CharString>
        <CharString name="numbersign_bracketleft">
          0 -590 350 rmoveto
          180 -481 vlineto
          -24 0 -21 -9 -18 -18 -18 -18 -9 -21 0 -24 0 -24 9 -21 18 -18 18 -18 21 -9 24 0 rrcurveto
          81 520 rmoveto
          180 -81 vlineto
          -24 0 -21 -9 -18 -18 -18 -18 -9 -21 0 -24 0 -24 9 -21 18 -18 18 -18 21 -9 24 0 rrcurveto
          272 -900 rmoveto
          24 0 21 9 18 18 18 18 9 21 0 24 rrcurveto
          170 -181 -170 vlineto
          0 -24 9 -21 18 -18 18 -18 21 -9 25 0 rrcurveto
          90 680 rmoveto
          691 vlineto
          0 24 -9 21 -18 18 -18 17 -21 9 -25 0 -24 0 -21 -9 -18 -17 -18 -18 -9 -21 0 -24 rrcurveto
          -691 vlineto
          491 -680 rmoveto
          24 0 21 9 18 18 17 18 9 21 0 24 rrcurveto
          690 -180 -690 vlineto
          0 -24 9 -21 18 -18 18 -18 21 -9 25 0 rrcurveto
          89 1200 rmoveto
          171 vlineto
          0 24 -9 21 -17 18 -18 17 -21 9 -25 0 -24 0 -21 -9 -18 -17 -18 -18 -9 -21 0 -24 rrcurveto
          -171 vlineto
          1330 -1440 rmoveto
          25 0 21 9 18 18 17 17 9 21 0 25 0 25 -9 21 -17 18 -18 17 -21 9 -25 0 rrcurveto
          -337 hlineto
          -22 1 -11 11 0 21 rrcurveto
          1515 vlineto
          3 21 11 11 19 0 rrcurveto
          337 hlineto
          25 0 21 9 18 18 17 17 9 21 0 25 0 25 -9 21 -17 18 -18 17 -21 9 -25 0 rrcurveto
          -456 hlineto
          -26 0 -22 -9 -18 -18 -19 -19 -9 -22 0 -25 rrcurveto
          -527 -900 -180 900 -340 -500 -180 500 -527 vlineto
          0 -25 9 -22 19 -18 18 -19 22 -9 26 0 rrcurveto
          endchar
        </CharString>
        <CharString name="numbersign_expand">
          0 401 -30 rmoveto
          24 0 21 9 18 18 18 18 9 21 0 24 rrcurveto
          170 -181 -170 vlineto
          0 -24 9 -21 18 -18 18 -18 21 -9 25 0 rrcurveto
          -191 900 rmoveto
          180 -81 vlineto
          -24 0 -21 -9 -18 -18 -18 -18 -9 -21 0 -24 0 -24 9 -21 18 -18 18 -18 21 -9 24 0 rrcurveto
          1281 hmoveto
          180 -820 -180 vlineto
          20 -520 rmoveto
          180 -481 vlineto
          -24 0 -21 -9 -18 -18 -18 -18 -9 -21 0 -24 0 -24 9 -21 18 -18 18 -18 21 -9 24 0 rrcurveto
          1681 hmoveto
          180 -820 -180 vlineto
          -100 820 rmoveto
          171 vlineto
          0 24 -9 21 -17 18 -18 17 -21 9 -25 0 -24 0 -21 -9 -18 -17 -18 -18 -9 -21 0 -24 rrcurveto
          -171 vlineto
          91 -1200 rmoveto
          24 0 21 9 18 18 17 18 9 21 0 24 rrcurveto
          690 -180 -690 vlineto
          0 -24 9 -21 18 -18 18 -18 21 -9 25 0 rrcurveto
          -310 680 rmoveto
          691 vlineto
          0 24 -9 21 -18 18 -18 17 -21 9 -25 0 -24 0 -21 -9 -18 -17 -18 -18 -9 -21 0 -24 rrcurveto
          -691 vlineto
          endchar
        </CharString>
        <CharString name="numbersign_parenleft">
          0 -590 350 rmoveto
          180 -481 vlineto
          -24 0 -21 -9 -18 -18 -18 -18 -9 -21 0 -24 0 -24 9 -21 18 -18 18 -18 21 -9 24 0 rrcurveto
          81 520 rmoveto
          180 -81 vlineto
          -24 0 -21 -9 -18 -18 -18 -18 -9 -21 0 -24 0 -24 9 -21 18 -18 18 -18 21 -9 24 0 rrcurveto
          272 -900 rmoveto
          24 0 21 9 18 18 18 18 9 21 0 24 rrcurveto
          170 -181 -170 vlineto
          0 -24 9 -21 18 -18 18 -18 21 -9 25 0 rrcurveto
          90 680 rmoveto
          691 vlineto
          0 24 -9 21 -18 18 -18 17 -21 9 -25 0 -24 0 -21 -9 -18 -17 -18 -18 -9 -21 0 -24 rrcurveto
          -691 vlineto
          491 -680 rmoveto
          24 0 21 9 18 18 17 18 9 21 0 24 rrcurveto
          690 -180 -690 vlineto
          0 -24 9 -21 18 -18 18 -18 21 -9 25 0 rrcurveto
          89 1200 rmoveto
          171 vlineto
          0 24 -9 21 -17 18 -18 17 -21 9 -25 0 -24 0 -21 -9 -18 -17 -18 -18 -9 -21 0 -24 rrcurveto
          -171 vlineto
          1356 -1540 rmoveto
          31 0 24 13 18 25 8 10 4 15 0 19 0 30 -12 24 -24 17 -118 80 -101 96 -83 111 -120 157 -61 182 -3 207 rrcurveto
          90 vlineto
          3 179 62 174 122 170 81 111 100 96 118 81 24 17 12 23 0 30 0 17 -4 15 -7 12 -17 26 -24 13 -33 0 -15 0 -12 -3 -10 -6 -155 -92 -127 -116 -99 -141 -61 -88 -45 -87 -30 -87 rrcurveto
          -922 -180 874 hlineto
          -10 -61 -5 -77 0 -94 0 -37 1 -36 3 -35 rrcurveto
          -463 -180 493 hlineto
          33 -131 55 -121 77 -111 99 -140 127 -116 155 -92 10 -6 12 -3 15 0 rrcurveto
          endchar
        </CharString>
        <CharString name="o">
          0 600 156 rmoveto
          -173 0 -86 123 0 246 0 120 22 92 43 63 43 63 65 31 86 0 85 0 65 -31 44 -63 43 -63 22 -92 0 -120 0 -246 -86 -123 -173 0 rrcurveto
          -186 vmoveto
          94 0 78 22 62 43 61 43 51 63 40 81 39 81 20 102 0 122 0 120 -20 101 -39 81 -40 81 -51 63 -61 43 -62 43 -78 21 -94 0 -93 0 -77 -21 -63 -43 -63 -43 -51 -63 -39 -81 rrcurveto
          -39 -81 -20 -101 0 -120 0 -122 20 -102 39 -81 39 -81 51 -63 63 -43 63 -43 77 -22 93 0 rrcurveto
          endchar
        </CharString>
        <CharString name="one">
          0 939 hmoveto
          25 0 21 9 18 18 17 18 9 21 0 24 0 25 -9 22 -17 17 -18 17 -21 9 -25 0 rrcurveto
          -227 hlineto
          -15 2 -7 8 0 14 rrcurveto
          1098 vlineto
          0 35 -13 31 -25 25 -25 25 -31 12 -35 0 -31 0 -29 -10 -27 -21 rrcurveto
          -278 -266 rlineto
          -19 -20 -10 -23 0 -25 0 -21 7 -19 14 -18 21 -21 23 -11 25 0 25 0 20 7 15 15 rrcurveto
          147 153 rlineto
          5 5 6 2 7 0 7 0 7 -2 6 -5 5 -5 3 -7 0 -9 rrcurveto
          -925 vlineto
          -2 -16 -8 -8 -14 0 rrcurveto
          -226 hlineto
          -25 0 -21 -9 -17 -17 -18 -17 -9 -22 0 -25 0 -24 9 -21 18 -18 17 -18 21 -9 25 0 rrcurveto
          endchar
        </CharString>
        <CharString name="p">
          0 623 158 rmoveto
          -70 0 -59 25 -47 50 -51 57 -26 59 0 61 rrcurveto
          211 vlineto
          0 78 26 63 53 48 52 48 59 24 65 0 171 -3 86 -111 0 -218 0 -135 -26 -100 -51 -66 -47 -61 -61 -30 -74 0 rrcurveto
          -341 -646 rmoveto
          23 0 20 9 18 17 18 17 9 23 0 28 rrcurveto
          412 vlineto
          0 25 10 13 20 0 12 0 12 -6 13 -11 57 -46 71 -23 85 0 119 0 95 49 73 98 80 107 40 148 0 189 0 346 -135 173 -270 0 -100 0 -81 -38 -63 -77 -6 -7 -7 -4 -9 0 rrcurveto
          -11 0 -8 18 -3 36 -5 48 -27 24 -50 0 -25 0 -22 -8 -18 -17 -18 -17 -9 -22 0 -28 rrcurveto
          -1382 vlineto
          0 -28 9 -23 19 -17 19 -17 21 -9 24 0 rrcurveto
          endchar
        </CharString>
        <CharString name="parenleft">
          0 866 -319 rmoveto
          31 0 24 13 18 25 8 10 4 15 0 19 0 30 -12 24 -24 17 -118 80 -101 96 -83 111 -120 157 -61 182 -3 207 rrcurveto
          90 vlineto
          3 179 62 174 122 170 81 111 100 96 118 81 24 17 12 23 0 30 0 17 -4 15 -7 12 -17 26 -24 13 -33 0 -15 0 -12 -3 -10 -6 -155 -92 -127 -116 -99 -141 -133 -191 -66 -209 0 -228 rrcurveto
          -46 vlineto
          0 -243 66 -217 133 -191 99 -140 127 -116 155 -92 10 -6 12 -3 15 0 rrcurveto
          endchar
        </CharString>
        <CharString name="parenright">
          0 334 -319 rmoveto
          15 0 12 3 10 6 155 92 127 116 99 140 133 191 66 217 0 243 rrcurveto
          46 vlineto
          0 228 -66 209 -133 191 -99 141 -127 116 -155 92 -10 6 -12 3 -15 0 -33 0 -24 -13 -17 -26 -7 -12 -4 -15 0 -17 0 -30 12 -23 24 -17 118 -81 100 -96 81 -111 122 -170 62 -174 3 -179 rrcurveto
          -90 vlineto
          -3 -207 -61 -182 -120 -157 -83 -111 -101 -96 -118 -80 -24 -17 -12 -24 0 -30 0 -19 4 -15 8 -10 18 -25 24 -13 31 0 rrcurveto
          endchar
        </CharString>
        <CharString name="percent">
          0 855 124 rmoveto
          -76 0 -38 65 0 131 0 150 38 75 76 0 76 0 38 -75 0 -150 0 -131 -38 -65 -76 0 rrcurveto
          -510 741 rmoveto
          -76 0 -38 65 0 131 0 150 38 75 76 0 76 0 38 -75 0 -150 0 -131 -38 -65 -76 0 rrcurveto
          510 -885 rmoveto
          87 0 67 32 48 65 49 64 24 81 0 98 0 125 -24 92 -49 61 -48 61 -67 30 -87 0 -181 0 -91 -123 -3 -246 0 -103 24 -83 49 -61 49 -62 68 -31 85 0 rrcurveto
          -510 741 rmoveto
          87 0 67 32 48 65 49 64 24 81 0 98 0 125 -24 92 -49 61 -48 61 -67 30 -87 0 -181 0 -91 -123 -3 -246 0 -103 24 -83 49 -61 49 -62 68 -31 85 0 rrcurveto
          -168 -581 rmoveto
          32 0 27 12 21 24 rrcurveto
          256 316 rlineto
          13 16 6 18 0 19 0 25 -8 20 -17 15 -17 15 -20 7 -23 0 -19 0 -18 -8 -19 -15 rrcurveto
          -292 -284 rlineto
          -19 -20 -9 -26 0 -33 0 -23 9 -22 19 -22 19 -23 26 -11 33 0 rrcurveto
          577 633 rmoveto
          19 0 19 8 18 15 rrcurveto
          292 284 rlineto
          12 12 8 12 3 11 3 11 2 12 0 14 0 29 -9 25 -19 21 -19 21 -26 11 -33 1 -33 0 -27 -12 -20 -24 rrcurveto
          -256 -316 rlineto
          -13 -17 -6 -17 0 -19 3 -52 28 -27 54 -3 rrcurveto
          endchar
        </CharString>
        <CharString name="period">
          0 604 -30 rmoveto
          43 0 38 16 31 33 31 32 15 38 0 45 0 46 -15 39 -31 33 -31 32 -38 16 -43 0 -47 0 -39 -16 -31 -32 -31 -33 -16 -39 0 -46 0 -45 16 -38 31 -32 31 -33 39 -16 47 0 rrcurveto
          endchar
        </CharString>
        <CharString name="period_period">
          0 -426 -30 rmoveto
          43 0 38 16 31 33 31 32 15 38 0 45 0 46 -15 39 -31 33 -31 32 -38 16 -43 0 -47 0 -39 -16 -31 -32 -31 -33 -16 -39 0 -46 0 -45 16 -38 31 -32 31 -33 39 -16 47 0 rrcurveto
          860 hmoveto
          43 0 38 16 31 33 31 32 15 38 0 45 0 46 -15 39 -31 33 -31 32 -38 16 -43 0 -47 0 -39 -16 -31 -32 -31 -33 -16 -39 0 -46 0 -45 16 -38 31 -32 31 -33 39 -16 47 0 rrcurveto
          endchar
        </CharString>
        <CharString name="period_period_period">
          0 -1356 -30 rmoveto
          43 0 38 16 31 33 31 32 15 38 0 45 0 46 -15 39 -31 33 -31 32 -38 16 -43 0 -47 0 -39 -16 -31 -32 -31 -33 -16 -39 0 -46 0 -45 16 -38 31 -32 31 -33 39 -16 47 0 rrcurveto
          1520 hmoveto
          43 0 38 16 31 33 31 32 15 38 0 45 0 46 -15 39 -31 33 -31 32 -38 16 -43 0 -47 0 -39 -16 -31 -32 -31 -33 -16 -39 0 -46 0 -45 16 -38 31 -32 31 -33 39 -16 47 0 rrcurveto
          -760 hmoveto
          43 0 38 16 31 33 31 32 15 38 0 45 0 46 -15 39 -31 33 -31 32 -38 16 -43 0 -47 0 -39 -16 -31 -32 -31 -33 -16 -39 0 -46 0 -45 16 -38 31 -32 31 -33 39 -16 47 0 rrcurveto
          endchar
        </CharString>
        <CharString name="placeholder">
          0 endchar
        </CharString>
        <CharString name="plus">
          0 600 169 rmoveto
          25 0 21 9 18 18 17 18 9 21 0 25 rrcurveto
          250 250 vlineto
          25 0 21 9 18 18 17 17 9 21 0 25 0 25 -9 21 -17 18 -18 17 -21 9 -25 0 rrcurveto
          -250 250 hlineto
          0 25 -9 21 -17 18 -18 17 -21 9 -25 0 -25 0 -21 -9 -17 -17 -18 -18 -9 -21 0 -25 rrcurveto
          -250 -250 vlineto
          -25 0 -21 -9 -17 -17 -18 -18 -9 -21 0 -25 0 -25 9 -21 18 -17 17 -18 21 -9 25 0 rrcurveto
          250 -250 hlineto
          0 -25 9 -21 18 -18 17 -18 21 -9 25 0 rrcurveto
          endchar
        </CharString>
        <CharString name="plus_plus">
          0 480 169 rmoveto
          25 0 21 9 18 18 17 18 9 21 0 25 rrcurveto
          250 250 vlineto
          25 0 21 9 18 18 17 17 9 21 0 25 0 25 -9 21 -17 18 -18 17 -21 9 -25 0 rrcurveto
          -250 250 hlineto
          0 25 -9 21 -17 18 -18 17 -21 9 -25 0 -25 0 -21 -9 -17 -17 -18 -18 -9 -21 0 -25 rrcurveto
          -250 -780 250 vlineto
          0 25 -9 21 -17 18 -18 17 -21 9 -25 0 -25 0 -21 -9 -17 -17 -18 -18 -9 -21 0 -25 rrcurveto
          -250 -250 vlineto
          -25 0 -21 -9 -17 -17 -18 -18 -9 -21 0 -25 0 -25 9 -21 18 -17 17 -18 21 -9 25 0 rrcurveto
          250 -250 hlineto
          0 -25 9 -21 18 -18 17 -18 21 -9 25 0 25 0 21 9 18 18 17 18 9 21 0 25 rrcurveto
          250 780 -250 vlineto
          0 -25 9 -21 18 -18 17 -18 21 -9 25 0 rrcurveto
          endchar
        </CharString>
        <CharString name="plus_plus_plus">
          0 360 169 rmoveto
          25 0 21 9 18 18 17 18 9 21 0 25 rrcurveto
          250 250 vlineto
          25 0 21 9 18 18 17 17 9 21 0 25 0 25 -9 21 -17 18 -18 17 -21 9 -25 0 rrcurveto
          -250 250 hlineto
          0 25 -9 21 -17 18 -18 17 -21 9 -25 0 -25 0 -21 -9 -17 -17 -18 -18 -9 -21 0 -25 rrcurveto
          -250 -780 250 vlineto
          0 25 -9 21 -17 18 -18 17 -21 9 -25 0 -25 0 -21 -9 -17 -17 -18 -18 -9 -21 0 -25 rrcurveto
          -250 -780 250 vlineto
          0 25 -9 21 -17 18 -18 17 -21 9 -25 0 -25 0 -21 -9 -17 -17 -18 -18 -9 -21 0 -25 rrcurveto
          -250 -250 vlineto
          -25 0 -21 -9 -17 -17 -18 -18 -9 -21 0 -25 0 -25 9 -21 18 -17 17 -18 21 -9 25 0 rrcurveto
          250 -250 hlineto
          0 -25 9 -21 18 -18 17 -18 21 -9 25 0 25 0 21 9 18 18 17 18 9 21 0 25 rrcurveto
          250 780 -250 vlineto
          0 -25 9 -21 18 -18 17 -18 21 -9 25 0 25 0 21 9 18 18 17 18 9 21 0 25 rrcurveto
          250 780 -250 vlineto
          0 -25 9 -21 18 -18 17 -18 21 -9 25 0 rrcurveto
          endchar
        </CharString>
        <CharString name="q">
          0 578 161 rmoveto
          -87 0 -67 30 -47 61 -39 52 -19 102 0 151 0 218 86 111 171 4 65 0 59 -24 53 -48 52 -48 26 -63 0 -78 rrcurveto
          -213 vlineto
          0 -64 -26 -60 -51 -56 -47 -50 -59 -25 -70 0 rrcurveto
          341 -649 rmoveto
          24 0 21 9 19 17 19 17 9 23 0 28 rrcurveto
          1382 vlineto
          0 28 -9 22 -17 17 -17 17 -22 8 -25 0 -55 0 -28 -24 -2 -47 -2 -37 -7 -18 -13 0 -8 0 -7 4 -6 7 -63 77 -77 38 -89 0 -276 0 -138 -181 0 -363 0 -202 37 -145 74 -88 rrcurveto
          74 -88 96 -44 119 0 85 0 71 23 57 46 14 11 12 6 11 0 20 0 10 -13 0 -25 rrcurveto
          -411 vlineto
          0 -28 9 -23 19 -17 18 -17 20 -9 23 0 rrcurveto
          endchar
        </CharString>
        <CharString name="quadrantlowerleft">
          0 -600 vmoveto
          600 1320 -600 hlineto
          endchar
        </CharString>
        <CharString name="quadrantlowerright">
          0 600 -600 rmoveto
          600 1320 -600 hlineto
          endchar
        </CharString>
        <CharString name="quadrantupperleft">
          0 720 vmoveto
          600 1320 -600 hlineto
          endchar
        </CharString>
        <CharString name="quadrantupperleftandlowerleftandlowerright">
          0 -600 vmoveto
          1200 1320 -600 1320 -600 hlineto
          endchar
        </CharString>
        <CharString name="quadrantupperleftandlowerright">
          0 720 vmoveto
          600 1320 -600 hlineto
          600 -2640 rmoveto
          600 1320 -600 hlineto
          endchar
        </CharString>
        <CharString name="quadrantupperleftandupperrightandlowerleft">
          0 -600 vmoveto
          600 1320 600 1320 -1200 hlineto
          endchar
        </CharString>
        <CharString name="quadrantupperleftandupperrightandlowerright">
          0 600 -600 rmoveto
          600 2640 -1220 -1320 620 hlineto
          endchar
        </CharString>
        <CharString name="quadrantupperright">
          0 600 720 rmoveto
          600 1320 -600 hlineto
          endchar
        </CharString>
        <CharString name="quadrantupperrightandlowerleft">
          0 600 720 rmoveto
          600 1320 -600 hlineto
          -600 -2640 rmoveto
          600 1320 -600 hlineto
          endchar
        </CharString>
        <CharString name="quadrantupperrightandlowerleftandlowerright">
          0 -600 vmoveto
          1200 2640 -600 -1320 -600 hlineto
          endchar
        </CharString>
        <CharString name="question">
          0 604 -30 rmoveto
          43 0 38 16 31 33 31 32 15 38 0 45 0 46 -15 39 -31 33 -31 32 -38 16 -43 0 -47 0 -39 -16 -31 -32 -31 -33 -16 -39 0 -46 0 -45 16 -38 31 -32 31 -33 39 -16 47 0 rrcurveto
          -4 492 rmoveto
          54 0 31 29 7 59 7 59 44 67 80 76 91 89 46 116 0 143 0 111 -30 90 -61 68 -61 67 -91 34 -121 0 -173 0 -114 -74 -53 -147 -11 -27 -5 -24 0 -21 0 -62 29 -31 59 -1 rrcurveto
          17 0 15 4 14 9 14 9 16 22 17 37 39 83 58 41 76 0 131 -1 66 -65 2 -129 0 -82 -36 -73 -71 -64 -60 -57 -45 -48 -31 -41 -31 -41 -15 -51 0 -60 0 -76 32 -38 64 0 rrcurveto
          endchar
        </CharString>
        <CharString name="question_question">
          0 -456 -30 rmoveto
          43 0 38 16 31 33 31 32 15 38 0 45 0 46 -15 39 -31 33 -31 32 -38 16 -43 0 -47 0 -39 -16 -31 -32 -31 -33 -16 -39 0 -46 0 -45 16 -38 31 -32 31 -33 39 -16 47 0 rrcurveto
          916 492 rmoveto
          54 0 31 29 7 59 7 59 44 67 80 76 91 89 46 116 0 143 0 111 -30 90 -61 68 -61 67 -91 34 -121 0 -173 0 -114 -74 -53 -147 -11 -27 -5 -24 0 -21 0 -62 29 -31 59 -1 rrcurveto
          17 0 15 4 14 9 14 9 16 22 17 37 39 83 58 41 76 0 131 -1 66 -65 2 -129 0 -82 -36 -73 -71 -64 -60 -57 -45 -48 -31 -41 -31 -41 -15 -51 0 -60 0 -76 32 -38 64 0 rrcurveto
          4 -492 rmoveto
          43 0 38 16 31 33 31 32 15 38 0 45 0 46 -15 39 -31 33 -31 32 -38 16 -43 0 -47 0 -39 -16 -31 -32 -31 -33 -16 -39 0 -46 0 -45 16 -38 31 -32 31 -33 39 -16 47 0 rrcurveto
          -924 492 rmoveto
          54 0 31 29 7 59 7 59 44 67 80 76 91 89 46 116 0 143 0 111 -30 90 -61 68 -61 67 -91 34 -121 0 -173 0 -114 -74 -53 -147 -11 -27 -5 -24 0 -21 0 -62 29 -31 59 -1 rrcurveto
          17 0 15 4 14 9 14 9 16 22 17 37 39 83 58 41 76 0 131 -1 66 -65 2 -129 0 -82 -36 -73 -71 -64 -60 -57 -45 -48 -31 -41 -31 -41 -15 -51 0 -60 0 -76 32 -38 64 0 rrcurveto
          endchar
        </CharString>
        <CharString name="quotedbl">
          0 760 1020 rmoveto
          24 0 21 9 18 18 18 18 9 21 0 24 rrcurveto
          310 vlineto
          0 24 -9 21 -18 18 -18 18 -21 9 -24 0 -24 0 -21 -9 -18 -18 -18 -18 -9 -21 0 -24 rrcurveto
          -310 vlineto
          0 -24 9 -21 18 -18 18 -18 21 -9 24 0 rrcurveto
          -319 hmoveto
          24 0 21 9 18 18 18 18 9 21 0 24 rrcurveto
          310 vlineto
          0 24 -9 21 -18 18 -18 18 -21 9 -24 0 -24 0 -21 -9 -18 -18 -18 -18 -9 -21 0 -24 rrcurveto
          -310 vlineto
          0 -24 9 -21 18 -18 18 -18 21 -9 24 0 rrcurveto
          endchar
        </CharString>
        <CharString name="quotesingle">
          0 601 1020 rmoveto
          24 0 21 9 18 18 18 18 9 21 0 24 rrcurveto
          310 vlineto
          0 24 -9 21 -18 18 -18 18 -21 9 -24 0 -24 0 -21 -9 -18 -18 -18 -18 -9 -21 0 -24 rrcurveto
          -310 vlineto
          0 -24 9 -21 18 -18 18 -18 21 -9 24 0 rrcurveto
          endchar
        </CharString>
        <CharString name="r">
          0 312 -30 rmoveto
          24 0 21 9 17 17 17 17 9 21 0 27 rrcurveto
          519 vlineto
          0 81 39 72 79 65 78 64 72 32 67 0 93 0 53 -53 14 -106 4 -27 11 -19 17 -13 17 -13 21 -6 24 0 23 0 19 9 15 17 15 17 8 22 0 26 0 117 -29 84 -58 53 rrcurveto
          -58 52 -77 26 -95 0 -117 0 -104 -51 -91 -103 -9 -10 -7 -5 -5 0 -13 0 -6 10 0 20 rrcurveto
          49 vlineto
          0 25 -9 22 -18 17 -18 17 -22 9 -27 0 -24 0 -20 -9 -17 -17 -17 -17 -8 -22 0 -25 rrcurveto
          -929 vlineto
          0 -27 8 -21 17 -17 17 -17 22 -9 28 0 rrcurveto
          endchar
        </CharString>
        <CharString name="referencemark">
          0 600 125 rmoveto
          35 0 29 12 25 25 25 25 12 29 0 34 0 37 -12 30 -24 24 -24 24 -30 12 -36 0 -34 0 -29 -12 -24 -24 -25 -24 -12 -30 0 -37 0 -34 12 -29 25 -25 25 -25 29 -12 33 0 rrcurveto
          896 vmoveto
          35 0 29 12 25 25 25 25 12 30 0 35 0 37 -12 30 -24 24 -24 24 -30 12 -36 0 -34 0 -29 -12 -24 -24 -25 -24 -12 -30 0 -37 0 -35 12 -30 25 -25 25 -25 29 -12 33 0 rrcurveto
          -452 -866 rmoveto
          24 0 21 10 17 20 rrcurveto
          392 392 393 -393 rlineto
          19 -19 21 -9 22 0 22 0 21 10 19 19 19 19 9 21 0 23 0 21 -10 21 -20 19 rrcurveto
          -392 390 392 393 rlineto
          18 18 9 20 0 23 0 22 -9 20 -19 19 -19 18 -20 9 -23 0 -22 0 -20 -9 -17 -17 rrcurveto
          -393 -393 -392 393 rlineto
          -18 17 -21 9 -23 0 -21 0 -20 -9 -19 -18 -19 -19 -9 -20 0 -22 0 -23 10 -21 20 -18 rrcurveto
          389 -392 -389 -392 rlineto
          -20 -17 -10 -21 0 -24 0 -21 9 -21 19 -19 18 -19 20 -10 22 0 rrcurveto
          4 416 rmoveto
          35 0 29 12 25 25 25 25 12 30 0 35 0 37 -12 30 -24 24 -25 24 -30 12 -35 0 -33 0 -29 -12 -24 -24 -24 -24 -12 -30 0 -37 0 -35 12 -30 25 -25 25 -25 28 -12 32 0 rrcurveto
          894 hmoveto
          33 0 29 12 25 25 25 25 12 30 0 35 0 37 -12 30 -24 24 -25 24 -29 12 -34 0 -35 0 -29 -12 -24 -24 -24 -24 -12 -30 0 -37 0 -35 12 -30 25 -25 25 -25 29 -12 33 0 rrcurveto
          endchar
        </CharString>
        <CharString name="right_arrow_double">
          0 383 51 rmoveto
          22 0 21 9 20 17 rrcurveto
          457 457 rlineto
          18 19 9 22 0 24 0 24 -9 21 -18 19 rrcurveto
          -457 458 rlineto
          -20 17 -21 9 -22 0 -25 0 -21 -9 -17 -17 -18 -17 -9 -22 0 -25 0 -22 9 -21 17 -21 40 -39 20 -22 1 -3 1 -3 1 -4 0 -4 0 -7 -3 -7 -5 -5 -6 -6 -7 -3 -7 0 rrcurveto
          -1294 hlineto
          -24 0 -21 -9 -18 -17 -18 -17 -9 -22 0 -25 0 -25 9 -21 19 -17 18 -18 21 -9 23 0 rrcurveto
          1343 hlineto
          23 0 22 9 19 17 rrcurveto
          33 33 rlineto
          6 6 7 3 8 0 8 0 7 -3 7 -6 rrcurveto
          149 -149 rlineto
          6 -6 3 -7 0 -8 0 -8 -3 -7 -6 -7 rrcurveto
          -147 -146 rlineto
          -7 -6 -7 -3 -8 0 -8 0 -7 3 -7 6 rrcurveto
          -32 33 rlineto
          -19 18 -22 9 -24 0 rrcurveto
          -1344 hlineto
          -24 0 -21 -9 -18 -17 -18 -17 -9 -22 0 -25 0 -25 9 -21 19 -17 18 -18 21 -9 23 0 rrcurveto
          1296 hlineto
          7 0 7 -3 6 -6 6 -6 3 -7 0 -8 0 -7 -3 -6 -5 -6 -19 -19 -19 -19 -18 -19 -19 -19 -9 -21 0 -24 0 -25 9 -21 18 -17 17 -18 21 -9 25 0 rrcurveto
          endchar
        </CharString>
        <CharString name="right_arrow_double_long">
          0 383 51 rmoveto
          22 0 21 9 20 17 rrcurveto
          457 457 rlineto
          18 19 9 22 0 24 0 24 -9 21 -18 19 rrcurveto
          -457 458 rlineto
          -20 17 -21 9 -22 0 -25 0 -21 -9 -17 -17 -18 -17 -9 -22 0 -25 0 -22 9 -21 17 -21 40 -39 20 -22 1 -3 1 -3 1 -4 0 -4 0 -7 -3 -7 -5 -5 -6 -6 -7 -3 -7 0 rrcurveto
          -2494 hlineto
          -24 0 -21 -9 -18 -17 -18 -17 -9 -22 0 -25 0 -25 9 -21 19 -17 18 -18 21 -9 23 0 rrcurveto
          2543 hlineto
          23 0 22 9 19 17 rrcurveto
          33 33 rlineto
          6 6 7 3 8 0 8 0 7 -3 7 -6 rrcurveto
          149 -149 rlineto
          6 -6 3 -7 0 -8 0 -8 -3 -7 -6 -7 rrcurveto
          -147 -146 rlineto
          -7 -6 -7 -3 -8 0 -8 0 -7 3 -7 6 rrcurveto
          -32 33 rlineto
          -19 18 -22 9 -24 0 rrcurveto
          -2544 hlineto
          -24 0 -21 -9 -18 -17 -18 -17 -9 -22 0 -25 0 -25 9 -21 19 -17 18 -18 21 -9 23 0 rrcurveto
          2496 hlineto
          7 0 7 -3 6 -6 6 -6 3 -7 0 -8 0 -7 -3 -6 -5 -6 -19 -19 -19 -19 -18 -19 -19 -19 -9 -21 0 -24 0 -25 9 -21 18 -17 17 -18 21 -9 25 0 rrcurveto
          endchar
        </CharString>
        <CharString name="right_arrow_single">
          0 581 478 rmoveto
          -8 0 -7 3 -7 6 rrcurveto
          -89 88 rlineto
          -6 7 -3 7 0 8 0 8 3 7 6 6 rrcurveto
          89 89 rlineto
          7 6 7 3 8 0 8 0 7 -3 7 -6 rrcurveto
          88 -89 rlineto
          7 -6 3 -7 0 -8 0 -8 -3 -7 -7 -7 rrcurveto
          -88 -88 rlineto
          -7 -6 -7 -3 -8 0 rrcurveto
          -198 -427 rmoveto
          22 0 21 8 20 17 rrcurveto
          457 457 rlineto
          18 21 9 21 0 23 0 24 -9 21 -18 19 rrcurveto
          -457 459 rlineto
          -20 17 -21 9 -22 0 -23 0 -21 -8 -18 -17 -19 -17 -9 -22 0 -27 0 -23 9 -21 17 -20 rrcurveto
          113 -113 rlineto
          6 -7 3 -7 0 -7 0 -8 -3 -7 -6 -7 rrcurveto
          -114 -114 rlineto
          -9 -9 -12 -7 -15 -6 -15 -7 -14 -3 -13 0 rrcurveto
          -1180 hlineto
          -25 0 -21 -9 -17 -17 -18 -18 -9 -21 0 -25 0 -25 9 -21 18 -17 17 -18 21 -9 25 0 rrcurveto
          1180 hlineto
          13 0 14 -3 15 -6 15 -7 12 -7 9 -9 rrcurveto
          114 -117 rlineto
          6 -7 3 -7 0 -8 0 -8 -3 -7 -6 -7 rrcurveto
          -113 -113 rlineto
          -17 -20 -9 -21 0 -22 0 -25 9 -22 17 -17 17 -17 22 -9 25 0 rrcurveto
          endchar
        </CharString>
        <CharString name="right_arrow_single_long">
          0 581 478 rmoveto
          -8 0 -7 3 -7 6 rrcurveto
          -89 88 rlineto
          -6 7 -3 7 0 8 0 8 3 7 6 6 rrcurveto
          89 89 rlineto
          7 6 7 3 8 0 8 0 7 -3 7 -6 rrcurveto
          88 -89 rlineto
          7 -6 3 -7 0 -8 0 -8 -3 -7 -7 -7 rrcurveto
          -88 -88 rlineto
          -7 -6 -7 -3 -8 0 rrcurveto
          -198 -427 rmoveto
          22 0 21 8 20 17 rrcurveto
          457 457 rlineto
          18 21 9 21 0 23 0 24 -9 21 -18 19 rrcurveto
          -457 459 rlineto
          -20 17 -21 9 -22 0 -23 0 -21 -8 -18 -17 -19 -17 -9 -22 0 -27 0 -23 9 -21 17 -20 rrcurveto
          113 -113 rlineto
          6 -7 3 -7 0 -7 0 -8 -3 -7 -6 -7 rrcurveto
          -114 -114 rlineto
          -9 -9 -12 -7 -15 -6 -15 -7 -14 -3 -13 0 rrcurveto
          -2380 hlineto
          -25 0 -21 -9 -17 -17 -18 -18 -9 -21 0 -25 0 -25 9 -21 18 -17 17 -18 21 -9 25 0 rrcurveto
          2380 hlineto
          13 0 14 -3 15 -6 15 -7 12 -7 9 -9 rrcurveto
          114 -117 rlineto
          6 -7 3 -7 0 -8 0 -8 -3 -7 -6 -7 rrcurveto
          -113 -113 rlineto
          -17 -20 -9 -21 0 -22 0 -25 9 -22 17 -17 17 -17 22 -9 25 0 rrcurveto
          endchar
        </CharString>
        <CharString name="righthalfblock">
          0 600 -600 rmoveto
          600 2640 -600 hlineto
          endchar
        </CharString>
        <CharString name="rightoneeighthblock">
          0 1050 -600 rmoveto
          150 2640 -150 hlineto
          endchar
        </CharString>
        <CharString name="rightwardsarrow">
          0 466 70 rmoveto
          212 hlineto
          462 590 -464 590 rlineto
          -210 hlineto
          324 -408 rlineto
          17 -20 17 -19 17 -17 17 -17 13 -13 9 -8 rrcurveto
          -18 vlineto
          -17 3 -22 2 -27 2 -27 2 -24 1 -23 0 rrcurveto
          -660 -160 660 hlineto
          23 0 24 1 27 2 27 2 22 2 17 1 rrcurveto
          -18 vlineto
          -12 -9 -15 -13 -17 -17 -17 -17 -16 -17 -13 -17 rrcurveto
          endchar
        </CharString>
        <CharString name="s">
          0 603 -30 rmoveto
          118 0 99 29 80 57 80 57 40 78 0 100 0 87 -33 69 -67 51 -67 50 -101 39 -133 27 -87 19 -60 22 -34 24 -34 24 -17 29 0 35 0 35 19 30 37 25 37 24 52 12 65 0 rrcurveto
          55 0 45 -11 37 -22 37 -22 24 -26 13 -31 18 -41 29 -21 39 0 27 0 23 11 19 21 19 21 9 24 0 28 0 55 -33 54 -65 54 -76 62 -99 31 -121 0 -116 0 -96 -31 -75 -61 rrcurveto
          -76 -61 -38 -75 0 -89 0 -172 132 -112 263 -52 157 -27 78 -50 0 -71 0 -33 -18 -28 -37 -25 -37 -25 -56 -12 -75 0 -126 0 -81 40 -36 81 -19 41 -31 21 -44 0 -27 0 -22 -9 -15 -18 rrcurveto
          -15 -18 -8 -23 0 -28 0 -19 4 -19 8 -17 31 -65 50 -52 69 -40 68 -41 87 -20 107 0 rrcurveto
          endchar
        </CharString>
        <CharString name="section">
          0 938 345 rmoveto
          69 78 35 80 0 82 0 106 -39 83 -77 60 -47 43 -92 43 -135 45 -81 26 -58 27 -35 28 -35 28 -18 38 0 49 0 49 20 36 41 23 40 23 49 12 58 0 85 0 77 -12 71 -23 rrcurveto
          9 -3 8 -1 8 0 50 0 28 28 6 57 0 21 -6 17 -11 15 -12 15 -15 9 -18 5 -98 23 -93 11 -87 0 -130 0 -100 -29 -69 -57 -69 -58 -35 -78 0 -99 0 -71 25 -64 51 -57 rrcurveto
          25 -27 rlineto
          31 -33 52 -28 71 -25 rrcurveto
          98 -37 rlineto
          77 -27 64 -29 53 -31 52 -32 26 -49 0 -66 0 -60 -19 -49 -37 -38 57 -19 46 -25 34 -33 rrcurveto
          -387 -641 rmoveto
          142 0 110 27 79 55 78 55 39 81 0 109 0 158 -114 114 -229 70 -95 29 -76 31 -57 34 -57 34 -29 52 0 71 0 61 18 49 36 36 -39 9 -45 28 -50 46 -13 -13 -14 -19 -17 -25 rrcurveto
          -17 -25 -15 -29 -11 -32 -11 -33 -6 -35 0 -37 0 -107 37 -83 73 -59 55 -44 81 -40 108 -37 105 -29 76 -33 45 -35 41 -28 21 -40 0 -51 0 -99 -82 -52 -165 -4 -108 0 -75 10 -41 20 rrcurveto
          -19 10 -21 5 -21 0 -55 0 -28 -28 0 -57 0 -80 122 -40 244 0 rrcurveto
          endchar
        </CharString>
        <CharString name="semicolon">
          0 605 751 rmoveto
          43 0 38 16 31 32 31 32 15 39 0 45 0 46 -15 39 -31 32 -31 32 -38 16 -43 0 -47 0 -39 -16 -31 -32 -31 -32 -16 -39 0 -46 0 -45 16 -39 31 -32 31 -32 39 -16 47 0 rrcurveto
          -234 -1164 rmoveto
          147 15 113 58 79 101 57 74 29 84 0 93 0 106 -27 80 -53 53 -33 33 -39 16 -43 0 -59 0 -43 -22 -26 -43 -17 -24 -9 -27 0 -30 0 -47 19 -43 39 -37 38 -38 19 -38 0 -39 rrcurveto
          0 -35 -18 -32 -35 -29 -36 -29 -49 -18 -62 -8 -56 -7 -28 -32 0 -57 5 -52 31 -26 57 0 rrcurveto
          endchar
        </CharString>
        <CharString name="seven">
          0 453 -30 rmoveto
          37 0 29 19 19 37 rrcurveto
          521 1178 rlineto
          7 20 3 18 0 17 0 41 -14 36 -29 30 -29 29 -35 15 -41 0 rrcurveto
          -698 hlineto
          -24 0 -21 -9 -18 -17 -19 -18 -9 -21 0 -25 0 -25 9 -22 19 -18 18 -18 21 -9 24 0 405 0 205 0 5 -1 13 -2 6 -8 0 -14 0 -3 -82 -186 -165 -368 -167 -372 -83 -189 -1 -6 rrcurveto
          -1 -7 -1 -6 0 -5 0 -27 9 -22 18 -17 18 -17 23 -8 28 0 rrcurveto
          endchar
        </CharString>
        <CharString name="six">
          0 600 150 rmoveto
          -57 0 -47 16 -37 33 -38 32 -28 40 -19 48 -19 47 -9 47 0 47 0 63 11 48 22 35 40 54 53 32 69 11 29 5 29 2 27 0 77 0 58 -22 40 -44 39 -45 20 -62 0 -81 rrcurveto
          0 -54 -10 -50 -19 -47 -20 -47 -29 -37 -39 -28 -39 -29 -47 -14 -57 0 rrcurveto
          -180 vmoveto
          97 0 81 23 65 45 65 45 50 62 33 77 33 77 16 85 0 95 0 95 -18 78 -35 61 -36 61 -48 44 -60 29 -61 29 -67 14 -75 0 -48 0 -46 -7 -43 -14 -44 -15 -36 -17 -29 -20 rrcurveto
          -4 -3 -4 -1 -5 0 -12 0 -6 9 0 18 0 42 16 55 33 69 46 91 69 69 93 45 33 15 36 10 39 5 59 7 49 4 39 0 25 1 20 10 17 17 16 17 8 20 0 25 rrcurveto
          0 23 -8 20 -17 18 -17 18 -20 9 -24 0 rrcurveto
          -39 hlineto
          -152 0 -126 -33 -99 -67 -100 -67 -75 -92 -49 -119 -49 -119 -25 -138 0 -157 0 -157 17 -127 35 -98 34 -99 50 -72 65 -46 65 -46 80 -23 93 0 rrcurveto
          endchar
        </CharString>
        <CharString name="slash">
          0 240 -200 rmoveto
          17 0 16 5 15 10 15 9 12 13 7 17 rrcurveto
          720 1620 rlineto
          5 13 3 12 0 12 0 17 -5 16 -9 15 -17 27 -26 14 -33 0 -17 0 -16 -5 -15 -9 -15 -9 -12 -13 -7 -17 rrcurveto
          -720 -1620 rlineto
          -5 -13 -3 -12 0 -11 0 -17 5 -17 10 -15 17 -28 25 -14 33 0 rrcurveto
          endchar
        </CharString>
        <CharString name="slash_asterisk">
          0 600 451 rmoveto
          25 0 21 9 18 18 17 17 9 21 0 25 rrcurveto
          252 vlineto
          219 -121 rlineto
          15 -7 14 -4 15 0 25 0 22 9 18 18 17 17 9 21 0 24 0 31 -15 26 -30 21 rrcurveto
          -219 122 219 122 rlineto
          30 21 15 26 0 31 0 24 -9 21 -17 18 -18 17 -22 9 -25 0 -15 0 -14 -4 -15 -7 rrcurveto
          -219 -122 rlineto
          252 vlineto
          0 25 -9 21 -17 18 -18 17 -21 9 -25 0 -25 0 -21 -9 -17 -17 -18 -18 -9 -21 0 -25 rrcurveto
          -252 vlineto
          -219 122 rlineto
          -14 7 -15 4 -15 0 -25 0 -21 -9 -18 -17 -18 -18 -9 -21 0 -24 0 -34 15 -26 30 -18 rrcurveto
          219 -122 -219 -122 rlineto
          -30 -21 -15 -27 0 -31 0 -24 9 -21 18 -17 18 -18 21 -9 25 0 15 0 15 4 14 7 rrcurveto
          219 122 rlineto
          -252 vlineto
          0 -25 9 -21 18 -17 17 -18 21 -9 25 0 rrcurveto
          -1360 -651 rmoveto
          17 0 16 5 15 10 15 9 12 13 7 17 rrcurveto
          720 1623 rlineto
          5 13 3 12 0 12 0 17 -5 16 -9 15 -17 27 -26 14 -33 0 -17 0 -16 -5 -15 -9 -15 -9 -12 -13 -7 -17 rrcurveto
          -720 -1623 rlineto
          -5 -13 -3 -12 0 -11 0 -17 5 -17 10 -15 17 -28 25 -14 33 0 rrcurveto
          endchar
        </CharString>
        <CharString name="slash_asterisk_asterisk">
          0 440 451 rmoveto
          25 0 21 9 18 18 17 17 9 21 0 25 rrcurveto
          252 vlineto
          219 -121 rlineto
          15 -7 14 -4 15 0 25 0 22 9 18 18 17 17 9 21 0 24 0 31 -15 26 -30 21 rrcurveto
          -219 122 219 122 rlineto
          30 21 15 26 0 31 0 24 -9 21 -17 18 -18 17 -22 9 -25 0 -15 0 -14 -4 -15 -7 rrcurveto
          -219 -122 rlineto
          252 vlineto
          0 25 -9 21 -17 18 -18 17 -21 9 -25 0 -25 0 -21 -9 -17 -17 -18 -18 -9 -21 0 -25 rrcurveto
          -252 vlineto
          -219 122 rlineto
          -14 7 -15 4 -15 0 -25 0 -21 -9 -18 -17 -18 -18 -9 -21 0 -24 0 -34 15 -26 30 -18 rrcurveto
          219 -122 -219 -122 rlineto
          -30 -21 -15 -27 0 -31 0 -24 9 -21 18 -17 18 -18 21 -9 25 0 15 0 15 4 14 7 rrcurveto
          219 122 rlineto
          -252 vlineto
          0 -25 9 -21 18 -17 17 -18 21 -9 25 0 rrcurveto
          -2400 -651 rmoveto
          17 0 16 5 15 10 15 9 12 13 7 17 rrcurveto
          720 1623 rlineto
          5 13 3 12 0 12 0 17 -5 16 -9 15 -17 27 -26 14 -33 0 -17 0 -16 -5 -15 -9 -15 -9 -12 -13 -7 -17 rrcurveto
          -720 -1623 rlineto
          -5 -13 -3 -12 0 -11 0 -17 5 -17 10 -15 17 -28 25 -14 33 0 rrcurveto
          1360 651 rmoveto
          25 0 21 9 18 18 17 17 9 21 0 25 rrcurveto
          252 vlineto
          219 -121 rlineto
          15 -7 14 -4 15 0 25 0 22 9 18 18 17 17 9 21 0 24 0 31 -15 26 -30 21 rrcurveto
          -219 122 219 122 rlineto
          30 21 15 26 0 31 0 24 -9 21 -17 18 -18 17 -22 9 -25 0 -15 0 -14 -4 -15 -7 rrcurveto
          -219 -122 rlineto
          252 vlineto
          0 25 -9 21 -17 18 -18 17 -21 9 -25 0 -25 0 -21 -9 -17 -17 -18 -18 -9 -21 0 -25 rrcurveto
          -252 vlineto
          -219 122 rlineto
          -14 7 -15 4 -15 0 -25 0 -21 -9 -18 -17 -18 -18 -9 -21 0 -24 0 -34 15 -26 30 -18 rrcurveto
          219 -122 -219 -122 rlineto
          -30 -21 -15 -27 0 -31 0 -24 9 -21 18 -17 18 -18 21 -9 25 0 15 0 15 4 14 7 rrcurveto
          219 122 rlineto
          -252 vlineto
          0 -25 9 -21 18 -17 17 -18 21 -9 25 0 rrcurveto
          endchar
        </CharString>
        <CharString name="slash_greater">
          0 -748 -330 rmoveto
          17 0 16 5 15 10 15 9 12 13 7 17 rrcurveto
          582 1308 774 -408 rlineto
          11 -7 6 -8 0 -9 0 -11 -5 -8 -11 -7 rrcurveto
          -475 -254 rlineto
          -35 -21 -17 -28 0 -34 0 -24 9 -21 19 -18 18 -18 21 -9 24 0 13 0 13 3 13 6 rrcurveto
          692 363 rlineto
          33 19 17 27 0 35 0 17 -4 15 -9 15 -9 15 -12 11 -16 8 rrcurveto
          -997 516 123 277 rlineto
          5 13 3 12 0 12 0 17 -5 16 -9 15 -17 27 -26 14 -33 0 -17 0 -16 -5 -15 -9 -15 -9 -12 -13 -7 -17 rrcurveto
          -778 -1750 rlineto
          -5 -13 -3 -12 0 -11 0 -17 5 -17 10 -15 17 -28 25 -14 33 0 rrcurveto
          endchar
        </CharString>
        <CharString name="slash_slash">
          0 90 -200 rmoveto
          17 0 16 5 15 10 15 9 12 13 7 17 rrcurveto
          720 1620 rlineto
          5 13 3 12 0 12 0 17 -5 16 -9 15 -17 27 -26 14 -33 0 -17 0 -16 -5 -15 -9 -15 -9 -12 -13 -7 -17 rrcurveto
          -720 -1620 rlineto
          -5 -13 -3 -12 0 -11 0 -17 5 -17 10 -15 17 -28 25 -14 33 0 rrcurveto
          -900 hmoveto
          17 0 16 5 15 10 15 9 12 13 7 17 rrcurveto
          720 1620 rlineto
          5 13 3 12 0 12 0 17 -5 16 -9 15 -17 27 -26 14 -33 0 -17 0 -16 -5 -15 -9 -15 -9 -12 -13 -7 -17 rrcurveto
          -720 -1620 rlineto
          -5 -13 -3 -12 0 -11 0 -17 5 -17 10 -15 17 -28 25 -14 33 0 rrcurveto
          endchar
        </CharString>
        <CharString name="slash_slash_slash">
          0 -30 -200 rmoveto
          17 0 16 5 15 10 15 9 12 13 7 17 rrcurveto
          720 1620 rlineto
          5 13 3 12 0 12 0 17 -5 16 -9 15 -17 27 -26 14 -33 0 -17 0 -16 -5 -15 -9 -15 -9 -12 -13 -7 -17 rrcurveto
          -720 -1620 rlineto
          -5 -13 -3 -12 0 -11 0 -17 5 -17 10 -15 17 -28 25 -14 33 0 rrcurveto
          -880 hmoveto
          17 0 16 5 15 10 15 9 12 13 7 17 rrcurveto
          720 1620 rlineto
          5 13 3 12 0 12 0 17 -5 16 -9 15 -17 27 -26 14 -33 0 -17 0 -16 -5 -15 -9 -15 -9 -12 -13 -7 -17 rrcurveto
          -720 -1620 rlineto
          -5 -13 -3 -12 0 -11 0 -17 5 -17 10 -15 17 -28 25 -14 33 0 rrcurveto
          0 vmoveto
          17 0 16 5 15 10 15 9 12 13 7 17 rrcurveto
          720 1620 rlineto
          5 13 3 12 0 12 0 17 -5 16 -9 15 -17 27 -26 14 -33 0 -17 0 -16 -5 -15 -9 -15 -9 -12 -13 -7 -17 rrcurveto
          -720 -1620 rlineto
          -5 -13 -3 -12 0 -11 0 -17 5 -17 10 -15 17 -28 25 -14 33 0 rrcurveto
          -880 hmoveto
          17 0 16 5 15 10 15 9 12 13 7 17 rrcurveto
          720 1620 rlineto
          5 13 3 12 0 12 0 17 -5 16 -9 15 -17 27 -26 14 -33 0 -17 0 -16 -5 -15 -9 -15 -9 -12 -13 -7 -17 rrcurveto
          -720 -1620 rlineto
          -5 -13 -3 -12 0 -11 0 -17 5 -17 10 -15 17 -28 25 -14 33 0 rrcurveto
          endchar
        </CharString>
        <CharString name="southeastarrow">
          0 280 150 rmoveto
          830 830 -160 -398 hlineto
          0 -33 2 -33 4 -31 4 -31 3 -25 3 -17 rrcurveto
          -14 -4 rlineto
          -9 15 -15 18 -19 22 -19 22 -19 20 -19 19 rrcurveto
          -710 716 -122 -126 706 -712 rlineto
          19 -17 19 -18 20 -17 20 -17 16 -14 12 -9 rrcurveto
          -2 -14 rlineto
          -15 3 -22 2 -29 2 -29 2 -32 1 -33 0 rrcurveto
          -390 hlineto
          endchar
        </CharString>
        <CharString name="southwestarrow">
          0 90 150 rmoveto
          830 156 -390 hlineto
          -33 0 -32 -1 -29 -2 -29 -2 -22 -2 -15 -3 rrcurveto
          -2 14 rlineto
          12 9 16 14 21 17 21 17 19 18 17 17 rrcurveto
          706 712 -120 122 -710 -716 rlineto
          -19 -19 -18 -20 -19 -22 -19 -22 -14 -18 -11 -15 rrcurveto
          -14 4 rlineto
          3 19 3 25 3 32 3 32 2 33 0 33 rrcurveto
          398 -160 vlineto
          endchar
        </CharString>
        <CharString name="space">
          0 endchar
        </CharString>
        <CharString name="t">
          0 862 -30 rmoveto
          151 0 75 36 0 72 0 24 -8 20 -15 15 -16 15 -21 8 -25 0 -11 0 -12 -2 -13 -5 -14 -5 -20 -2 -25 0 -202 4 -103 92 -4 179 rrcurveto
          378 vlineto
          0 31 16 15 32 0 rrcurveto
          334 hlineto
          27 0 22 9 17 17 17 17 9 22 0 25 0 27 -9 22 -18 18 -18 18 -22 9 -25 0 rrcurveto
          -334 hlineto
          -32 0 -16 15 0 29 rrcurveto
          226 vlineto
          0 29 -9 23 -18 16 -18 16 -21 8 -24 0 -24 0 -21 -9 -18 -17 -18 -17 -9 -22 0 -27 rrcurveto
          -226 vlineto
          0 -29 -15 -15 -29 0 rrcurveto
          -171 hlineto
          -25 0 -22 -9 -18 -18 -18 -18 -9 -22 0 -27 0 -25 9 -22 18 -17 18 -17 22 -9 25 0 rrcurveto
          171 hlineto
          29 0 15 -15 0 -31 rrcurveto
          -420 vlineto
          5 -273 148 -136 290 0 rrcurveto
          endchar
        </CharString>
        <CharString name="tag_todo">
          0 -1995 205 rmoveto
          151 0 108 34 64 68 64 67 32 115 0 163 0 162 -10 116 -19 69 -24 84 -53 56 -81 28 -37 13 -40 7 -44 3 -44 3 -48 1 -51 0 -12 0 -6 -6 0 -11 rrcurveto
          -954 vlineto
          0 -12 6 -6 12 0 rrcurveto
          -1083 -30 rmoveto
          96 0 69 59 42 119 32 93 16 116 0 138 0 140 -16 116 -33 92 -42 118 -69 59 -95 0 -95 0 -69 -58 -42 -117 -33 -91 -16 -117 0 -142 0 -142 16 -116 33 -92 41 -117 68 -58 97 0 rrcurveto
          2540 hmoveto
          96 0 69 59 42 119 32 93 16 116 0 138 0 140 -16 116 -33 92 -42 118 -69 59 -95 0 -95 0 -69 -58 -42 -117 -33 -91 -16 -117 0 -142 0 -142 16 -116 33 -92 41 -117 68 -58 97 0 rrcurveto
          -1425 -200 rmoveto
          -161 hlineto
          -31 0 -28 12 -24 24 -24 24 -12 28 0 31 rrcurveto
          1212 vlineto
          0 31 12 27 24 25 24 24 28 12 31 0 rrcurveto
          200 hlineto
          201 0 152 -51 103 -102 103 -102 51 -161 0 -221 rrcurveto
          -136 vlineto
          0 -161 -23 -130 -47 -99 -47 -99 -72 -73 -96 -46 -96 -46 -121 -23 -147 0 rrcurveto
          -2285 -30 rmoveto
          -30 0 -27 12 -23 24 -23 23 -12 27 0 29 0 753 -1 377 -2 2 -2 2 -87 1 -173 0 -30 0 -27 12 -23 23 -23 23 -12 26 0 30 0 30 12 27 23 24 23 23 27 12 30 0 rrcurveto
          760 hlineto
          30 0 27 -12 23 -23 23 -24 12 -27 0 -30 0 -30 -12 -26 -23 -23 -23 -23 -27 -12 -30 0 -171 0 -87 -1 -3 -2 -3 -3 -1 -5 0 -7 rrcurveto
          -1117 vlineto
          0 -29 -12 -27 -23 -23 -23 -24 -27 -12 -30 0 rrcurveto
          1170 hmoveto
          -153 0 -117 59 -79 119 -91 134 -45 193 0 250 0 61 4 65 8 69 7 69 14 67 20 66 20 66 28 60 37 54 36 53 47 43 57 33 57 33 69 16 82 0 152 0 116 -59 80 -119 rrcurveto
          91 -136 45 -192 0 -249 0 -61 -4 -64 -7 -69 -7 -69 -14 -68 -19 -66 -20 -67 -28 -60 -36 -53 -36 -54 -46 -43 -57 -32 -57 -33 -71 -16 -83 0 rrcurveto
          2540 hmoveto
          -153 0 -117 59 -79 119 -91 134 -45 193 0 250 0 61 4 65 8 69 7 69 14 67 20 66 20 66 28 60 37 54 36 53 47 43 57 33 57 33 69 16 82 0 152 0 116 -59 80 -119 rrcurveto
          91 -136 45 -192 0 -249 0 -61 -4 -64 -7 -69 -7 -69 -14 -68 -19 -66 -20 -67 -28 -60 -36 -53 -36 -54 -46 -43 -57 -32 -57 -33 -71 -16 -83 0 rrcurveto
          741 -215 rmoveto
          177 97 127 103 77 108 133 191 66 217 0 243 rrcurveto
          46 vlineto
          0 228 -66 209 -133 191 -99 141 -127 103 -155 65 rrcurveto
          -5487 -2 rlineto
          -26 0 -22 -9 -18 -18 -19 -19 -9 -22 0 -25 rrcurveto
          -1754 vlineto
          0 -25 9 -22 19 -18 18 -19 22 -9 26 0 rrcurveto
          endchar
        </CharString>
        <CharString name="three">
          0 542 -30 rmoveto
          152 0 117 41 81 83 85 92 42 115 0 139 0 81 -32 70 -63 61 -31 29 -36 24 -41 18 -27 12 -13 13 0 13 0 13 10 12 19 13 99 66 50 96 0 126 0 102 -39 83 -77 63 rrcurveto
          -78 63 -111 32 -145 0 -201 0 -101 -39 0 -78 0 -63 31 -32 61 0 9 0 11 3 12 5 37 16 55 8 72 0 176 0 88 -64 0 -128 0 -69 -27 -55 -55 -43 -62 -51 -93 -25 -123 0 rrcurveto
          -20 0 -17 -7 -15 -14 -15 -14 -7 -20 0 -27 0 -25 7 -19 15 -15 15 -15 17 -7 20 0 289 -7 145 -74 0 -141 -4 -184 -98 -93 -191 -3 -119 0 -78 6 -35 11 -17 5 -20 3 -21 0 rrcurveto
          -7 0 -10 -2 -14 -5 -15 -5 -13 -9 -11 -14 -12 -14 -6 -21 0 -28 0 -23 8 -19 16 -16 34 -33 120 -16 207 0 rrcurveto
          endchar
        </CharString>
        <CharString name="two">
          0 967 hmoveto
          24 0 21 9 19 18 19 18 9 21 0 24 0 24 -9 21 -17 18 -18 18 -21 9 -25 0 rrcurveto
          -523 1 rlineto
          -12 1 -6 7 0 11 0 5 2 5 3 3 rrcurveto
          341 330 rlineto
          79 75 59 71 39 68 39 68 20 81 0 94 0 93 -20 79 -39 64 -40 64 -53 48 -66 33 -67 33 -73 16 -81 0 -136 0 -119 -45 -102 -90 -17 -17 -9 -23 0 -28 0 -33 8 -24 17 -16 rrcurveto
          17 -17 21 -8 26 0 17 0 15 7 13 13 80 65 81 33 80 0 79 0 65 -24 50 -48 50 -49 25 -61 0 -73 0 -89 -29 -73 -57 -57 rrcurveto
          -564 -558 rlineto
          -23 -25 -11 -29 0 -32 0 -35 13 -31 26 -25 25 -25 31 -13 35 0 rrcurveto
          endchar
        </CharString>
        <CharString name="u">
          0 934 -30 rmoveto
          24 0 21 9 19 19 19 19 9 22 0 27 rrcurveto
          920 vlineto
          0 29 -9 23 -17 17 -17 17 -22 8 -27 0 -26 0 -21 -8 -17 -17 -17 -17 -8 -23 0 -29 rrcurveto
          -547 vlineto
          0 -89 -36 -70 -73 -51 -60 -39 -57 -20 -54 -1 -139 0 -70 83 -3 165 rrcurveto
          569 vlineto
          0 29 -8 23 -17 17 -17 17 -23 8 -27 0 -25 0 -21 -8 -16 -17 -17 -17 -8 -23 0 -29 rrcurveto
          -580 vlineto
          0 -157 32 -112 63 -68 59 -65 91 -33 121 0 91 1 89 47 87 91 8 8 7 4 5 0 9 0 5 -8 0 -16 rrcurveto
          -32 vlineto
          0 -27 9 -22 19 -19 19 -19 21 -9 25 0 rrcurveto
          endchar
        </CharString>
        <CharString name="underscore">
          0 920 -270 rmoveto
          25 0 21 9 18 18 17 17 9 21 0 25 0 25 -9 21 -17 18 -18 17 -21 9 -25 0 rrcurveto
          -640 hlineto
          -25 0 -21 -9 -17 -17 -18 -18 -9 -21 0 -25 0 -25 9 -21 18 -17 17 -18 21 -9 25 0 rrcurveto
          endchar
        </CharString>
        <CharString name="updownarrow">
          0 600 -340 rmoveto
          580 494 rlineto
          210 vlineto
          -370 -316 rlineto
          -60 -52 -37 -36 -13 -20 rrcurveto
          -20 hlineto
          3 17 2 24 2 30 2 30 1 30 0 29 rrcurveto
          1260 vlineto
          0 29 -1 30 -2 30 -2 30 -2 24 -3 17 rrcurveto
          20 hlineto
          7 -8 12 -13 18 -19 18 -19 24 -22 29 -25 rrcurveto
          372 -316 rlineto
          210 vlineto
          -580 492 -580 -494 rlineto
          -210 vlineto
          370 316 rlineto
          60 52 37 36 13 20 rrcurveto
          20 hlineto
          -1 -17 -2 -24 -3 -30 -3 -30 -1 -30 0 -29 rrcurveto
          -1260 vlineto
          0 -29 1 -30 3 -30 3 -30 2 -24 1 -17 rrcurveto
          -20 hlineto
          -5 8 -12 13 -19 19 -19 19 -24 22 -29 25 rrcurveto
          -372 316 rlineto
          -210 vlineto
          endchar
        </CharString>
        <CharString name="upperhalfblock">
          0 720 vmoveto
          1200 1320 -1200 hlineto
          endchar
        </CharString>
        <CharString name="upperoneeighthblock">
          0 1710 vmoveto
          1200 330 -1200 hlineto
          endchar
        </CharString>
        <CharString name="upwardsarrow">
          0 510 hmoveto
          180 1040 hlineto
          0 29 -1 30 -2 30 -2 30 -2 24 -3 17 rrcurveto
          20 hlineto
          7 -8 12 -13 18 -19 18 -19 24 -22 29 -25 rrcurveto
          372 -316 rlineto
          210 vlineto
          -578 492 -582 -494 rlineto
          -210 vlineto
          370 316 rlineto
          60 52 37 36 13 20 rrcurveto
          20 hlineto
          -1 -17 -2 -24 -3 -30 -3 -30 -1 -30 0 -29 rrcurveto
          endchar
        </CharString>
        <CharString name="v">
          0 605 -30 rmoveto
          61 1 42 31 23 59 221 608 111 308 0 10 0 24 -9 22 -18 19 -18 19 -22 9 -26 0 -20 0 -18 -5 -16 -11 -17 -11 -11 -15 -7 -19 rrcurveto
          -259 -739 rlineto
          -3 -9 -8 -5 -11 0 -11 0 -8 5 -3 9 rrcurveto
          -258 739 rlineto
          -7 19 -11 15 -16 11 -17 11 -18 5 -20 0 -26 0 -22 -9 -18 -19 -18 -19 -9 -22 0 -24 0 -10 2 -11 4 -11 rrcurveto
          327 -894 rlineto
          10 -28 17 -22 24 -16 23 -17 28 -8 32 0 rrcurveto
          endchar
        </CharString>
        <CharString name="w">
          0 838 -30 rmoveto
          37 0 29 12 21 24 21 23 13 29 3 33 56 597 28 301 0 5 0 57 -27 29 -53 0 -60 0 -32 -29 -4 -59 rrcurveto
          -43 -623 rlineto
          -2 -33 -5 -16 -7 0 -8 0 -8 14 -9 29 rrcurveto
          -99 346 rlineto
          -13 48 -31 24 -47 0 -48 0 -29 -24 -11 -47 rrcurveto
          -81 -338 rlineto
          -7 -29 -8 -14 -8 0 -9 0 -6 16 -3 33 rrcurveto
          -51 615 rlineto
          -6 58 -33 29 -59 0 -58 0 -29 -30 0 -60 0 -7 32 -301 64 -595 4 -33 12 -28 20 -22 19 -23 25 -11 31 0 70 0 43 30 16 60 rrcurveto
          101 390 rlineto
          4 17 4 8 3 0 4 0 4 -8 5 -16 rrcurveto
          103 -389 rlineto
          8 -30 16 -23 24 -15 24 -16 25 -8 25 0 rrcurveto
          endchar
        </CharString>
        <CharString name="x">
          0 945 -30 rmoveto
          23 0 21 9 19 17 19 17 9 22 0 26 0 19 -7 20 -13 19 rrcurveto
          -260 360 rlineto
          -9 11 -4 17 0 22 0 16 4 14 9 12 rrcurveto
          260 358 rlineto
          13 19 7 20 0 22 0 23 -9 21 -19 19 -19 18 -21 9 -23 0 -39 0 -29 -13 -17 -25 rrcurveto
          -230 -344 rlineto
          -7 -11 -11 -5 -13 0 -13 0 -10 5 -7 11 rrcurveto
          -230 344 rlineto
          -17 25 -28 13 -40 0 -23 0 -20 -9 -19 -18 -19 -19 -10 -21 0 -23 0 -21 7 -21 14 -19 rrcurveto
          259 -358 rlineto
          9 -13 4 -15 0 -18 0 -19 -4 -15 -9 -12 rrcurveto
          -260 -360 rlineto
          -13 -19 -7 -20 0 -19 0 -26 9 -22 19 -17 19 -17 21 -9 23 0 39 0 28 13 18 25 rrcurveto
          230 341 rlineto
          9 13 10 7 11 0 11 0 11 -7 9 -13 rrcurveto
          230 -341 rlineto
          17 -25 29 -13 39 0 rrcurveto
          endchar
        </CharString>
        <CharString name="x_center">
          0 913 299 rmoveto
          25 0 21 9 17 17 17 17 8 21 0 25 0 26 -9 21 -17 17 rrcurveto
          -248 248 248 247 rlineto
          17 18 9 21 0 25 0 25 -9 22 -17 17 -17 17 -22 9 -25 0 -25 0 -21 -9 -18 -17 rrcurveto
          -247 -248 -248 248 rlineto
          -17 17 -21 9 -25 0 -25 0 -21 -9 -17 -17 -18 -17 -9 -22 0 -25 0 -25 9 -21 17 -18 rrcurveto
          248 -247 -248 -248 rlineto
          -17 -17 -9 -21 0 -25 0 -25 9 -21 18 -17 17 -18 21 -9 25 0 25 0 21 9 17 17 rrcurveto
          248 248 247 -248 rlineto
          18 -17 22 -9 26 0 rrcurveto
          endchar
        </CharString>
        <CharString name="xml_comment_begin">
          0 -2981 478 rmoveto
          -8 0 -7 3 -7 6 rrcurveto
          -88 88 rlineto
          -7 7 -3 7 0 8 0 8 3 7 7 6 rrcurveto
          88 89 rlineto
          7 6 7 3 8 0 8 0 7 -3 7 -6 rrcurveto
          89 -89 rlineto
          6 -6 3 -7 0 -8 0 -8 -3 -7 -6 -7 rrcurveto
          -89 -88 rlineto
          -7 -6 -7 -3 -8 0 rrcurveto
          1181 -9 rmoveto
          21 0 19 8 16 15 16 15 9 19 1 23 rrcurveto
          25 805 rlineto
          0 29 -11 25 -21 21 -21 21 -25 11 -29 0 -29 0 -25 -11 -21 -21 -21 -22 -11 -25 0 -29 rrcurveto
          25 -804 rlineto
          1 -23 9 -19 16 -15 16 -15 19 -8 21 0 rrcurveto
          2740 41 rmoveto
          25 0 21 9 18 18 17 17 9 21 0 25 0 25 -9 21 -17 18 -18 17 -21 9 -25 0 rrcurveto
          -2440 -180 hlineto
          -1283 -459 rmoveto
          25 0 22 9 17 17 17 17 9 22 0 25 0 22 -9 21 -17 20 rrcurveto
          -113 113 rlineto
          -6 7 -3 7 0 8 0 8 3 7 6 7 rrcurveto
          113 117 rlineto
          9 9 13 7 15 7 15 6 14 3 12 0 rrcurveto
          541 180 -540 hlineto
          -13 0 -13 3 -15 7 -15 6 -13 7 -9 9 rrcurveto
          -114 114 rlineto
          -6 7 -3 7 0 8 0 7 3 7 6 7 rrcurveto
          113 113 rlineto
          17 20 9 21 0 23 0 27 -9 22 -18 17 -19 17 -21 8 -23 0 -22 0 -21 -9 -20 -17 rrcurveto
          -457 -459 rlineto
          -18 -19 -9 -21 0 -24 0 -23 9 -21 18 -21 rrcurveto
          457 -457 rlineto
          20 -17 21 -8 22 0 rrcurveto
          987 -81 rmoveto
          43 0 38 16 31 33 31 32 15 38 0 45 0 46 -15 39 -31 33 -31 32 -38 16 -43 0 -47 0 -39 -16 -31 -32 -31 -33 -16 -39 0 -46 0 -45 16 -38 31 -32 31 -33 39 -16 47 0 rrcurveto
          endchar
        </CharString>
        <CharString name="xml_comment_empty">
          0 -2981 478 rmoveto
          -8 0 -7 3 -7 6 rrcurveto
          -88 88 rlineto
          -7 7 -3 7 0 8 0 8 3 7 7 6 rrcurveto
          88 89 rlineto
          7 6 7 3 8 0 8 0 7 -3 7 -6 rrcurveto
          89 -89 rlineto
          6 -6 3 -7 0 -8 0 -8 -3 -7 -6 -7 rrcurveto
          -89 -88 rlineto
          -7 -6 -7 -3 -8 0 rrcurveto
          198 -427 rmoveto
          25 0 22 9 17 17 17 17 9 22 0 25 0 22 -9 21 -17 20 rrcurveto
          -113 113 rlineto
          -6 7 -3 7 0 8 0 8 3 7 6 7 rrcurveto
          113 117 rlineto
          9 9 13 7 15 7 15 6 14 3 12 0 rrcurveto
          541 180 -540 hlineto
          -13 0 -13 3 -15 7 -15 6 -13 7 -9 9 rrcurveto
          -114 114 rlineto
          -6 7 -3 7 0 8 0 7 3 7 6 7 rrcurveto
          113 113 rlineto
          17 20 9 21 0 23 0 27 -9 22 -18 17 -19 17 -21 8 -23 0 -22 0 -21 -9 -20 -17 rrcurveto
          -457 -459 rlineto
          -18 -19 -9 -21 0 -24 0 -23 9 -21 18 -21 rrcurveto
          457 -457 rlineto
          20 -17 21 -8 22 0 rrcurveto
          4188 459 rmoveto
          -5 0 -11 7 -17 15 -18 14 -9 23 0 31 0 31 9 23 18 15 17 14 11 7 5 0 rrcurveto
          -2905 -180 hlineto
          -300 -41 rmoveto
          21 0 19 8 16 15 16 15 9 19 1 23 rrcurveto
          25 805 rlineto
          0 29 -11 25 -21 21 -21 21 -25 11 -29 0 -29 0 -25 -11 -21 -21 -21 -22 -11 -25 0 -29 rrcurveto
          25 -804 rlineto
          1 -23 9 -19 16 -15 16 -15 19 -8 21 0 rrcurveto
          4 -499 rmoveto
          43 0 38 16 31 33 31 32 15 38 0 45 0 46 -15 39 -31 33 -31 32 -38 16 -43 0 -47 0 -39 -16 -31 -32 -31 -33 -16 -39 0 -46 0 -45 16 -38 31 -32 31 -33 39 -16 47 0 rrcurveto
          endchar
        </CharString>
        <CharString name="y">
          0 223 -480 rmoveto
          118 0 101 39 85 78 69 65 64 120 59 175 226 651 113 330 0 9 0 24 -9 22 -18 19 -19 19 -22 9 -25 0 -43 0 -30 -20 -16 -41 rrcurveto
          -254 -718 rlineto
          -3 -9 -8 -5 -11 0 -11 0 -7 5 -3 9 rrcurveto
          -254 718 rlineto
          -15 41 -30 20 -44 0 -25 0 -22 -9 -18 -19 -19 -19 -9 -22 0 -24 0 -10 118 -330 235 -650 4 -11 2 -12 0 -15 0 -49 -28 -60 -56 -71 -49 -60 -59 -30 -71 0 -71 0 -35 -29 0 -58 rrcurveto
          0 -55 30 -27 60 0 rrcurveto
          endchar
        </CharString>
        <CharString name="z">
          0 949 hmoveto
          25 0 21 9 18 18 17 17 9 21 0 25 0 25 -9 22 -17 17 -18 17 -21 9 -25 0 rrcurveto
          -454 hlineto
          -13 0 -10 4 -8 9 -8 9 -4 10 0 11 0 10 3 9 7 9 rrcurveto
          545 582 rlineto
          21 25 11 29 0 31 0 36 -13 31 -25 26 -25 25 -31 13 -35 0 rrcurveto
          -659 hlineto
          -24 0 -21 -9 -18 -17 -18 -18 -9 -21 0 -25 0 -25 9 -21 18 -17 18 -18 21 -9 24 0 rrcurveto
          453 hlineto
          13 0 11 -4 8 -9 7 -9 4 -11 0 -11 0 -9 -3 -9 -7 -9 rrcurveto
          -545 -584 rlineto
          -21 -25 -10 -29 0 -31 0 -35 13 -31 26 -25 25 -25 31 -13 35 0 rrcurveto
          endchar
        </CharString>
        <CharString name="zero">
          0 337 557 rmoveto
          -5 43 -2 48 0 52 0 146 18 121 35 98 45 123 72 62 100 0 81 0 63 -42 45 -84 15 -27 11 -26 9 -27 rrcurveto
          -224 -894 rmoveto
          -100 0 -72 62 -45 123 rrcurveto
          -4 10 485 485 rlineto
          4 -45 2 -44 0 -41 0 -45 -2 -48 -5 -51 -5 -51 -8 -49 -11 -48 -12 -49 -16 -43 -21 -39 -21 -39 -26 -30 -31 -23 -31 -23 -37 -12 -44 0 rrcurveto
          -180 vmoveto
          77 0 66 16 53 31 53 31 43 41 33 52 33 51 26 58 19 63 18 63 12 66 7 67 7 67 3 64 0 60 0 61 -3 64 -7 67 -7 67 -13 65 -18 63 -19 63 -26 58 -33 51 rrcurveto
          -33 51 -43 42 -53 31 -53 31 -64 16 -77 0 -141 0 -108 -57 -74 -114 -85 -131 -43 -186 0 -242 0 -355 85 -227 171 -101 53 -31 64 -16 77 0 rrcurveto
          endchar
        </CharString>
</ttFont>
